<?xml version="1.0" encoding="UTF-8"?><svg xmlns="http://www.w3.org/2000/svg" xmlns:xlink="http://www.w3.org/1999/xlink" height="80.1" preserveAspectRatio="xMidYMid meet" version="1.0" viewBox="-2.6 -2.0 101.2 80.1" width="101.2" zoomAndPan="magnify"><g><g id="change1_1"><path d="M48.04,76.19c22.33-13.34,35.09-27.64,42.25-38.52c6.15-9.34,4.66-21.75-3.47-29.42l0,0 c-2.94-2.78-6.42-4.63-10.07-5.57c-9.78-2.52-20.02,2.05-25.21,10.71c0,0-3.5,5.85-3.5,5.85l-3.5-5.85 C39.35,4.73,29.11,0.16,19.33,2.68C15.68,3.62,12.2,5.47,9.26,8.25l0,0c-8.13,7.68-9.62,20.09-3.47,29.42 C12.95,48.55,25.71,62.85,48.04,76.19z" fill="#EF4350"/></g><g id="change2_1"><path d="M48.04,78.19c-0.35,0-0.71-0.09-1.03-0.28C23.67,63.96,10.8,48.93,4.12,38.78c-6.68-10.15-5.1-23.6,3.77-31.98 c3.08-2.91,6.87-5,10.95-6.06c10.44-2.69,21.71,2.09,27.42,11.62l1.78,2.98l1.78-2.98C55.53,2.83,66.81-1.94,77.24,0.74 c4.08,1.05,7.87,3.14,10.95,6.06c8.87,8.37,10.45,21.82,3.77,31.98c-6.68,10.16-19.55,25.19-42.89,39.13 C48.75,78.1,48.39,78.19,48.04,78.19z M24.73,4c-1.63,0-3.28,0.2-4.9,0.62c-3.43,0.88-6.61,2.64-9.2,5.09 c-7.45,7.04-8.79,18.34-3.17,26.87c6.36,9.66,18.54,23.9,40.58,37.28c22.04-13.38,34.22-27.62,40.58-37.28 c5.62-8.53,4.28-19.83-3.17-26.87c-2.59-2.45-5.77-4.21-9.2-5.09c-8.73-2.25-18.19,1.78-22.99,9.8l-3.5,5.85 c-0.36,0.6-1.01,0.97-1.72,0.97s-1.35-0.37-1.72-0.97l-3.5-5.85C38.91,7.89,31.91,4,24.73,4z" fill="inherit"/></g></g></svg>