<?xml version="1.0" encoding="UTF-8"?><svg xmlns="http://www.w3.org/2000/svg" xmlns:xlink="http://www.w3.org/1999/xlink" height="86.0" preserveAspectRatio="xMidYMid meet" version="1.0" viewBox="0.0 -0.4 67.3 86.0" width="67.3" zoomAndPan="magnify"><g><g id="change1_1"><path d="M67.3,32c0,9.4-7.6,17-17,17c-8.1,0-14.9-5.7-16.6-13.3C31.9,43.3,25.1,49,17,49C7.6,49,0,41.4,0,32 s7.6-17,17-17c8.1,0,14.9,5.7,16.6,13.3C35.3,20.7,42.1,15,50.2,15C59.6,15,67.3,22.6,67.3,32z" fill="#FFF"/></g><g id="change2_1"><path d="M46.6,55.6H27.4c-2,0-3.6,1.6-3.6,3.6v13.3c0,7.2,5.9,13.1,13.1,13.1c7.2,0,13.1-5.9,13.1-13.1V59.2 C50.1,57.2,48.5,55.6,46.6,55.6z M21.9,0.1C16.1-0.4,10.3,0.9,5.2,3.6c-2.3,1.2-0.3,4.7,2,3.5c4.5-2.4,9.6-3.4,14.7-3 c1.1,0.1,2-1,2-2C23.9,0.9,23,0.2,21.9,0.1z M62.8,3.6c-5.1-2.7-11-4-16.7-3.5c-1.1,0.1-2,0.8-2,2c0,1,0.9,2.1,2,2 c5.1-0.4,10.2,0.6,14.7,3C63,8.3,65,4.8,62.8,3.6z M55.7,32.3c0,6.2-5.1,11.3-11.3,11.3c-4.9,0-9.1-3.2-10.7-7.6 c-1.5,4.4-5.7,7.6-10.7,7.6c-6.2,0-11.3-5.1-11.3-11.3S16.8,21,23,21c4.9,0,9.1,3.2,10.7,7.6c1.5-4.4,5.7-7.6,10.7-7.6 C50.6,21,55.7,26,55.7,32.3z" fill="inherit"/></g><g id="change3_1"><path d="M50.1,71.3v1.2c0,7-5.5,12.7-12.3,13.1c-0.8-1.4-1.3-3.1-1.3-4.9c0-5.6,4.5-10.1,10.1-10.1 C47.8,70.6,49,70.9,50.1,71.3z" fill="#D85041"/></g><g id="change1_2"><path d="M42.2,56.1c0,2.5-1.4,4.6-3.1,4.6c-0.8,0-1.5-0.4-2.1-1.2c-0.5,0.7-1.3,1.2-2.1,1.2c-1.7,0-3.1-2-3.1-4.6 c0-0.2,0-0.3,0-0.5h10.3C42.2,55.8,42.2,56,42.2,56.1z" fill="#FFF"/></g></g></svg>