<?xml version="1.0" encoding="UTF-8" standalone="no"?><svg xmlns="http://www.w3.org/2000/svg" xmlns:xlink="http://www.w3.org/1999/xlink" fill="#ffffff" height="295.8" preserveAspectRatio="xMidYMid meet" version="1" viewBox="0.0 0.0 165.5 295.8" width="165.5" zoomAndPan="magnify"><g><g id="change1_2"><path d="M123.41,202.39H37.26c-3.68,0-6.67-2.98-6.67-6.67v0c0-3.68,2.98-6.67,6.67-6.67h86.15 c3.68,0,6.67,2.98,6.67,6.67v0C130.08,199.41,127.09,202.39,123.41,202.39z" fill="#009140"/></g><g id="change2_4"><path d="M123.41,204.39H37.26c-4.78,0-8.67-3.89-8.67-8.67c0-4.78,3.89-8.67,8.67-8.67h86.15c4.78,0,8.67,3.89,8.67,8.67 C132.08,200.51,128.19,204.39,123.41,204.39z M37.26,191.06c-2.57,0-4.67,2.09-4.67,4.67s2.09,4.67,4.67,4.67h86.15 c2.57,0,4.67-2.09,4.67-4.67s-2.09-4.67-4.67-4.67H37.26z" fill="inherit"/></g></g><g><g id="change1_3"><path d="M105.31,269.32H55.36c-7.37,0-13.34-5.97-13.34-13.34v-53.59h76.63v53.59 C118.65,263.35,112.68,269.32,105.31,269.32z" fill="#009140"/></g><g id="change2_5"><path d="M105.31,271.33H55.36c-8.46,0-15.34-6.88-15.34-15.34v-55.59h80.63v55.59C120.65,264.44,113.77,271.33,105.31,271.33z M44.02,204.39v51.59c0,6.25,5.09,11.34,11.34,11.34h49.95c6.25,0,11.34-5.09,11.34-11.34v-51.59H44.02z" fill="inherit"/></g></g><g><g id="change1_1"><path d="M117.3,224.54l-73.21,10.2c-3.65,0.51-7.01-2.04-7.52-5.68v0c-0.51-3.65,2.04-7.01,5.68-7.52l73.21-10.2 c3.65-0.51,7.01,2.04,7.52,5.68v0C123.49,220.66,120.94,224.03,117.3,224.54z" fill="#009140"/></g><g id="change2_3"><path d="M43.15,236.8c-1.87,0-3.69-0.6-5.21-1.75c-1.85-1.4-3.04-3.43-3.36-5.72c-0.32-2.29,0.27-4.57,1.67-6.42 c1.4-1.85,3.43-3.04,5.72-3.36l73.21-10.2c4.74-0.66,9.12,2.66,9.78,7.39s-2.65,9.12-7.39,9.78l-73.21,10.2 C43.96,236.77,43.55,236.8,43.15,236.8z M116.38,213.27c-0.21,0-0.43,0.01-0.65,0.04l-73.21,10.2c-1.23,0.17-2.33,0.81-3.08,1.81 c-0.75,0.99-1.07,2.22-0.9,3.46c0.17,1.24,0.81,2.33,1.81,3.08s2.22,1.07,3.46,0.9l73.21-10.2c2.55-0.36,4.33-2.72,3.98-5.27 C120.67,214.96,118.67,213.27,116.38,213.27z" fill="inherit"/></g></g><g><g id="change1_5"><path d="M117.3,247.36l-73.21,10.2c-3.65,0.51-7.01-2.04-7.52-5.68v0c-0.51-3.65,2.04-7.01,5.68-7.52l73.21-10.2 c3.65-0.51,7.01,2.04,7.52,5.68v0C123.49,243.48,120.94,246.85,117.3,247.36z" fill="#009140"/></g><g id="change2_8"><path d="M43.16,259.63c-4.25,0-7.98-3.14-8.58-7.47c-0.32-2.29,0.27-4.57,1.67-6.42c1.4-1.85,3.43-3.04,5.72-3.36l73.21-10.2 c4.74-0.67,9.12,2.66,9.78,7.39s-2.65,9.12-7.39,9.78l-73.21,10.2C43.96,259.6,43.56,259.63,43.16,259.63z M116.38,236.09 c-0.21,0-0.43,0.01-0.65,0.04l-73.21,10.2c-1.23,0.17-2.33,0.81-3.08,1.81c-0.75,0.99-1.07,2.22-0.9,3.46 c0.35,2.55,2.72,4.33,5.27,3.98l73.21-10.2c2.55-0.36,4.33-2.72,3.98-5.27C120.67,237.78,118.67,236.09,116.38,236.09z" fill="inherit"/></g></g><g><g id="change1_4"><path d="M79.77,293.81L79.77,293.81c-13.48,0-24.41-10.93-24.41-24.41v-0.08h48.81v0.08 C104.18,282.88,93.25,293.81,79.77,293.81z" fill="#009140"/></g><g id="change2_6"><path d="M79.77,295.81c-14.56,0-26.41-11.85-26.41-26.41v-2l2-0.08h50.81v2C106.18,283.97,94.33,295.81,79.77,295.81z M57.45,271.33c1.01,11.5,10.63,20.49,22.32,20.49c11.71,0,21.35-9.03,22.33-20.49H57.45z" fill="inherit"/></g></g><g><g id="change3_1"><path d="M163.46,82.73c0,20.42-7.58,39.07-20.08,53.29c-12.86,14.63-24.77,33.56-24.77,53.04v0H42.55v-1.72 c0-20.27-12.01-39.77-24.24-55.94C8.07,117.87,2,101.01,2,82.73C2,38.15,38.14,2,82.73,2S163.46,38.15,163.46,82.73z" fill="#009140"/></g><g id="change2_7"><path d="M40.55,191.06v-3.73c0-9.97-2.47-26.49-23.84-54.73C5.78,118.15,0,100.9,0,82.73C0,37.11,37.11,0,82.73,0 c45.62,0,82.73,37.11,82.73,82.73c0,20.12-7.31,39.52-20.58,54.61c-11.07,12.59-24.27,31.79-24.27,51.72v2L40.55,191.06z M44.55,187.06h72.1c0.49-11.79,5.49-29.92,25.23-52.36c12.63-14.36,19.58-32.82,19.58-51.97C161.46,39.32,126.14,4,82.73,4 C39.32,4,4,39.32,4,82.73c0,17.3,5.5,33.71,15.9,47.46C31.33,145.3,44.44,165.39,44.55,187.06z" fill="inherit"/></g></g><g id="change2_1"><path d="M74.4,189.06h-4v-52.05h-6.11c-5.57,0-10.11-4.54-10.11-10.11v-1.73c0-5.57,4.54-10.11,10.11-10.11 c5.57,0,10.11,4.54,10.11,10.11v7.83h11.11v4H74.4V189.06z M64.29,119.06c-3.37,0-6.11,2.74-6.11,6.11v1.73 c0,3.37,2.74,6.11,6.11,6.11h6.11v-7.83C70.4,121.8,67.66,119.06,64.29,119.06z" fill="inherit"/></g><g id="change2_2"><path d="M90.27,189.06h-4v-52.05H75.16v-4h11.11v-7.83c0-5.57,4.54-10.11,10.11-10.11c5.57,0,10.11,4.54,10.11,10.11v1.73 c0,5.57-4.54,10.11-10.11,10.11h-6.11V189.06z M90.27,133.01h6.11c3.37,0,6.11-2.74,6.11-6.11v-1.73c0-3.37-2.74-6.11-6.11-6.11 s-6.11,2.74-6.11,6.11V133.01z" fill="inherit"/></g></svg>