<?xml version="1.0" encoding="UTF-8" standalone="no"?><svg xmlns="http://www.w3.org/2000/svg" xmlns:xlink="http://www.w3.org/1999/xlink" fill="#000000" height="1329.8" preserveAspectRatio="xMidYMid meet" version="1" viewBox="628.0 561.4 1196.4 1329.8" width="1196.4" zoomAndPan="magnify"><g fill="#ffffff" id="change1_1"><path d="M 891.808594 1869.351562 C 745.46875 1869.351562 659.972656 1848.019531 650.414062 1836.101562 C 668.253906 1793.820312 816.914062 1427.691406 730.117188 1176.140625 C 779.210938 1191.929688 868.5625 1193.101562 891.808594 1193.101562 C 915.035156 1193.101562 1004.261719 1191.929688 1053.390625 1176.179688 C 966.875 1426.941406 1114.390625 1791.539062 1132.988281 1835.691406 C 1121.941406 1848.421875 1036.699219 1869.351562 891.808594 1869.351562 Z M 891.808594 1127.730469 C 991.402344 1127.730469 1049.03125 1141.050781 1062.550781 1149.519531 C 1049.011719 1157.980469 991.355469 1171.300781 891.808594 1171.300781 C 792.261719 1171.300781 734.613281 1157.980469 721.070312 1149.519531 C 734.589844 1141.050781 792.21875 1127.730469 891.808594 1127.730469 Z M 1083.820312 1157.789062 C 1084.480469 1156.679688 1084.789062 1155.53125 1085.179688 1154.359375 C 1085.238281 1154.230469 1085.28125 1154.078125 1085.351562 1153.949219 C 1085.789062 1152.5 1086.390625 1151.078125 1086.390625 1149.519531 C 1086.390625 1108.03125 924.296875 1105.921875 891.808594 1105.921875 C 859.324219 1105.921875 697.226562 1108.03125 697.226562 1149.519531 C 697.226562 1151.058594 697.886719 1152.441406 698.3125 1153.890625 L 698.164062 1153.949219 C 698.335938 1154.308594 698.441406 1154.699219 698.609375 1155.058594 C 698.929688 1155.890625 699.144531 1156.71875 699.589844 1157.511719 C 808.378906 1409.851562 630.761719 1826.691406 628.933594 1830.898438 L 628.039062 1835.21875 C 628.039062 1890.511719 881.039062 1891.148438 891.808594 1891.148438 C 902.582031 1891.148438 1155.539062 1890.511719 1155.539062 1835.21875 L 1154.640625 1830.898438 C 1152.808594 1826.691406 975.222656 1410.230469 1083.820312 1157.789062" fill="inherit"/><path d="M 929.808594 837.324219 L 936.640625 835.132812 L 937.320312 827.984375 C 941.261719 786.355469 971.660156 748.289062 1018.644531 726.128906 L 1023.347656 723.914062 L 1024.585938 718.878906 C 1043.914062 640.230469 1134.015625 583.15625 1238.8125 583.15625 C 1359.070312 583.15625 1456.921875 657.839844 1456.921875 749.613281 C 1456.921875 837.800781 1366.484375 910.707031 1251.019531 915.605469 L 1246.902344 915.800781 L 1243.941406 918.632812 C 1210.921875 950.285156 1161.730469 968.441406 1108.957031 968.441406 C 1106.375 968.441406 1103.847656 968.300781 1101.316406 968.171875 L 1092.433594 967.746094 L 1088.984375 972.316406 C 1066.375 1002.191406 1024.285156 1020.753906 979.132812 1020.753906 C 909.390625 1020.753906 852.632812 977.917969 852.632812 925.246094 C 852.632812 886.9375 882.929688 852.417969 929.808594 837.324219 Z M 979.132812 1042.554688 C 1029.464844 1042.554688 1075.164062 1023.027344 1102.714844 990.078125 C 1104.773438 990.160156 1106.84375 990.242188 1108.957031 990.242188 C 1165.734375 990.242188 1219.054688 970.957031 1256.019531 937.195312 C 1381.21875 930.210938 1478.722656 848.441406 1478.722656 749.613281 C 1478.722656 645.808594 1371.101562 561.359375 1238.8125 561.359375 C 1126.304688 561.359375 1028.886719 623.011719 1004.746094 708.65625 C 955.886719 733.183594 923.484375 773.734375 916.5 818.867188 C 864.214844 838.054688 830.832031 879.195312 830.832031 925.246094 C 830.832031 989.925781 897.363281 1042.554688 979.132812 1042.554688" fill="inherit"/><path d="M 1431.660156 1724.578125 C 1340.878906 1724.578125 1288.019531 1712.320312 1276.179688 1704.761719 C 1292.148438 1666.230469 1381.761719 1437.140625 1330.109375 1274.128906 C 1360.828125 1282.300781 1406.640625 1283.558594 1431.660156 1283.558594 C 1456.648438 1283.558594 1502.378906 1282.300781 1533.058594 1274.148438 C 1481.46875 1437.179688 1571.101562 1666.230469 1587.089844 1704.761719 C 1575.25 1712.320312 1522.410156 1724.578125 1431.660156 1724.578125 Z M 1431.660156 1240.191406 C 1485.070312 1240.191406 1520.140625 1245.988281 1535.53125 1250.96875 C 1520.160156 1255.949219 1485.070312 1261.761719 1431.660156 1261.761719 C 1378.21875 1261.761719 1343.140625 1255.949219 1327.75 1250.96875 C 1343.140625 1245.988281 1378.21875 1240.191406 1431.660156 1240.191406 Z M 1562.539062 1257.328125 C 1563.578125 1255.328125 1564.328125 1253.269531 1564.328125 1250.96875 C 1564.328125 1221.570312 1471.550781 1218.390625 1431.660156 1218.390625 C 1391.761719 1218.390625 1298.941406 1221.570312 1298.941406 1250.96875 C 1298.941406 1253.121094 1299.578125 1255.101562 1300.519531 1256.96875 C 1372.691406 1422.75 1255.191406 1698.550781 1253.980469 1701.339844 L 1253.089844 1705.660156 C 1253.089844 1744.421875 1401.828125 1746.378906 1431.660156 1746.378906 C 1461.460938 1746.378906 1610.191406 1744.421875 1610.191406 1705.660156 L 1609.289062 1701.339844 C 1608.078125 1698.570312 1490.648438 1423.261719 1562.539062 1257.328125" fill="inherit"/><path d="M 1669.671875 1092.191406 L 1665.5625 1092.382812 L 1662.597656 1095.226562 C 1640.421875 1116.503906 1605.992188 1128.960938 1571.015625 1127.09375 L 1562.878906 1126.722656 L 1559.429688 1131.277344 C 1545.125 1150.183594 1518.351562 1161.9375 1489.5625 1161.9375 C 1445.320312 1161.9375 1409.34375 1135.183594 1409.34375 1102.277344 C 1409.34375 1078.503906 1428.417969 1057 1457.945312 1047.511719 L 1464.78125 1045.316406 L 1465.464844 1038.164062 C 1467.960938 1011.847656 1487.347656 987.707031 1517.335938 973.589844 L 1522.023438 971.375 L 1523.253906 966.328125 C 1535.679688 915.8125 1593.894531 879.132812 1661.722656 879.132812 C 1739.425781 879.132812 1802.65625 926.996094 1802.65625 985.835938 C 1802.65625 1042.328125 1744.238281 1089.058594 1669.671875 1092.191406 Z M 1661.722656 857.328125 C 1586.171875 857.328125 1520.613281 898.585938 1503.464844 956.128906 C 1471.53125 972.605469 1450.144531 999.269531 1444.726562 1029.074219 C 1409.769531 1042.628906 1387.550781 1070.78125 1387.550781 1102.277344 C 1387.550781 1147.207031 1433.320312 1183.738281 1489.5625 1183.738281 C 1523.289062 1183.738281 1554.023438 1170.855469 1573.097656 1149.007812 C 1573.925781 1149.03125 1574.777344 1149.0625 1575.636719 1149.0625 C 1613.683594 1149.0625 1649.511719 1136.238281 1674.652344 1113.785156 C 1758.980469 1108.578125 1824.460938 1053.003906 1824.460938 985.835938 C 1824.460938 914.984375 1751.457031 857.328125 1661.722656 857.328125" fill="inherit"/></g></svg>