<?xml version="1.0" encoding="UTF-8" standalone="no"?><svg xmlns="http://www.w3.org/2000/svg" xmlns:xlink="http://www.w3.org/1999/xlink" fill="#171e2e" height="312.5" preserveAspectRatio="xMidYMid meet" version="1" viewBox="-0.7 0.0 262.8 312.5" width="262.8" zoomAndPan="magnify"><g><g><g id="change1_1"><path d="M200.19,177.43h-5.9c-0.24,58.11,10.82,94.77,15.61,107.89c2.9,7.94-0.64,17.14-8.16,19.99 c-0.37,0.14-0.75,0.27-1.14,0.38c-10.05,3-25.82,6.17-43.69,4.14c-2.85-0.32-5.66-1.03-8.26-2.22 c-19.45-8.94-0.87-27.89,31.78-31.01c0,0-13.92-39.43-13.36-99.17h-26.7c-12.84,52.56-11.29,88.35-9.96,101.68 c0.84,8.41-4.88,16.45-12.87,17.34c-0.39,0.05-0.79,0.08-1.2,0.09c-10.48,0.41-26.54-0.43-43.35-6.83 c-2.68-1.02-5.22-2.41-7.45-4.2c-16.62-13.49,6.08-27.24,38.48-22.16c0,0-3.13-35.29,8.36-85.92h-4.81 c-39.68,0-61.89-45.75-37.34-76.92l8.45-10.74c14.21-18.05,25.75-38.05,34.27-59.39l0.38-0.94C120.65,11.12,137.27,1.98,153.88,2 c16.61-0.02,33.23,9.12,40.55,27.44l0.38,0.94c8.52,21.34,20.06,41.34,34.27,59.39l8.45,10.74 C262.08,131.68,239.87,177.43,200.19,177.43z" fill="#ff7222"/></g><g id="change2_2"><path d="M168.38,312.47c-3.77,0-7.68-0.2-11.69-0.65c-3.21-0.36-6.19-1.16-8.87-2.39c-8.97-4.12-9.46-9.78-8.95-12.78 c1.71-10.08,18.23-19.23,38.9-21.77c-2.9-9.33-12.91-45.31-12.71-95.45h-23.11c-12.41,51.61-10.82,86.71-9.54,99.48 c0.96,9.59-5.75,18.54-14.64,19.53c-0.41,0.05-0.88,0.09-1.37,0.1c-10.67,0.42-27.02-0.45-44.11-6.96 c-2.99-1.14-5.68-2.66-7.99-4.51c-7.67-6.23-6.74-11.83-5.5-14.61c4.16-9.34,22.43-14.1,43.08-11.44 c-0.44-8.8-1.12-40.04,8.01-81.59h-2.31c-19.13,0-36.21-10.69-44.56-27.9c-8.35-17.21-6.19-37.23,5.65-52.25l8.45-10.74 c14.1-17.91,25.53-37.72,33.98-58.9l0.38-0.95C118.55,10.99,134.77,0,153.82,0c0.04,0,0.08,0,0.12,0 c19.05,0,35.27,10.99,42.35,28.7l0.38,0.93c8.46,21.18,19.89,41,33.99,58.9l8.45,10.74c11.83,15.02,14,35.05,5.65,52.25 c-8.35,17.21-25.43,27.9-44.56,27.9h-3.9c0.02,56.65,10.81,92.38,15.49,105.2c3.31,9.05-0.97,19.38-9.33,22.55 c-0.43,0.16-0.86,0.31-1.3,0.43C193.17,309.99,181.67,312.47,168.38,312.47z M140.37,175.43h26.7c0.53,0,1.05,0.21,1.42,0.59 c0.38,0.38,0.58,0.89,0.58,1.43c-0.55,58.71,13.11,98.09,13.25,98.49c0.21,0.58,0.13,1.22-0.2,1.74c-0.33,0.52-0.88,0.86-1.5,0.92 c-21.74,2.08-36.55,11.34-37.81,18.72c-0.7,4.15,3.24,6.9,6.67,8.48c2.29,1.05,4.86,1.74,7.65,2.05c17.52,1.99,33-1.11,42.9-4.07 c0.36-0.1,0.69-0.21,1.01-0.33c6.36-2.41,9.56-10.39,6.99-17.43c-4.81-13.18-15.97-50.13-15.73-108.58c0-1.1,0.9-1.99,2-1.99h5.9 c17.59,0,33.28-9.83,40.96-25.65c7.68-15.82,5.69-34.22-5.19-48.03l-8.45-10.74c-14.33-18.21-25.96-38.36-34.55-59.89l-0.38-0.93 C186.12,14.03,171.32,4,153.94,4c-0.04,0-0.07,0-0.11,0c-17.38,0-32.19,10.03-38.64,26.18l-0.38,0.95 c-8.59,21.52-20.22,41.67-34.55,59.88l-8.45,10.74c-10.88,13.81-12.87,32.22-5.19,48.03c7.68,15.82,23.37,25.65,40.96,25.65h4.81 c0.61,0,1.18,0.28,1.56,0.75c0.38,0.48,0.52,1.1,0.39,1.69c-11.29,49.75-8.35,84.95-8.32,85.3c0.05,0.61-0.18,1.22-0.63,1.64 c-0.45,0.42-1.07,0.61-1.68,0.51c-21.58-3.38-38.22,1.91-41.27,8.76c-1.71,3.85,1.42,7.49,4.35,9.87c1.97,1.58,4.3,2.89,6.9,3.88 c16.47,6.27,32.23,7.1,42.56,6.7c0.37-0.01,0.7-0.03,1.02-0.08c6.8-0.76,11.88-7.7,11.14-15.16 c-1.31-13.11-2.95-49.31,10.01-102.35C138.65,176.06,139.45,175.43,140.37,175.43z" fill="inherit"/></g></g><g id="change1_3"><path d="M97.18 72.41L85.59 73.5 56.8 83.41 37.41 84.45 34.27 78.43 41.92 61.93 49.55 49.91 55.14 34.6 51.46 25.55 42.64 17.72 32.64 6.27 25.78 6.27 23.2 11.69 28.26 20.79 22.02 20.79 17.76 19.62 14.51 19.92 12.78 13.36 8.5 9.86 2.87 12.38 2.87 21.91 5.72 33.69 5.08 41.36 9.31 46.07 12.96 47.89 18.53 55.98 29.54 55.67 22.02 65.69 17.82 84.45 20 95.23 28.26 101.95 41.13 102.76 65.52 95.95 79.34 92.11 82.29 89.78 97.18 81.46z" fill="#ff7222"/></g><g id="change1_2"><path d="M223.46 181.26L229.2 168.82 227.45 156.54 248.1 131.38 248.27 110.21 241.58 96.01 221.76 83.47 199.43 71.4 198.22 93.41 180.23 170.48 193.57 187.06 207.3 192.13 217.37 195.54 229.42 190.61 229.02 183.58z" fill="#ff7222"/></g></g><g><g id="change2_1"><path d="M24.92,58.28c-2.32,0-4.45-0.46-6.36-1.39c-4.2-2.03-6.14-5.74-6.9-7.66c-2.83-0.74-4.94-2.2-6.28-4.35 c-2.13-3.42-1.54-7.49-1.23-8.92L0.16,16.92c-0.85-4.04,1.75-8.06,5.78-8.95c4.02-0.89,7.96,1.54,8.98,5.52l1.52,5.94 c0.27,1.07-0.37,2.16-1.44,2.43c-1.07,0.27-2.16-0.37-2.43-1.44l-1.52-5.94c-0.48-1.88-2.35-3.02-4.24-2.61 c-1.91,0.42-3.13,2.32-2.73,4.23l4.08,19.48c0.07,0.32,0.05,0.65-0.03,0.96c-0.01,0.03-0.98,3.64,0.67,6.25 c0.9,1.43,2.5,2.36,4.76,2.77c0.77,0.14,1.39,0.72,1.58,1.48c0.01,0.03,1.18,4.35,5.21,6.27c3.49,1.66,8.16,1.18,13.9-1.42 c1.01-0.45,2.19-0.01,2.65,0.99c0.46,1.01,0.01,2.19-0.99,2.65C31.86,57.36,28.2,58.28,24.92,58.28z" fill="inherit"/></g><g id="change2_5"><path d="M16.08,43.36c-0.32,0-0.64-0.08-0.94-0.23c-0.98-0.52-1.35-1.73-0.83-2.7l7.31-13.77c0.77-1.46,0.41-3.27-0.87-4.31 c-0.8-0.65-1.83-0.91-2.84-0.72c-1.01,0.19-1.88,0.82-2.38,1.72L7.95,36.96c-0.54,0.97-1.75,1.31-2.72,0.77 c-0.96-0.54-1.31-1.76-0.77-2.72l7.59-13.62c1.08-1.93,2.94-3.28,5.12-3.7c2.17-0.42,4.41,0.15,6.12,1.55 c2.75,2.25,3.54,6.15,1.88,9.29L17.85,42.3C17.49,42.97,16.79,43.36,16.08,43.36z" fill="inherit"/></g><g id="change2_6"><path d="M26.95,46.89c-0.32,0-0.64-0.08-0.95-0.24c-0.97-0.52-1.34-1.74-0.81-2.71l4.13-7.68c0.94-1.75,0.33-3.9-1.38-4.89 c-0.87-0.51-1.88-0.64-2.85-0.36c-0.97,0.27-1.76,0.92-2.23,1.8l-1.1,2.08c-0.52,0.98-1.73,1.35-2.7,0.83 c-0.98-0.52-1.35-1.73-0.83-2.7l1.1-2.08c0.99-1.86,2.65-3.2,4.67-3.77c2.02-0.58,4.14-0.31,5.96,0.75 c3.58,2.09,4.85,6.59,2.88,10.24l-4.13,7.68C28.36,46.51,27.67,46.89,26.95,46.89z" fill="inherit"/></g><g id="change2_3"><path d="M43.27,87.46c-1.91,0-3.63-0.18-5.1-0.57c-2.24-0.6-3.82-1.99-4.56-4.04c-2.18-5.99,3.05-18.06,15.56-35.9 c3.06-4.37,4.09-9.83,2.82-14.97l-0.04-0.15c-1.29-5.23-4.79-9.6-9.6-12.01l-1.27-0.64c-0.26-0.13-0.5-0.32-0.68-0.55l-7.51-9.55 c-0.72-0.91-1.75-1.49-2.9-1.62c-1.16-0.13-2.29,0.2-3.19,0.93c-0.93,0.75-1.49,1.82-1.58,3.01c-0.09,1.19,0.3,2.33,1.09,3.22 l8.24,9.14c0.74,0.82,0.67,2.08-0.15,2.82c-0.82,0.74-2.08,0.68-2.82-0.15l-8.24-9.14c-1.54-1.71-2.29-3.92-2.11-6.21 c0.18-2.3,1.27-4.36,3.06-5.81c1.74-1.41,3.93-2.05,6.15-1.8c2.23,0.25,4.22,1.36,5.6,3.12l7.23,9.2l0.87,0.44 C50,19.17,54.26,24.5,55.83,30.87l0.04,0.15c1.55,6.27,0.3,12.92-3.43,18.23C41.39,65.01,35.75,77.05,37.36,81.48 c0.2,0.55,0.59,1.22,1.83,1.55c5.33,1.42,15.96-0.46,30.75-5.44c11.38-3.83,21.21-8.18,21.31-8.22c1.01-0.45,2.19,0.01,2.64,1.02 s-0.01,2.19-1.02,2.64C91.41,73.67,60.12,87.46,43.27,87.46z" fill="inherit"/></g><g id="change2_8"><path d="M29.54,23.2c-0.04,0-0.07,0-0.11,0l-7.52-0.41c-1.1-0.06-1.95-1-1.89-2.11c0.06-1.1,1.02-1.95,2.11-1.89l7.52,0.41 c1.1,0.06,1.95,1,1.89,2.11C31.48,22.37,30.6,23.2,29.54,23.2z" fill="inherit"/></g><g id="change2_7"><path d="M38,103.99c-7.78,0-13.41-2.07-16.99-6.19C9.67,84.71,25.65,56.2,26.33,55c0.55-0.96,1.77-1.3,2.73-0.75 c0.96,0.55,1.3,1.77,0.75,2.73c-0.04,0.07-3.97,7.05-6.58,15.36c-2.3,7.34-4.03,17.27,0.81,22.85c4.66,5.37,17.58,8.88,52.72-4.92 c1.03-0.4,2.19,0.1,2.59,1.13c0.4,1.03-0.1,2.19-1.13,2.59C61.23,100.66,47.88,103.99,38,103.99z" fill="inherit"/></g><g id="change2_9"><path d="M207.3,194.13c-0.03,0-0.05,0-0.08,0c-8.05-0.31-18.79-5.86-22.11-14.29c-1.81-4.57-2.16-11.85,6.43-20.51 c2.35-2.38,5.14-4.56,8.29-6.49c20.6-12.61,30.59-24.52,29.7-35.4c-1.13-13.9-20.21-21.81-20.4-21.89 c-1.02-0.42-1.51-1.58-1.1-2.61s1.58-1.52,2.6-1.1c0.88,0.36,21.53,8.91,22.88,25.26c1.03,12.51-9.6,25.68-31.6,39.15 c-2.87,1.76-5.41,3.74-7.53,5.89c-5.67,5.73-7.54,11.19-5.55,16.23c2.61,6.61,11.87,11.5,18.55,11.76 c1.1,0.04,1.96,0.97,1.92,2.08C209.26,193.28,208.37,194.13,207.3,194.13z" fill="inherit"/></g><g id="change2_4"><path d="M218.18,197.52c-4.24,0-8.44-1.55-11.69-4.54l-6.23-5.72c-0.81-0.75-0.87-2.01-0.12-2.83c0.75-0.81,2.01-0.87,2.83-0.12 l6.23,5.72c4.14,3.8,10.25,4.58,15.21,1.94l1.73-0.92c1.09-0.58,1.86-1.61,2.12-2.81c0.26-1.21-0.03-2.46-0.79-3.43 c-1.27-1.63-3.58-2.07-5.37-1.03l-1.99,1.16c-0.59,0.37-1.21,0.73-1.87,1.08c-0.96,0.51-2.16,0.16-2.69-0.79 c-0.53-0.95-0.2-2.16,0.74-2.7l1.7-0.99c13.28-8.43,7.58-23.36,7.32-24.02c-0.32-0.82-0.07-1.76,0.62-2.31 c0.22-0.17,22.06-17.74,20.86-38.58c-0.69-12-8.87-22.94-24.3-32.52c-0.94-0.58-1.23-1.82-0.64-2.75 c0.58-0.94,1.82-1.23,2.75-0.64c16.62,10.31,25.43,22.32,26.19,35.71c0.54,9.54-3.17,19.83-10.74,29.76 c-4.27,5.6-8.59,9.58-10.55,11.27c1.07,3.67,3.14,13.78-3.27,22.04c1.7,0.43,3.26,1.41,4.4,2.87c1.49,1.91,2.06,4.36,1.56,6.73 c-0.5,2.37-2.02,4.38-4.16,5.52l-1.73,0.92C223.72,196.86,220.94,197.52,218.18,197.52z" fill="inherit"/></g></g></svg>