<?xml version="1.0" encoding="UTF-8"?><svg xmlns="http://www.w3.org/2000/svg" xmlns:xlink="http://www.w3.org/1999/xlink" height="88.2" preserveAspectRatio="xMidYMid meet" version="1.0" viewBox="5.6 3.0 130.1 88.2" width="130.1" zoomAndPan="magnify"><g><g><g id="change1_1"><path d="M54.28,28.685c0,0,15.002,62.511,54.881,32.727c25.429-16.469-1.858-36.582-5.644-33.867 C97.356,31.966,60.975,37.862,54.28,28.685z" fill="#F06479"/></g><g id="change2_1"><path d="M88.835,72.93c-27.193,0-37.508-41.661-37.934-43.434l6.185-2.859c1.204,1.651,5.722,3.415,14.792,3.415 c13.038,0,27.004-3.458,29.612-5.33c0.833-0.598,1.834-0.9,2.976-0.9c5.175,0,15.292,7.237,18.134,16.854 c1.495,5.057,1.986,14.834-11.453,23.588C103.419,70.015,95.914,72.93,88.835,72.93z M60.146,35.781 c4.063,11.167,13.256,30.201,28.689,30.201c5.575,0,11.713-2.476,18.247-7.354l0.19-0.133c7.277-4.713,10.228-9.922,8.767-15.485 c-1.704-6.494-8.732-11.554-11.219-12.178c-5.513,3.231-20.961,6.169-32.941,6.169C67.258,37.001,63.342,36.593,60.146,35.781z" fill="#231F20"/></g></g><g id="change2_3"><path d="M78.903,35.726c-10.694,0-22.146-2.136-34.178-6.428C22.5,21.37,6.318,9.064,5.64,8.544l4.228-5.515 c0.626,0.479,63.025,47.465,106.71,13.182l14.565-13.015l4.63,5.181l-14.812,13.228C109.033,30.999,94.809,35.726,78.903,35.726z" fill="#231F20"/></g><g><g id="change1_2"><path d="M95.509,48.376c0,0,1.669-7.908-15.471-15.25" fill="#F06479"/></g><g id="change2_2"><path d="M98.908,49.094l-6.8-1.436c0,0-0.021,0.065-0.032,0.19c0.006-0.056,0.314-5.651-13.407-11.528 c-1.764-0.755-2.581-2.798-1.825-4.562c0.756-1.765,2.794-2.58,4.562-1.826C100.611,38.16,99.139,48,98.908,49.094z" fill="#231F20"/></g></g></g></svg>