<?xml version="1.0" encoding="UTF-8"?><svg xmlns="http://www.w3.org/2000/svg" xmlns:xlink="http://www.w3.org/1999/xlink" height="82.2" preserveAspectRatio="xMidYMid meet" version="1.0" viewBox="-0.3 0.0 64.5 82.2" width="64.5" zoomAndPan="magnify"><g><g><g id="change1_4"><path d="M62.14,76.33L62.14,76.33c-19.71,5.2-40.43,5.2-60.14,0l0,0L32.07,2L62.14,76.33z" fill="#F37553"/></g><g id="change2_4"><path d="M32.07,82.22c-10.29,0-20.58-1.32-30.58-3.96c-0.56-0.15-1.02-0.52-1.28-1.04c-0.26-0.51-0.28-1.11-0.07-1.65L30.22,1.25 C30.52,0.49,31.25,0,32.07,0c0.81,0,1.55,0.49,1.85,1.25l30.07,74.33c0.21,0.53,0.19,1.13-0.07,1.65 c-0.26,0.51-0.72,0.89-1.28,1.04C52.65,80.9,42.36,82.22,32.07,82.22z M4.71,74.95c17.95,4.36,36.77,4.36,54.71,0L32.07,7.33 L4.71,74.95z" fill="inherit"/></g></g></g><g><g><g id="change1_1"><path d="M2,76.33c0,0,16.52-21.9,46.95-32.62" fill="#F37553"/></g><g id="change2_1"><path d="M2,78.33c-0.42,0-0.84-0.13-1.2-0.4c-0.88-0.67-1.06-1.92-0.39-2.8c0.69-0.91,17.23-22.51,47.88-33.3 c1.04-0.37,2.18,0.18,2.55,1.22c0.37,1.04-0.18,2.18-1.22,2.55C20.15,55.97,3.76,77.32,3.6,77.53C3.2,78.05,2.6,78.33,2,78.33z" fill="inherit"/></g></g><g><g id="change1_3"><path d="M16.84,39.65c0,0,9.22-11.12,24.83-13.92" fill="#F37553"/></g><g id="change2_3"><path d="M16.84,41.65c-0.45,0-0.9-0.15-1.28-0.46c-0.85-0.71-0.97-1.96-0.26-2.81c0.4-0.48,9.87-11.72,26.02-14.61 c1.08-0.2,2.13,0.53,2.32,1.62c0.19,1.09-0.53,2.13-1.62,2.32c-14.66,2.63-23.56,13.12-23.65,13.23 C17.98,41.4,17.41,41.65,16.84,41.65z" fill="inherit"/></g></g><g><g id="change1_2"><path d="M28.78,80.23c0,0,10.52-10.12,28.29-16.43" fill="#F37553"/></g><g id="change2_2"><path d="M28.78,82.23c-0.52,0-1.05-0.21-1.44-0.61c-0.77-0.8-0.74-2.06,0.05-2.83c0.44-0.42,11.03-10.49,29-16.88 c1.04-0.37,2.18,0.17,2.55,1.21c0.37,1.04-0.17,2.18-1.21,2.55c-17.17,6.1-27.47,15.89-27.57,15.99 C29.78,82.04,29.28,82.23,28.78,82.23z" fill="inherit"/></g></g></g></svg>