<?xml version="1.0" encoding="UTF-8" standalone="no"?><svg xmlns="http://www.w3.org/2000/svg" xmlns:xlink="http://www.w3.org/1999/xlink" fill="#000000" height="306" preserveAspectRatio="xMidYMid meet" version="1" viewBox="-0.0 0.0 162.0 306.0" width="162" zoomAndPan="magnify"><g><g><g id="change1_3"><path d="M82.72,2L82.72,2c31.48,0,57,25.52,57,57v139.37c0,23.25-18.85,42.1-42.1,42.1H67.81 c-23.25,0-42.1-18.85-42.1-42.1V59C25.71,27.52,51.23,2,82.72,2z" fill="#e75fa2"/></g><g id="change2_15"><path d="M97.62,242.47H67.81c-24.32,0-44.1-19.78-44.1-44.1V59c0-32.54,26.47-59,59-59s59,26.47,59,59v139.37 C141.72,222.69,121.94,242.47,97.62,242.47z M82.71,4c-30.33,0-55,24.67-55,55v139.37c0,22.11,17.99,40.1,40.1,40.1h29.82 c22.11,0,40.1-17.99,40.1-40.1V59C137.72,28.67,113.05,4,82.71,4L82.71,4z" fill="inherit"/></g></g></g><g><g id="change1_2"><path d="M133.96 156.71L147.3 147.65 149.18 136.14 143.16 128.6 132.54 122.99 133.96 156.71" fill="#e75fa2"/></g></g><g><g id="change1_1"><path d="M26.72,130.02c-3.77,1.92-6.46,4.98-7.57,8.63c-0.98,3.24-0.59,6.68,1.09,9.7 c2.28,4.08,6.54,6.79,11.33,7.7l1.32-31.15l-5.18,2.74C28.01,128.54,27.61,129.56,26.72,130.02z" fill="#e75fa2"/></g><g><path d="M115.91,128.22c1.04-0.38,2.19,0.16,2.56,1.2c0.2,0.56,0.13,1.15-0.13,1.63l7.9,2.82 c-1.39-5.38-5.1-9.94-10.32-12.64c-0.96-0.5-1.97-0.93-3-1.3c-5.64-2.01-11.84-2.01-17.47,0l-4.09,1.46l21.84,7.81L115.91,128.22z" fill="none"/></g><g><path d="M85.42 123.52L63.31 131.43 85.2 139.39 107.31 131.35z" fill="none"/></g><g><path d="M75.39,119.94c-5.63-2.01-11.84-2.02-17.47,0c-1.03,0.37-2.04,0.81-3,1.3c-2.68,1.38-4.96,3.26-6.73,5.49 c0.5-0.3,1.12-0.39,1.71-0.17l7.53,2.74l22.06-7.89L75.39,119.94z" fill="none"/></g><g><path d="M47.28,127.94c-1.22,1.81-2.14,3.8-2.69,5.93l6.92-2.48l-2.99-1.09C47.56,129.95,47.03,128.93,47.28,127.94z" fill="none"/></g><g id="change2_4"><path d="M85.2 139.39L91.05 141.52 113.21 133.46 107.31 131.35z" fill="inherit"/></g><g id="change2_1"><path d="M41.54,155.26c-3.27,1.19-6.73,1.39-9.96,0.78l-0.11,2.57l-13.33-9.07l-1.88-11.5l6.02-7.54l5.45-2.88 c-0.03-0.1-0.07-0.2-0.12-0.3c-0.5-0.98-1.71-1.38-2.69-0.88c-4.75,2.42-8.15,6.33-9.58,11.03c-1.3,4.29-0.79,8.84,1.43,12.82 c3.55,6.34,10.83,10.08,18.42,10.08c2.59,0,5.21-0.43,7.73-1.35l42.29-15.38l-5.85-2.13L41.54,155.26z" fill="inherit"/></g><g id="change2_9"><path d="M16.25,138.04l1.88,11.5l13.33,9.07l0.11-2.57c-4.79-0.91-9.04-3.62-11.33-7.7c-1.69-3.02-2.08-6.46-1.09-9.7 c1.11-3.64,3.79-6.71,7.57-8.63c0.89-0.45,1.29-1.47,0.99-2.39l-5.45,2.88L16.25,138.04z" fill="inherit"/></g><g id="change2_12"><path d="M95.45,119.94c5.63-2.01,11.84-2.02,17.47,0c1.03,0.37,2.04,0.8,3,1.3c5.22,2.7,8.93,7.26,10.32,12.64l4.42,1.58 l-0.25-1.28c-1.39-7.04-6-13.05-12.66-16.49c-1.12-0.58-2.29-1.09-3.49-1.51c-6.5-2.32-13.66-2.32-20.17,0l-8.68,3.1l5.94,2.12 L95.45,119.94z" fill="inherit"/></g><g id="change2_18"><path d="M79.48 121.4L57.42 129.29 63.31 131.43 85.42 123.52z" fill="inherit"/></g><g id="change2_6"><path d="M44.6,133.87c-0.09,0.35-0.17,0.71-0.24,1.07l-0.31,1.58c-0.21,1.08-1.26,1.8-2.35,1.58c-1.08-0.21-1.79-1.26-1.58-2.35 l0.06-0.29l-0.02,0.01c-1.04,0.37-1.58,1.52-1.21,2.56c0.29,0.82,1.06,1.33,1.88,1.33c0.22,0,0.45-0.04,0.67-0.12l15.91-5.69 l-5.89-2.14L44.6,133.87z" fill="inherit"/></g><g id="change2_2"><path d="M47.28,127.94c0.02-0.07,0.03-0.13,0.05-0.2c0.16-0.45,0.47-0.79,0.85-1.02c1.78-2.23,4.05-4.11,6.73-5.49 c0.96-0.49,1.96-0.93,3-1.3c5.64-2.01,11.84-2.01,17.47,0l4.09,1.46l5.94-2.12l-8.68-3.1c-6.5-2.32-13.66-2.33-20.17,0 c-1.2,0.43-2.37,0.94-3.49,1.51c-6.66,3.44-11.27,9.45-12.66,16.49l-0.25,1.29l4.42-1.58C45.14,131.75,46.06,129.75,47.28,127.94z" fill="inherit"/></g><g id="change2_5"><path d="M129.14,138.09c-1.09,0.22-2.14-0.49-2.35-1.58l-0.31-1.58c-0.07-0.36-0.15-0.72-0.24-1.07l-7.9-2.82 c-0.22,0.42-0.59,0.76-1.07,0.93l-4.07,1.48l16.13,5.77c0.22,0.08,0.45,0.12,0.67,0.12c0.82,0,1.59-0.51,1.88-1.33 c0.37-1.04-0.17-2.19-1.21-2.56l-0.02-0.01l0.06,0.29C130.93,136.83,130.23,137.88,129.14,138.09z" fill="inherit"/></g><g id="change2_16"><path d="M118.34,131.05l-4.25-1.52c-0.58-0.21-1.21-0.21-1.79,0l-5,1.82l5.9,2.11l4.07-1.48 C117.75,131.81,118.12,131.46,118.34,131.05z" fill="inherit"/></g><g id="change2_17"><path d="M41.69,138.09c1.08,0.22,2.14-0.49,2.35-1.58l0.31-1.58c0.07-0.36,0.15-0.72,0.24-1.07l-4.42,1.58l-0.06,0.29 C39.91,136.83,40.61,137.88,41.69,138.09z" fill="inherit"/></g><g id="change2_3"><path d="M126.48,134.94l0.31,1.58c0.21,1.08,1.26,1.79,2.35,1.58c1.08-0.21,1.79-1.27,1.58-2.35l-0.06-0.29l-4.42-1.58 C126.33,134.23,126.41,134.58,126.48,134.94z" fill="inherit"/></g><g id="change2_10"><path d="M85.42 123.52L91.36 121.4 85.42 119.28 79.48 121.4z" fill="inherit"/></g><g id="change2_13"><path d="M150.38,136.08c-1.46-4.8-5.07-8.97-9.92-11.43c-0.99-0.5-2.19-0.11-2.69,0.88c-0.5,0.98-0.11,2.19,0.88,2.69 c3.88,1.97,6.76,5.27,7.91,9.03c0.97,3.19,0.62,6.54-1,9.43c-3.82,6.83-13.17,9.88-21.29,6.92l-33.21-12.08l-5.85,2.13 l37.69,13.71c2.52,0.92,5.14,1.35,7.73,1.35c7.58,0,14.87-3.74,18.42-10.08C151.19,144.78,151.67,140.33,150.38,136.08z" fill="inherit"/></g><g id="change2_14"><path d="M85.2 139.39L79.35 141.52 85.2 143.64 91.05 141.52z" fill="inherit"/></g><g id="change2_7"><path d="M57.42 129.29L51.52 131.4 57.41 133.54 63.31 131.43z" fill="inherit"/></g><g id="change2_19"><path d="M47.33,127.75c-0.02,0.07-0.03,0.13-0.05,0.2c0.28-0.42,0.59-0.82,0.9-1.22C47.81,126.95,47.49,127.3,47.33,127.75z" fill="inherit"/></g><g><g id="change1_5"><path d="M17.55,286.34c-1.99-2.05-3.6-4.47-4.85-7.05C4.83,263.12,2.55,247.2,2.03,236.73 C2,236.32,2,235.92,2,235.52c0.18-8.04,7.67-14.45,16.12-14.36c14.68,0.14,56.18-1.86,115.4-24.42c7.13-2.72,15.1,0.95,17.65,8.14 l0,0c2.44,6.89-1.02,14.47-7.82,17.15c-60.71,23.96-107.17,24-107.17,24C44.13,277.85,32.47,301.69,17.55,286.34z" fill="#e75fa2"/></g><g id="change2_11"><path d="M26.51,293.11c-2.79,0-6.35-1.22-10.39-5.38l0,0c-2.05-2.11-3.8-4.66-5.21-7.56c-8.02-16.45-10.34-32.65-10.88-43.34 C0,236.39-0.01,235.93,0,235.48c0.2-8.94,8.48-16.44,18.14-16.32c14.91,0.13,55.99-1.94,114.66-24.29 c3.96-1.51,8.27-1.36,12.11,0.42c3.83,1.77,6.72,4.94,8.13,8.92c2.81,7.94-1.13,16.59-8.97,19.68 c-31.53,12.45-59.16,18.35-76.78,21.1c-14.21,2.22-24.21,2.82-28.62,2.98c4.5,20.33,1.39,38.95-7.54,43.92 C30.05,292.51,28.47,293.11,26.51,293.11z M18.99,284.95c2.63,2.71,6.54,5.5,10.22,3.46c6.55-3.64,10.33-20.69,5.03-41.89 l-0.62-2.48l2.56,0c0.12,0,11.76-0.05,30.62-3.01c17.4-2.73,44.68-8.56,75.82-20.86c5.83-2.3,8.76-8.72,6.67-14.63 c-1.05-2.96-3.19-5.31-6.04-6.63c-2.86-1.32-6.06-1.43-9.01-0.31c-59.31,22.6-100.97,24.69-116.13,24.55c-0.05,0-0.1,0-0.15,0 c-7.43,0-13.81,5.65-13.96,12.41c-0.01,0.34,0,0.68,0.02,1.02c0.52,10.35,2.76,25.98,10.48,41.82 C15.73,280.94,17.24,283.14,18.99,284.95L18.99,284.95z" fill="inherit"/></g></g><g><g id="change1_4"><path d="M142.17,291.24c2.07-1.97,3.78-4.31,5.13-6.84c8.54-15.83,11.46-31.65,12.42-42.09 c0.04-0.4,0.06-0.8,0.07-1.2c0.15-8.04-7.07-14.75-15.52-15.01c-14.67-0.46-56.06-4.17-114.3-29.15 c-7.01-3.01-15.13,0.32-17.96,7.4l0,0c-2.72,6.78,0.43,14.5,7.11,17.46c59.67,26.44,106.09,28.39,106.09,28.39 C115.96,281.67,126.63,305.96,142.17,291.24z" fill="#e75fa2"/></g><g id="change2_8"><path d="M133.34,297.65c-2.15,0-3.84-0.71-4.98-1.41c-8.72-5.33-11.06-24.07-5.73-44.2c-4.4-0.34-14.37-1.35-28.47-4.15 c-17.49-3.48-44.85-10.51-75.84-24.24c-7.71-3.41-11.29-12.21-8.15-20.03c1.57-3.92,4.59-6.97,8.49-8.58 c3.92-1.62,8.22-1.59,12.12,0.08c57.7,24.75,98.64,28.52,113.57,28.99c9.63,0.3,17.62,8.11,17.46,17.05 c-0.01,0.46-0.03,0.92-0.08,1.38c-0.97,10.62-3.96,26.71-12.65,42.83c-1.53,2.84-3.38,5.31-5.52,7.34l0,0 C139.53,296.49,136.07,297.65,133.34,297.65z M24.61,197.83c-1.5,0-3,0.3-4.43,0.89c-2.9,1.2-5.14,3.46-6.31,6.37 c-2.33,5.81,0.33,12.35,6.06,14.89c30.61,13.56,57.63,20.51,74.9,23.96c18.72,3.73,30.35,4.26,30.47,4.26l2.56,0.11l-0.72,2.45 c-6.16,20.96-3.08,38.15,3.31,42.06c3.59,2.2,7.61-0.44,10.35-3.04c1.83-1.74,3.42-3.87,4.75-6.34 c8.37-15.52,11.25-31.04,12.19-41.33c0.04-0.38,0.06-0.72,0.06-1.06c0.13-6.8-6.09-12.74-13.58-12.98 c-15.15-0.48-56.69-4.29-115.02-29.31C27.72,198.15,26.17,197.83,24.61,197.83z" fill="inherit"/></g></g></g></svg>