<?xml version="1.0" encoding="UTF-8"?><svg xmlns="http://www.w3.org/2000/svg" xmlns:xlink="http://www.w3.org/1999/xlink" height="59.6" preserveAspectRatio="xMidYMid meet" version="1.0" viewBox="-1.1 -0.4 78.5 59.6" width="78.5" zoomAndPan="magnify"><g id="change1_1"><path d="M42.5,52.2c-0.1,0.1-0.2,0.2-0.3,0.2c0,0-0.2,0.1-0.2,0.2c-0.1,0-0.1,0.1-0.1,0.1c-0.1,0.1-0.2,0.2-0.4,0.2 c-0.2,0.1-0.4,0.2-0.6,0.3c-0.1,0.1-0.3,0.1-0.4,0.2c0,0,0,0,0,0c-0.5,0.2-1,0.3-1.5,0.5c-0.2,0.1-0.5,0.1-0.7,0.1c0,0,0,0,0,0 c-0.1,0-0.3,0-0.4,0c-0.5,0-1,0-1.5,0c0,0-0.2,0-0.3,0c-0.1,0-0.1,0-0.1,0c-0.3,0-0.5-0.1-0.8-0.2c-0.3-0.1-0.5-0.1-0.7-0.2 c-0.1,0-0.2-0.1-0.3-0.1c0,0,0,0,0,0c-0.5-0.3-1-0.5-1.4-0.8c-0.9-0.6-2.3-0.2-2.7,0.7c-0.5,1-0.2,2.1,0.7,2.7 c4.4,3.1,10.8,2.5,14.7-1.1c0.8-0.7,0.8-2.1,0-2.8C44.5,51.5,43.3,51.5,42.5,52.2z M3.4,3.6c5.1-2.7,11-4,16.7-3.5 c1.1,0.1,2,0.9,2,2c0,1-0.9,2.1-2,2C15,3.7,9.9,4.7,5.4,7.1C3.1,8.3,1.1,4.8,3.4,3.6z M52.2,2.1c0-1.1,0.9-1.9,2-2 C60-0.4,65.9,0.9,71,3.6c2.3,1.2,0.3,4.7-2,3.5c-4.5-2.4-9.6-3.4-14.7-3C53.2,4.2,52.2,3.1,52.2,2.1z M23.8,36.1 c-2.3,3.7-6.5,6.3-10.8,6.6c-4.7,0.4-9.4-1.6-12.4-5.2c-1.7-2,1.5-4.4,3.2-2.5c2.2,2.5,5.6,4,9,3.6c3.3-0.4,6.2-2.3,8-5.1 c0.6-0.9,2-1,2.8-0.4C24.3,34,24.3,35.2,23.8,36.1z M52.8,33.3c0.8-0.6,2.2-0.5,2.8,0.4c1.8,2.8,4.6,4.7,8,5.1 c3.4,0.4,6.8-1.1,9-3.6c1.7-2,4.8,0.5,3.2,2.5c-3.1,3.6-7.7,5.6-12.4,5.2c-4.4-0.4-8.5-3-10.8-6.6C51.8,35.2,51.9,34,52.8,33.3z" fill="inherit"/></g></svg>