<?xml version="1.0" encoding="UTF-8" standalone="no"?><svg xmlns="http://www.w3.org/2000/svg" xmlns:xlink="http://www.w3.org/1999/xlink" fill="#000000" height="365" preserveAspectRatio="xMidYMid meet" version="1" viewBox="-0.2 -0.1 397.5 365.0" width="397.5" zoomAndPan="magnify"><g><g><g id="change1_2"><path d="M210.23,232.73c6.29,13.56,9.08,27.68,8.76,38.53c-1.08,36.23-23.35,58.76-23.35,58.76 c32.79,0.75,45.92,18.02,27.17,28.34c-2.51,1.38-5.26,2.29-8.08,2.81c-17.68,3.32-33.64,1.3-43.88-0.97 c-0.39-0.08-0.78-0.18-1.16-0.29c-7.71-2.3-11.9-11.22-9.58-19.35c2.86-10.06,31.17-33.28,31.85-68.78 c0.24-12.61-3.14-27.76-12.13-43.32l-54.43-8.77c-31.12,43.12-43.06,76.27-46.86,88.99c-2.41,8.1-10.75,13.36-18.48,11.16 c-0.38-0.11-0.77-0.23-1.14-0.38c-9.86-3.59-24.4-10.47-37.52-22.77c-2.09-1.96-3.92-4.21-5.3-6.71 c-10.26-18.79,15.96-22.89,44.01-5.9c0,0,9.66-31.15,36.8-71.2c-28.24-14.15-36.02-54.04-10.62-77.42l10.05-9.25 c16.9-15.56,31.48-33.47,43.29-53.18l0.53-0.87c10.13-16.92,28-23.3,44.39-20.64c16.41,2.63,31.36,14.29,35.67,33.55l0.22,0.99 c5.02,22.42,13.23,44,24.39,64.08l6.63,11.95C269.41,194.41,245.29,232.75,210.23,232.73z" fill="#22aae2"/></g><g id="change2_11"><path d="M195.57,364.92c-9.97,0-18.67-1.33-25.15-2.77c-0.41-0.08-0.85-0.2-1.28-0.32c-8.59-2.56-13.59-12.55-10.95-21.82 c0.95-3.35,4.17-7.66,8.25-13.12c9.18-12.29,23.06-30.87,23.52-55.15c0.18-9.46-1.67-24.27-11.39-41.46l-52.27-8.42 c-30.51,42.53-42.22,75.24-45.85,87.39c-2.75,9.23-12.34,14.96-20.94,12.51c-0.43-0.13-0.89-0.27-1.35-0.45 c-9.98-3.63-24.76-10.62-38.13-23.16c-2.35-2.2-4.26-4.63-5.68-7.2c-4.73-8.67-1.75-13.5,0.46-15.6 c7.39-7.06,26.11-4.54,44.2,5.77c2.79-7.92,13.11-34.77,35.01-67.51c-13.3-7.47-22.44-20.93-24.62-36.46 c-2.28-16.23,3.38-31.97,15.54-43.16l10.05-9.25C111.76,109.3,126.2,91.55,137.92,72l0.54-0.88 c9.79-16.36,27.59-24.63,46.42-21.57c18.84,3.02,33.13,16.46,37.3,35.09l0.22,0.99c4.98,22.25,13.12,43.63,24.19,63.54l6.63,11.95 c8.62,15.51,8.41,33.87-0.56,49.1c-8.52,14.46-23.08,23.43-39.38,24.42c5.25,12.27,8.05,25.48,7.72,36.68 c-0.87,29.13-14.92,49.37-21.09,56.9c17.91,1.25,31.04,7.72,33.22,16.66c1.38,5.65-2.02,11.21-9.34,15.24 c-2.59,1.42-5.51,2.44-8.68,3.02C208.26,364.42,201.67,364.92,195.57,364.92z M125.4,217.69c0.11,0,0.21,0.01,0.32,0.03 l54.43,8.77c0.59,0.1,1.11,0.45,1.41,0.97c10.6,18.34,12.59,34.25,12.4,44.36c-0.49,25.57-14.83,44.76-24.32,57.46 c-3.68,4.93-6.86,9.18-7.61,11.82c-2.06,7.21,1.71,14.94,8.23,16.89c0.31,0.09,0.65,0.18,0.99,0.25 c10.11,2.24,25.77,4.22,43.11,0.96c2.76-0.51,5.28-1.38,7.49-2.6c5.7-3.14,8.32-6.96,7.39-10.78 c-2.11-8.61-18.52-13.46-33.64-13.81c-0.8-0.02-1.51-0.51-1.81-1.25c-0.3-0.74-0.13-1.59,0.43-2.16 c0.22-0.22,21.73-22.45,22.77-57.41c0.34-11.44-2.79-25.15-8.58-37.63c-0.29-0.62-0.24-1.34,0.13-1.92c0.37-0.58,1-0.92,1.69-0.92 h0c0.01,0,0.02,0,0.03,0c16.07,0,30.63-8.42,38.94-22.54c8.24-14,8.43-30.87,0.51-45.13l-6.63-11.95 c-11.25-20.25-19.53-41.98-24.59-64.61l-0.22-0.99c-3.8-16.99-16.84-29.25-34.03-32.01c-17.18-2.79-33.42,4.76-42.36,19.69 l-0.54,0.88c-11.91,19.87-26.59,37.91-43.64,53.61l-10.05,9.25c-11.18,10.29-16.39,24.75-14.29,39.66 c2.11,14.99,11.25,27.88,24.45,34.5c0.52,0.26,0.89,0.73,1.04,1.28c0.15,0.56,0.04,1.15-0.28,1.63 c-26.64,39.31-36.45,70.36-36.55,70.67c-0.18,0.59-0.63,1.06-1.2,1.28s-1.22,0.16-1.75-0.16c-18.68-11.32-36.09-12.73-41.5-7.56 c-3.04,2.91-1.53,7.47,0.28,10.79c1.22,2.2,2.87,4.29,4.91,6.21c12.88,12.08,27.14,18.82,36.84,22.35 c0.38,0.15,0.7,0.25,1.01,0.34c6.54,1.86,13.87-2.63,16.01-9.81c3.72-12.44,15.75-46.08,47.16-89.59 C124.16,217.99,124.77,217.69,125.4,217.69z" fill="inherit"/></g></g><g><g id="change1_1"><path d="M243.08 151.27L235.69 166.53 269.54 175.81 319.31 179.81 330.26 192.18 345.69 196.32 352.25 199.37 356.09 196.14 357.22 191.12 362.12 188.18 363.59 180.88 368.25 176.95 369.62 173.16 387.15 176.63 395.41 170.03 390.74 163.32 352.53 160.15 348.13 153.7 335.72 152.94 321.39 163.25 277.41 160.08z" fill="#22aae2"/></g></g><g><g id="change2_7"><path d="M390.35,177.17c-1.29,0.32-2.65,0.36-3.97,0.08l-30.13-6.35c-1.08-0.23-1.77-1.29-1.54-2.37 c0.23-1.08,1.29-1.77,2.37-1.54l30.13,6.35c1.31,0.28,2.63,0.01,3.73-0.76c1.1-0.76,1.81-1.91,2.01-3.24 c0.19-1.3-0.15-2.59-0.95-3.64c-0.81-1.04-1.97-1.69-3.28-1.83l-35.2-3.78c-1.1-0.12-1.89-1.1-1.77-2.2 c0.12-1.1,1.1-1.89,2.2-1.77l35.2,3.78c2.4,0.26,4.54,1.45,6.02,3.36c1.48,1.91,2.1,4.28,1.75,6.67 c-0.35,2.39-1.69,4.55-3.68,5.93C392.35,176.47,391.38,176.91,390.35,177.17z" fill="inherit"/></g></g><g><g id="change2_12"><path d="M351.52,179.17c-0.48,0.12-0.97,0.2-1.47,0.24c-2.23,0.16-4.39-0.56-6.08-2.03c-1.69-1.47-2.7-3.51-2.86-5.74l-0.44-6.39 c-0.08-1.1,0.75-2.06,1.86-2.13c1.1-0.08,2.06,0.76,2.13,1.86l0.44,6.39c0.08,1.17,0.61,2.23,1.49,3 c0.88,0.77,2.01,1.14,3.17,1.06c1.2-0.09,2.28-0.64,3.05-1.57c0.77-0.93,1.11-2.09,0.97-3.29l-1.03-8.9 c-0.43-3.68-3.42-6.52-7.12-6.75l-3.8-0.24c-3.06-0.19-6.07,0.75-8.47,2.66l-8.43,6.69l-0.58,0.06 c-0.41,0.04-41.36,4.04-80.36-12.09c-1.02-0.42-1.51-1.59-1.08-2.61c0.42-1.02,1.59-1.51,2.61-1.08 c35.6,14.72,72.83,12.27,77.85,11.85l7.51-5.96c3.18-2.52,7.16-3.77,11.21-3.51l3.8,0.24c5.63,0.36,10.19,4.68,10.84,10.28 l1.03,8.9c0.27,2.29-0.4,4.53-1.87,6.3C354.75,177.78,353.23,178.74,351.52,179.17z" fill="inherit"/></g></g><g><g id="change2_2"><path d="M365.99,181.25c-1.7,0.43-3.49,0.34-5.18-0.27l-7.35-2.65c-1.04-0.37-1.58-1.52-1.2-2.56c0.37-1.04,1.52-1.58,2.56-1.2 l7.35,2.65c1.26,0.45,2.61,0.38,3.81-0.2c1.2-0.58,2.09-1.6,2.52-2.87l0.92-2.76c0.35-1.05,1.48-1.61,2.53-1.26 c1.05,0.35,1.61,1.48,1.26,2.53l-0.92,2.76c-0.76,2.3-2.39,4.14-4.57,5.2C367.16,180.89,366.58,181.1,365.99,181.25z" fill="inherit"/></g></g><g><g id="change2_1"><path d="M360.72,191.82c-2,0.5-4.14,0.17-5.89-0.94l-9.5-5.98c-1.33-0.84-2.25-2.15-2.58-3.7c-0.33-1.54-0.03-3.11,0.85-4.43 c0.61-0.92,1.85-1.17,2.77-0.55c0.92,0.61,1.17,1.85,0.55,2.77c-0.27,0.41-0.36,0.89-0.26,1.37c0.1,0.48,0.39,0.89,0.8,1.15 l9.49,5.98c0.84,0.53,1.82,0.68,2.78,0.44c0.02-0.01,0.04-0.01,0.06-0.02c0.98-0.26,1.77-0.9,2.24-1.8 c0.46-0.88,0.53-1.88,0.21-2.81c-0.32-0.94-0.99-1.68-1.89-2.09l-4.2-1.92c-1-0.46-1.45-1.65-0.99-2.65 c0.46-1,1.65-1.45,2.65-0.99l4.2,1.92c1.91,0.87,3.33,2.45,4.01,4.43c0.68,1.98,0.52,4.1-0.45,5.96 c-0.97,1.87-2.7,3.26-4.74,3.81C360.8,191.8,360.76,191.81,360.72,191.82z" fill="inherit"/></g></g><g><g id="change2_10"><path d="M354.8,200.11c-0.25,0.06-0.51,0.11-0.76,0.15c-1.92,0.27-3.81-0.25-5.33-1.45l-5.1-4.05c-3.58-2.84-4.28-7.97-1.6-11.68 l1.6-2.2c0.65-0.89,1.9-1.09,2.79-0.45c0.89,0.65,1.09,1.9,0.45,2.79l-1.6,2.2c-1.42,1.97-1.05,4.69,0.85,6.2l5.1,4.05 c0.65,0.52,1.47,0.74,2.29,0.63c0.82-0.12,1.55-0.55,2.03-1.23c0.49-0.68,0.67-1.52,0.51-2.34c-0.17-0.83-0.65-1.53-1.37-1.97 l-2.7-1.67c-0.94-0.58-1.23-1.82-0.65-2.75c0.58-0.94,1.81-1.23,2.75-0.65l2.7,1.67c1.64,1.02,2.8,2.69,3.18,4.59 c0.38,1.9-0.05,3.89-1.18,5.46C357.79,198.76,356.4,199.7,354.8,200.11z" fill="inherit"/></g></g><g id="change2_4"><path d="M352.25,200.56c-0.11,0-0.22-0.01-0.33-0.03c-25.29-4.25-32.22-14.6-34-18.66c-33.5,1.14-62.92-8.41-63.22-8.5 c-1.05-0.35-1.62-1.48-1.27-2.52c0.34-1.05,1.48-1.62,2.52-1.27c0.29,0.1,29.92,9.7,63.27,8.25c0.98-0.04,1.85,0.63,2.05,1.59 c0.02,0.1,3.22,12.46,31.31,17.18c1.09,0.18,1.82,1.21,1.64,2.3C354.06,199.87,353.21,200.56,352.25,200.56z" fill="inherit"/></g><g><g id="change1_3"><path d="M118.26 106.7L110.21 122.72 81.04 103.2 45.44 68.19 28.92 68.01 15.7 59.06 9.09 56.09 9.02 51.07 12.07 46.93 11.09 41.3 15.65 35.41 15.58 29.32 17.55 25.8 3.45 14.82 3.03 4.25 11.16 3.39 38.56 30.2 46.32 29.32 55.02 38.2 56.61 55.78 87.79 86.96z" fill="#22aae2"/></g></g><g><g id="change2_13"><path d="M0.94,12.75c0.6,1.19,1.46,2.24,2.53,3.05L28,34.43c0.88,0.67,2.13,0.5,2.8-0.38c0.67-0.88,0.5-2.13-0.38-2.8L5.9,12.62 c-1.07-0.81-1.73-1.98-1.87-3.31C3.89,7.97,4.29,6.68,5.16,5.67c0.86-1,2.06-1.59,3.37-1.66c1.32-0.07,2.57,0.38,3.53,1.28 l25.9,24.14c0.81,0.75,2.07,0.71,2.83-0.1c0.75-0.81,0.71-2.07-0.1-2.83L14.79,2.36c-1.77-1.65-4.07-2.48-6.48-2.35 C5.9,0.15,3.7,1.23,2.13,3.06C0.55,4.89-0.21,7.32,0.05,9.72C0.16,10.78,0.47,11.81,0.94,12.75z" fill="inherit"/></g></g><g><g id="change2_9"><path d="M24.85,43.42c0.22,0.44,0.48,0.86,0.78,1.26c1.34,1.79,3.3,2.95,5.52,3.27c2.22,0.32,4.42-0.25,6.21-1.6l5.12-3.85 c0.88-0.66,1.07-1.92,0.39-2.8c-0.66-0.88-1.92-1.06-2.8-0.39l-5.12,3.85c-0.93,0.7-2.08,1-3.24,0.83 c-1.16-0.17-2.18-0.77-2.88-1.71c-0.72-0.97-1.01-2.15-0.81-3.33c0.2-1.19,0.85-2.21,1.85-2.89l7.4-5.04 c3.06-2.08,7.17-1.68,9.76,0.96l2.67,2.71c2.15,2.19,3.41,5.08,3.54,8.14L53.7,53.6l0.33,0.48c0.24,0.34,24.01,33.91,61.73,52.85 c0.99,0.5,2.19,0.1,2.68-0.89c0.49-0.99,0.1-2.19-0.89-2.68c-34.43-17.28-56.95-47.03-59.92-51.1l-0.41-9.57 c-0.17-4.06-1.84-7.88-4.68-10.78l-2.67-2.71c-3.95-4.02-10.21-4.64-14.87-1.46l-7.4,5.04c-1.9,1.3-3.16,3.26-3.54,5.53 C23.78,40.07,24.06,41.84,24.85,43.42z" fill="inherit"/></g></g><g><g id="change2_8"><path d="M13.81,33.84c0.79,1.57,2.03,2.86,3.59,3.74l6.82,3.82c0.96,0.54,2.18,0.2,2.72-0.77c0.54-0.96,0.2-2.18-0.77-2.72 l-6.82-3.82c-1.16-0.65-2-1.72-2.34-3.01c-0.35-1.29-0.16-2.63,0.52-3.78l1.48-2.5c0.57-0.95,0.25-2.18-0.7-2.74 c-0.95-0.56-2.18-0.25-2.74,0.7l-1.48,2.5c-1.24,2.08-1.57,4.52-0.94,6.85C13.31,32.72,13.53,33.3,13.81,33.84z" fill="inherit"/></g></g><g><g id="change2_5"><path d="M9.26,44.74c0.93,1.84,2.58,3.24,4.56,3.84l10.74,3.27c1.51,0.46,3.1,0.29,4.48-0.47c1.38-0.76,2.37-2.02,2.79-3.54 c0.29-1.07-0.33-2.17-1.4-2.46s-2.17,0.33-2.46,1.4c-0.13,0.47-0.44,0.86-0.87,1.1c-0.43,0.24-0.92,0.29-1.39,0.14l-10.74-3.26 c-0.95-0.29-1.71-0.93-2.15-1.81c-0.01-0.02-0.02-0.04-0.03-0.06c-0.44-0.91-0.48-1.93-0.1-2.87c0.36-0.92,1.07-1.63,1.99-2 c0.92-0.37,1.92-0.35,2.82,0.06L21.72,40c1,0.46,2.19,0.02,2.65-0.99c0.46-1,0.01-2.19-0.99-2.65l-4.21-1.92 c-1.91-0.87-4.03-0.92-5.97-0.13c-1.94,0.78-3.44,2.29-4.21,4.24c-0.78,1.96-0.7,4.18,0.22,6.08 C9.22,44.66,9.24,44.71,9.26,44.74z" fill="inherit"/></g></g><g><g id="change2_6"><path d="M6.87,54.64c0.12,0.23,0.25,0.46,0.39,0.68c1.05,1.63,2.68,2.72,4.59,3.08l6.4,1.2c4.49,0.85,8.83-1.98,9.88-6.43 l0.62-2.65c0.25-1.07-0.41-2.15-1.49-2.4c-1.08-0.25-2.15,0.41-2.4,1.49l-0.62,2.65c-0.55,2.36-2.86,3.86-5.24,3.41l-6.4-1.2 c-0.82-0.15-1.52-0.62-1.97-1.32c-0.45-0.7-0.6-1.53-0.4-2.34c0.2-0.82,0.71-1.5,1.44-1.92c0.73-0.42,1.58-0.51,2.39-0.26 l3.03,0.94c1.05,0.33,2.18-0.26,2.5-1.31c0.33-1.05-0.26-2.18-1.31-2.5l-3.03-0.94c-1.85-0.58-3.87-0.36-5.55,0.6 c-1.68,0.96-2.9,2.58-3.35,4.47C5.93,51.5,6.13,53.17,6.87,54.64z" fill="inherit"/></g></g><g id="change2_3"><path d="M104.23,120.71c-0.37,0-0.73-0.1-1.07-0.31c-0.37-0.24-37.03-23.54-58.37-49.81C40.57,71.9,28.2,73.44,8.44,57.1 c-0.85-0.7-0.97-1.96-0.27-2.82c0.7-0.85,1.96-0.97,2.82-0.27C33.2,72.39,44.35,66.51,44.46,66.44c0.86-0.48,1.94-0.27,2.54,0.5 c20.76,26.2,57.92,49.83,58.29,50.07c0.93,0.59,1.21,1.83,0.62,2.76C105.54,120.38,104.89,120.71,104.23,120.71z" fill="inherit"/></g></g></svg>