<?xml version="1.0" encoding="UTF-8"?><svg xmlns="http://www.w3.org/2000/svg" xmlns:xlink="http://www.w3.org/1999/xlink" height="285.0" preserveAspectRatio="xMidYMid meet" version="1.0" viewBox="-0.0 0.0 296.6 285.0" width="296.6" zoomAndPan="magnify"><g><g><g id="change1_2"><path d="M148.23,179.43c0,0,48.62,51.17,59.41,90.99c2.1,7.75,10.14,12.2,18.35,10.15 c11.83-2.95,31.14-12.18,41.52-26.98c2.09-2.98,2.91-6.58,1.75-9.79v0c-1.63-4.5-6.42-6.96-11.35-5.81 c-8.11,1.88-19.73,5.31-31.2,14.24c0,0-23.51-51.11-59.63-87.56" fill="#28B465"/></g><g id="change2_4"><path d="M221.99,283.07c-7.57,0-14.28-4.76-16.28-12.13c-4.34-16.03-15.89-36.68-33.39-59.71c-13.29-17.49-25.42-30.3-25.54-30.43 c-0.76-0.8-0.73-2.07,0.07-2.83c0.8-0.76,2.07-0.73,2.83,0.07c2,2.1,49.09,51.99,59.89,91.85c1.81,6.68,8.81,10.52,15.93,8.74 c12.84-3.2,30.95-12.77,40.37-26.19c1.84-2.62,2.39-5.53,1.5-7.96c-1.29-3.55-5.08-5.46-9.02-4.55 c-7.7,1.78-19.24,5.16-30.42,13.87c-0.48,0.38-1.11,0.51-1.7,0.37c-0.59-0.14-1.09-0.55-1.34-1.11 c-0.23-0.51-23.79-51.22-59.24-86.99c-0.78-0.79-0.77-2.05,0.01-2.83c0.78-0.78,2.05-0.77,2.83,0.01 c31.68,31.97,53.95,75.62,58.96,85.9c11.17-8.1,22.38-11.36,30-13.12c5.94-1.38,11.69,1.6,13.68,7.08 c1.34,3.68,0.61,7.92-1.99,11.62c-11.5,16.39-32.24,25.17-42.67,27.78C224.97,282.89,223.47,283.07,221.99,283.07z" fill="inherit"/></g></g><g><g id="change1_6"><path d="M236.89 161.6L248.17 152.12 259.48 151.27 269.36 143.65 275.25 144.99 276.79 151.9 269.97 158.15 291.14 163.3 294.43 169.22 290.35 173.58 293.79 178.42 292.94 183.96 285.95 186.79 286.08 190.88 280.14 193.61 276.82 192.66 276.62 196.75 271.3 198.46 255.14 185.83 241.21 180.05 236.51 170.36z" fill="#28B465"/></g></g><g><g id="change1_4"><path d="M198.61,148.32c14.63,9.72,37.41,20.98,37.92,21.2l5.15-11.83c-0.46-0.2-46.4-20.54-63.25-52.25" fill="#28B465"/></g></g><g><g id="change2_12"><path d="M242.1,156.57c-0.51-0.67-0.56-1.62-0.06-2.35c3.81-5.53,8.56-5.88,15.2-4.92l1.25,0.18l6.82-5.98 c3.2-2.81,8.02-2.6,10.96,0.48c1.47,1.54,2.25,3.56,2.2,5.69c-0.06,2.13-0.94,4.11-2.49,5.57l-2.29,2.16l15.89,3.16 c4.2,0.84,6.97,4.94,6.16,9.15c-0.4,2.11-1.62,3.91-3.42,5.08c-1.8,1.17-3.94,1.55-6.03,1.06l-14.2-3.29 c-1.08-0.25-1.75-1.32-1.5-2.4c0.25-1.08,1.32-1.75,2.4-1.5l14.2,3.29c1.02,0.24,2.07,0.05,2.95-0.52 c0.88-0.57,1.47-1.45,1.67-2.48c0.4-2.06-0.96-4.06-3.01-4.47l-23.5-4.68l7.94-7.48c0.77-0.72,1.21-1.71,1.24-2.76 c0.03-1.06-0.36-2.06-1.09-2.82c-1.46-1.53-3.85-1.63-5.44-0.24l-8.21,7.19l-3.07-0.45c-5.12-0.74-8.39-1.03-11.33,3.23 c-0.63,0.91-1.87,1.14-2.78,0.51C242.37,156.88,242.22,156.73,242.1,156.57z" fill="inherit"/></g></g><g><g id="change2_7"><path d="M267.23,178.47c-0.45-0.59-0.56-1.42-0.2-2.13c0.5-0.98,1.71-1.38,2.69-0.87l16.56,8.43c1.06,0.54,2.29,0.58,3.38,0.12 c1.09-0.46,1.92-1.38,2.26-2.51c0.33-1.09,0.2-2.22-0.38-3.2c-0.58-0.98-1.51-1.65-2.62-1.88l-2.61-0.55 c-1.08-0.23-1.77-1.29-1.54-2.37c0.23-1.08,1.29-1.77,2.37-1.54l2.61,0.55c2.19,0.46,4.1,1.83,5.24,3.76 c1.14,1.93,1.41,4.26,0.76,6.41c-0.69,2.27-2.34,4.1-4.53,5.03c-2.18,0.93-4.65,0.84-6.76-0.24l-16.56-8.43 C267.63,178.89,267.4,178.7,267.23,178.47z" fill="inherit"/></g></g><g><g id="change2_11"><path d="M176.75,130.15c-0.63-0.82-0.53-2,0.25-2.7c0.82-0.74,2.09-0.67,2.82,0.15c0.21,0.24,21.78,23.92,57.54,40.11l1.26,0.57 l-0.09,1.38c-0.47,7.14,7.05,10.06,7.13,10.09l6.19,2.56c3.09,1.28,5.98,2.99,8.58,5.09l10.98,8.85c0.5,0.4,1.13,0.58,1.77,0.5 c0.64-0.08,1.2-0.42,1.58-0.94c0.37-0.51,0.52-1.14,0.41-1.77c-0.11-0.62-0.45-1.17-0.98-1.53l-0.85-0.59 c-0.91-0.62-1.14-1.87-0.51-2.78c0.63-0.91,1.87-1.14,2.78-0.51l0.85,0.58c1.42,0.97,2.36,2.45,2.65,4.15 c0.29,1.7-0.11,3.4-1.12,4.8c-1.03,1.41-2.55,2.32-4.29,2.55c-1.73,0.23-3.44-0.25-4.8-1.35l-10.98-8.85 c-2.3-1.86-4.86-3.37-7.59-4.5l-6.13-2.53c-3.32-1.25-9.4-5.47-9.67-12.66c-35.85-16.54-57.45-40.29-57.67-40.53 C176.81,130.23,176.78,130.19,176.75,130.15z" fill="inherit"/></g></g><g><g id="change2_3"><path d="M263.26,185.42c-0.5-0.65-0.56-1.56-0.1-2.29c0.59-0.93,1.83-1.21,2.76-0.62l13.91,8.81c0.64,0.4,1.39,0.53,2.13,0.35 c0.73-0.17,1.35-0.63,1.74-1.28c0.4-0.66,0.5-1.44,0.28-2.18c-0.21-0.74-0.71-1.35-1.4-1.7l-5.55-2.85 c-0.98-0.5-1.37-1.71-0.87-2.69c0.5-0.98,1.71-1.37,2.69-0.87l5.55,2.85c1.66,0.85,2.9,2.36,3.42,4.15 c0.52,1.79,0.26,3.73-0.69,5.33c-0.94,1.58-2.45,2.69-4.24,3.12c-1.79,0.43-3.64,0.12-5.2-0.87l-13.91-8.81 C263.58,185.76,263.4,185.6,263.26,185.42z" fill="inherit"/></g></g><g id="change2_6"><path d="M243.18,158.15c-0.23,0-0.46-0.04-0.68-0.12c-0.79-0.29-19.43-7.07-25.83-13.6c-0.77-0.79-0.76-2.06,0.03-2.83 c0.79-0.77,2.05-0.76,2.83,0.03c5.76,5.88,24.15,12.57,24.33,12.64c1.04,0.38,1.58,1.52,1.2,2.56 C244.76,157.65,243.99,158.15,243.18,158.15z" fill="inherit"/></g></g><g><g><g id="change1_3"><path d="M240.85,94.62c0,51.15-41.47,92.62-92.62,92.62c-4.55,0-9.03-0.33-13.41-0.97 c-22.94,32.76-49.54,56.78-49.54,56.78c11.95,8.28,18.69,18.34,22.91,25.52c0.97,1.66,1.45,3.46,1.45,5.21 c0,2.84-1.25,5.56-3.61,7.36c-2.72,2.07-6.4,2.36-9.87,1.25c-17.23-5.49-31.8-21.16-38.15-31.57c-4.41-7.22-2.56-16.22,4.21-20.54 c17.66-11.27,35.19-32.71,48.18-51.09c-32.29-14.47-54.78-46.89-54.78-84.57C55.62,43.47,97.08,2,148.23,2 C199.38,2,240.85,43.47,240.85,94.62z" fill="#28B465"/></g><g id="change2_9"><path d="M100.12,285.03c-1.48,0-3.02-0.24-4.57-0.74c-19.07-6.08-33.64-23.25-39.25-32.43c-4.97-8.14-2.85-18.36,4.84-23.27 c13.78-8.8,29.74-25.58,46.23-48.6c-32.74-15.69-53.75-48.93-53.75-85.37C53.62,42.45,96.06,0,148.23,0 c52.17,0,94.62,42.45,94.62,94.62c0,52.17-42.45,94.62-94.62,94.62c-4.18,0-8.37-0.28-12.48-0.82 c-19.21,27.2-41,48.46-47.32,54.43c11.05,8.23,17.52,17.96,21.48,24.71c1.13,1.93,1.73,4.08,1.73,6.22c0,3.56-1.6,6.82-4.4,8.95 C105.24,284.25,102.77,285.03,100.12,285.03z M148.23,4C98.27,4,57.62,44.65,57.62,94.62c0,35.67,21.04,68.15,53.6,82.74 c0.55,0.24,0.95,0.72,1.11,1.3c0.16,0.58,0.05,1.19-0.3,1.68c-17.53,24.8-33.92,42.17-48.74,51.62 c-5.83,3.72-7.41,11.55-3.58,17.81c6.89,11.3,21.43,25.73,37.05,30.71c3.05,0.98,5.99,0.64,8.05-0.94 c1.79-1.37,2.82-3.47,2.82-5.77c0-1.43-0.41-2.88-1.18-4.2c-4.35-7.4-10.81-16.91-22.32-24.89c-0.5-0.35-0.82-0.91-0.86-1.51 c-0.04-0.61,0.2-1.2,0.66-1.61c0.26-0.24,26.71-24.26,49.24-56.44c0.43-0.62,1.18-0.94,1.93-0.83c4.31,0.63,8.72,0.95,13.12,0.95 c49.97,0,90.62-40.65,90.62-90.62C238.85,44.65,198.2,4,148.23,4z" fill="inherit"/></g></g><g><g id="change1_5"><path d="M51.07 137.65L59.99 152.28 58.99 165.42 66.01 178.11 63.43 184.66 55.23 185.21 49.23 176.27 39.61 199.7 32.22 202.44 27.93 196.99 21.76 200.1 15.55 198.15 13.51 189.62 8.8 189.05 6.7 181.74 8.37 178.09 3.7 177.15 2.67 170.73 20.03 154.38 29.11 139.38 41.08 135.67z" fill="#28B465"/></g></g><g><g><g id="change1_1"><path d="M87.89,84.96c-7.85,6.18-15.68,13.55-23.46,22.11c-13.74,15.11-22.05,28.23-22.4,28.78l13.53,12.68 c0.31-0.5,30.91-54.41,70.32-68.21l-4.96-14.16C109.95,70,98.9,76.29,87.89,84.96z" fill="#28B465"/></g></g></g><g><g id="change2_1"><path d="M55.69,145.5c-0.08,0.06-0.15,0.13-0.22,0.2c-0.76,0.8-0.72,2.07,0.09,2.83c4.48,4.21,3.74,7.53,1.96,13.41l-1.01,3.31 l6.75,10.57c1.42,2.22,0.83,5.14-1.32,6.65c-1.08,0.76-2.38,1.04-3.68,0.81c-1.29-0.23-2.42-0.96-3.17-2.04l-6.85-9.92 l-9.28,25.59c-0.89,2.45-3.62,3.74-6.08,2.87c-1.23-0.44-2.21-1.34-2.75-2.53c-0.54-1.19-0.57-2.52-0.09-3.73l6.27-15.74 c0.41-1.03-0.09-2.19-1.12-2.6c-1.03-0.41-2.19,0.09-2.6,1.12l-6.27,15.74c-0.89,2.23-0.83,4.67,0.16,6.86 c0.99,2.19,2.79,3.84,5.05,4.65c4.53,1.61,9.54-0.76,11.18-5.28l6.64-18.3l2.44,3.53c1.36,1.97,3.4,3.28,5.75,3.7 c2.35,0.42,4.73-0.1,6.68-1.47c3.91-2.74,4.96-8.05,2.39-12.07l-5.76-9.02l0.47-1.55c2.23-7.35,2.55-12.23-3.04-17.49 C57.56,144.93,56.45,144.9,55.69,145.5z" fill="inherit"/></g></g><g><g id="change2_8"><path d="M26.25,170.02c-0.14,0.11-0.28,0.25-0.39,0.41l-12.6,17.56c-1.55,2.16-2.06,4.88-1.4,7.46c0.66,2.58,2.41,4.72,4.81,5.87 c2.26,1.09,4.9,1.18,7.23,0.24c2.33-0.93,4.18-2.82,5.06-5.17l1.09-2.91c0.39-1.03-0.13-2.19-1.17-2.58 c-1.03-0.39-2.19,0.13-2.58,1.17l-1.09,2.91c-0.5,1.32-1.5,2.34-2.81,2.87c-1.31,0.53-2.74,0.48-4.01-0.13 c-1.33-0.64-2.3-1.83-2.67-3.26c-0.37-1.43-0.08-2.94,0.78-4.14l12.6-17.56c0.64-0.9,0.44-2.15-0.46-2.79 C27.91,169.44,26.93,169.49,26.25,170.02z" fill="inherit"/></g></g><g><g id="change2_2"><path d="M90.44,79.85c-10.78,8.48-31.53,26.75-49.36,53.81c-8.25-1.05-14.13,5.15-16.17,8.77l-3.96,6.55 c-1.79,2.97-4,5.67-6.57,8.01l-12.1,11.06c-1.43,1.31-2.25,3.11-2.29,5.05c-0.04,1.94,0.7,3.77,2.08,5.14 c1.36,1.35,3.16,2.07,5.08,2.04c1.92-0.03,3.69-0.82,5-2.22l0.82-0.87c0.76-0.81,0.72-2.07-0.09-2.83 c-0.81-0.76-2.07-0.71-2.83,0.09l-0.82,0.87c-0.56,0.6-1.33,0.94-2.16,0.96c-0.83,0.02-1.6-0.3-2.19-0.88 c-0.6-0.59-0.91-1.38-0.9-2.22c0.02-0.84,0.37-1.61,0.99-2.18l12.1-11.06c2.85-2.6,5.3-5.6,7.29-8.89l3.99-6.6 c0.23-0.39,4.93-8.47,13.23-6.64l1.35,0.3l0.76-1.16C68.63,98.62,99.68,77.96,100,77.75c0.93-0.62,1.18-1.85,0.57-2.77 c-0.61-0.92-1.85-1.18-2.77-0.57C97.71,74.47,94.94,76.31,90.44,79.85z" fill="inherit"/></g></g><g><g id="change2_5"><path d="M18.96,164.25c-0.1,0.08-0.19,0.16-0.27,0.26L6.11,178.95c-1.35,1.55-2,3.53-1.83,5.58c0.17,2.05,1.14,3.9,2.73,5.2 c1.6,1.32,3.7,1.92,5.76,1.66c2.06-0.27,3.93-1.38,5.15-3.07l4.24-5.88c0.65-0.9,0.44-2.15-0.45-2.79 c-0.9-0.65-2.14-0.45-2.79,0.45l-4.24,5.88c-0.58,0.8-1.44,1.31-2.42,1.44c-0.98,0.13-1.94-0.15-2.71-0.78 c-0.75-0.61-1.2-1.48-1.28-2.44c-0.08-0.96,0.23-1.89,0.86-2.62l12.57-14.44c0.73-0.83,0.64-2.1-0.2-2.82 C20.77,163.67,19.7,163.66,18.96,164.25z" fill="inherit"/></g></g><g id="change2_10"><path d="M56.87,148.7c-0.39,0-0.79-0.11-1.13-0.35c-0.91-0.63-1.14-1.87-0.51-2.78c0.07-0.1,6.94-10.06,16.86-21.75 c13.37-15.76,25.61-27.02,36.39-33.46c0.95-0.57,2.18-0.26,2.74,0.69c0.57,0.95,0.26,2.18-0.69,2.74 c-24.87,14.86-51.74,53.65-52.01,54.04C58.13,148.4,57.5,148.7,56.87,148.7z" fill="inherit"/></g></g></svg>