<?xml version="1.0" encoding="UTF-8" standalone="no"?><svg xmlns="http://www.w3.org/2000/svg" xmlns:xlink="http://www.w3.org/1999/xlink" fill="#000000" height="381.1" preserveAspectRatio="xMidYMid meet" version="1" viewBox="-0.3 -0.3 486.9 381.1" width="486.9" zoomAndPan="magnify"><g><g><g id="change1_2"><path d="M339.49,359.77c6.32,6.31,2.08,16.8-7.07,17.55c-16.53,1.37-33.95-4.85-42.11-9.17 c-7.11-3.75-10.5-11.69-8.44-19.15c13.54-49.24,2.34-101.38-1.97-118.06c-11.47,4.1-23.84,6.33-36.72,6.33 c-12.87,0-25.23-2.23-36.7-6.32c-4.31,16.69-15.51,68.82-1.97,118.05c2.06,7.46-1.33,15.4-8.44,19.15 c-8.16,4.32-25.58,10.54-42.11,9.17c-9.15-0.75-13.39-11.24-7.07-17.55c5.65-5.65,19.58-13.55,33.38-16.26 c0,0-13.42-52.83,4.71-123.02c-30.7-19.33-51.1-53.54-51.1-92.51c0-60.36,48.94-109.3,109.3-109.3 c60.36,0,109.29,48.94,109.29,109.3c0,38.96-20.38,73.16-51.07,92.5c18.14,70.19,4.71,123.03,4.71,123.03 C319.91,346.22,333.84,354.12,339.49,359.77z" fill="#60be70"/></g><g id="change2_1"><path d="M327.64,379.52c-15.75,0-31.14-5.82-38.27-9.6c-7.89-4.16-11.77-12.98-9.43-21.45c12.95-47.09,2.84-97.55-1.45-114.92 c-11.34,3.8-23.21,5.73-35.31,5.73c-12.08,0-23.94-1.92-35.29-5.72c-4.29,17.38-14.39,67.85-1.45,114.92 c2.34,8.46-1.54,17.29-9.44,21.45c-7.87,4.17-25.82,10.84-43.21,9.4c-5.17-0.42-9.45-3.61-11.17-8.31 c-1.62-4.43-0.53-9.28,2.85-12.65c5.85-5.85,19.3-13.34,32.4-16.38c-2.18-10.33-10.78-59,4.81-120.58 c-31.84-20.62-50.8-55.43-50.8-93.42c0-61.37,49.93-111.3,111.3-111.3c61.37,0,111.29,49.93,111.29,111.3 c0,37.97-18.95,72.78-50.77,93.41c15.6,61.58,6.98,110.26,4.81,120.59c13.1,3.03,26.55,10.53,32.4,16.38l0,0 c3.38,3.38,4.47,8.23,2.85,12.65c-1.72,4.7-6,7.88-11.17,8.3C330.94,379.45,329.29,379.52,327.64,379.52z M281.28,228.32 l0.55,2.12c3.94,15.27,15.75,68.97,1.96,119.09c-1.83,6.64,1.23,13.57,7.44,16.85c7.49,3.96,24.55,10.31,41.01,8.95 c3.6-0.29,6.56-2.48,7.74-5.7c1.1-2.99,0.38-6.15-1.92-8.45l0,0c-5.73-5.72-19.39-13.17-32.35-15.71l-2.07-0.41l0.52-2.05 c0.13-0.52,13.08-53.21-4.71-122.04l-0.37-1.41l1.24-0.78c31.39-19.78,50.14-53.73,50.14-90.81c0-59.17-48.13-107.3-107.29-107.3 c-59.17,0-107.3,48.13-107.3,107.3c0,37.09,18.75,71.04,50.17,90.82l1.24,0.78l-0.37,1.41c-17.78,68.83-4.84,121.5-4.71,122.03 l0.52,2.05l-2.07,0.41c-12.96,2.54-26.63,9.99-32.35,15.71c-2.3,2.3-3.02,5.46-1.92,8.45c1.18,3.22,4.15,5.4,7.74,5.7 c16.46,1.35,33.52-4.98,41.01-8.95c6.22-3.28,9.28-10.21,7.45-16.85c-13.78-50.1-1.98-103.81,1.96-119.08l0.55-2.12l2.06,0.74 c11.54,4.12,23.67,6.2,36.03,6.2c12.39,0,24.51-2.09,36.05-6.21L281.28,228.32z" fill="inherit"/></g></g></g><g><g><g id="change1_3"><path d="M342.5 112.75L348.64 108.47 349.49 110.02 373.75 100.55 406.15 77.84 433.99 45.46 431.98 32.4 434.99 24.56 429.1 9.46 434.03 2 440.97 2 449.98 20.57 458.77 10.21 466.67 9.68 468.55 16.87 474.72 20.31 476.14 28.42 482.11 29.79 480.48 39.17 484.38 44.3 482.11 49.42 471.38 49.42 463.18 57.33 449.83 58.29 413.83 98.12 389.61 115.62 344.89 135.66z" fill="#60be70"/></g></g><g><g id="change2_5"><path d="M350.76,110.48c-0.94,0-1.78-0.67-1.96-1.63c-0.21-1.08,0.51-2.13,1.59-2.34c45.06-8.58,76.85-54.58,81.37-61.31 l-1.26-3.4c-1.41-3.81-1.36-7.99,0.15-11.76l2.18-5.45l-4.94-11.39c-2.04-4.7-0.01-10.1,4.63-12.29c2.28-1.08,4.85-1.2,7.23-0.35 c2.38,0.86,4.28,2.59,5.35,4.88l5.33,11.38l5.15-6.41c2.86-3.56,7.96-4.2,11.61-1.47c1.93,1.45,3.15,3.66,3.34,6.06 c0.19,2.41-0.66,4.78-2.34,6.52l-7.73,8.01c-2.51,2.6-6.48,2.98-9.43,0.89c-1.61-1.14-2.61-2.92-2.73-4.89l-0.28-4.45 l-6.54-13.94c-0.62-1.32-1.71-2.32-3.09-2.81c-1.37-0.49-2.85-0.42-4.17,0.2c-2.67,1.26-3.84,4.38-2.67,7.09l5.6,12.92 l-2.79,6.99c-1.14,2.85-1.18,6.01-0.11,8.89l1.96,5.28l-0.53,0.84c-1.41,2.22-34.43,54.37-84.54,63.91 C351.01,110.47,350.88,110.48,350.76,110.48z M452.02,21.22l0.26,4.05c0.05,0.75,0.43,1.44,1.05,1.87 c1.33,0.94,3.12,0.77,4.25-0.4l7.73-8.01c0.88-0.91,1.33-2.16,1.23-3.42c-0.1-1.26-0.74-2.42-1.75-3.18 c-1.92-1.44-4.59-1.1-6.09,0.77L452.02,21.22z" fill="inherit"/></g></g><g><g id="change2_3"><path d="M463.21,38.15c-0.47,0-0.95-0.05-1.42-0.16c-1.88-0.41-3.47-1.62-4.38-3.32l-2.28-4.27c-0.52-0.97-0.15-2.19,0.82-2.71 c0.98-0.52,2.19-0.15,2.71,0.82l2.28,4.27c0.36,0.67,0.97,1.13,1.71,1.3s1.49,0,2.1-0.46l8.19-6.17c0.88-0.66,1.43-1.68,1.5-2.78 c0.07-1.1-0.34-2.18-1.12-2.95c-1.63-1.6-3.65-1.51-5.55,0.23l-4.12,4.24c-0.77,0.79-2.04,0.81-2.83,0.04 c-0.79-0.77-0.81-2.04-0.04-2.83l4.22-4.35c3.48-3.23,7.94-3.31,11.12-0.19c1.62,1.59,2.46,3.81,2.31,6.07 c-0.15,2.26-1.28,4.35-3.09,5.71l-8.19,6.17C466,37.7,464.62,38.15,463.21,38.15z" fill="inherit"/></g></g><g><g id="change2_6"><path d="M468.29,45.04c-0.88,0-1.75-0.19-2.56-0.56c-1.59-0.74-2.79-2.12-3.29-3.81l-1.17-3.94c-0.32-1.06,0.29-2.17,1.35-2.49 c1.06-0.31,2.17,0.29,2.49,1.35l1.17,3.95c0.17,0.59,0.58,1.06,1.14,1.31s1.18,0.26,1.74,0.01l8.94-3.96 c0.91-0.4,1.57-1.15,1.87-2.1c0.3-0.95,0.17-1.94-0.35-2.79c-0.52-0.84-1.34-1.4-2.31-1.57c-0.97-0.17-1.93,0.07-2.71,0.69 l-2.57,2.04c-0.87,0.69-2.12,0.54-2.81-0.32c-0.69-0.87-0.54-2.12,0.32-2.81l2.57-2.04c1.66-1.32,3.8-1.86,5.89-1.49 c2.09,0.37,3.92,1.61,5.02,3.42c1.12,1.82,1.39,4.03,0.76,6.07c-0.63,2.04-2.12,3.7-4.07,4.57l-8.94,3.96 C469.97,44.86,469.13,45.04,468.29,45.04z" fill="inherit"/></g></g><g><g id="change2_7"><path d="M472.9,51.42c-3.18,0-5.98-2.29-6.56-5.48l-0.4-2.26c-0.19-1.09,0.53-2.13,1.62-2.32c1.09-0.2,2.13,0.53,2.32,1.62 l0.4,2.26c0.25,1.37,1.53,2.33,2.91,2.17l7.21-0.79c0.65-0.07,1.21-0.4,1.58-0.94c0.37-0.53,0.49-1.17,0.34-1.81 c-0.26-1.05-0.92-1.92-1.82-2.37c-0.84-0.43-1.81-0.45-2.73-0.07l-0.84,0.35c-1.02,0.42-2.19-0.07-2.61-1.09 c-0.42-1.02,0.07-2.19,1.09-2.61l0.84-0.35c2.01-0.83,4.16-0.76,6.06,0.2c1.93,0.98,3.35,2.79,3.89,4.98 c0.43,1.74,0.09,3.58-0.94,5.06c-1.03,1.47-2.64,2.43-4.42,2.62l-7.21,0.79C473.38,51.41,473.14,51.42,472.9,51.42z" fill="inherit"/></g></g><g><g id="change2_8"><path d="M352.32,135.35c-0.83,0-1.61-0.52-1.89-1.35c-0.36-1.04,0.2-2.18,1.25-2.54c57.26-19.59,96-72.79,96.34-73.3l0.66-1 l1.19,0.11c11.2,0.99,22.05-9.21,22.16-9.31c0.8-0.76,2.07-0.73,2.83,0.07c0.76,0.8,0.73,2.06-0.06,2.83 c-0.48,0.46-11.55,10.89-24.09,10.47c-5.05,7.24-43.58,55.4-97.73,73.93C352.76,135.31,352.54,135.35,352.32,135.35z" fill="inherit"/></g></g><g><g id="change1_1"><path d="M143.88 113.75L137.74 109.47 136.66 110.73 112.62 101.55 80.23 78.84 52.39 46.46 54.4 33.4 51.39 25.56 57.27 10.46 52.35 3 45.4 3 36.4 21.57 27.6 11.21 19.7 10.68 17.83 17.87 11.66 21.31 10.23 29.42 4.26 30.8 5.9 40.17 2 45.3 4.26 50.42 15 50.42 23.2 58.33 36.54 59.29 72.54 99.12 96.77 116.62 141.49 136.66z" fill="#60be70"/></g></g><g><g id="change2_2"><path d="M135.07,111.41c-50.11-9.54-82.95-61.65-84.37-63.87l-0.53-0.84l1.96-5.28c1.07-2.88,1.03-6.04-0.11-8.89l-2.79-6.99 l5.6-12.92C56,9.9,54.83,6.79,52.16,5.53c-1.32-0.62-2.8-0.69-4.17-0.2c-1.37,0.49-2.47,1.49-3.09,2.81l-6.54,13.94l-0.28,4.45 c-0.12,1.97-1.12,3.75-2.73,4.89c-2.95,2.09-6.92,1.71-9.43-0.89l-7.73-8.01c-1.68-1.74-2.53-4.11-2.34-6.52 c0.19-2.41,1.41-4.62,3.34-6.06c3.65-2.74,8.75-2.09,11.61,1.47l5.15,6.41l5.33-11.38c1.07-2.29,2.97-4.02,5.35-4.88 c2.38-0.85,4.95-0.73,7.23,0.35c4.64,2.19,6.67,7.59,4.63,12.29l-4.94,11.39l2.18,5.45c1.51,3.78,1.56,7.95,0.15,11.76l-1.26,3.4 c4.53,6.73,36.14,52.69,81.2,61.27c1.08,0.21,1.8,1.25,1.59,2.34c-0.18,0.96-1.02,1.63-1.96,1.63 C135.32,111.44,135.19,111.43,135.07,111.41z M27.68,13.9c-1.5-1.87-4.17-2.21-6.09-0.77c-1.01,0.76-1.65,1.92-1.75,3.18 c-0.1,1.26,0.35,2.51,1.23,3.42l7.73,8.01c1.13,1.17,2.92,1.34,4.25,0.4c0.62-0.44,1-1.12,1.05-1.87l0.26-4.05L27.68,13.9z" fill="inherit"/></g></g><g><g id="change2_11"><path d="M23.17,39.15c0.47,0,0.95-0.05,1.42-0.16c1.88-0.41,3.47-1.62,4.38-3.32l2.28-4.27c0.52-0.97,0.15-2.19-0.82-2.71 c-0.98-0.52-2.19-0.15-2.71,0.82l-2.28,4.27c-0.36,0.67-0.97,1.13-1.71,1.3s-1.49,0-2.1-0.46l-8.19-6.17 c-0.88-0.66-1.43-1.68-1.5-2.78c-0.07-1.1,0.34-2.18,1.12-2.95c1.63-1.6,3.65-1.51,5.55,0.23l4.12,4.24 c0.77,0.79,2.04,0.81,2.83,0.04c0.79-0.77,0.81-2.04,0.04-2.83l-4.22-4.35c-3.48-3.23-7.94-3.31-11.12-0.19 c-1.62,1.59-2.46,3.81-2.31,6.07c0.15,2.26,1.28,4.35,3.09,5.71l8.19,6.17C20.37,38.7,21.76,39.15,23.17,39.15z" fill="inherit"/></g></g><g><g id="change2_4"><path d="M18.09,46.04c0.88,0,1.75-0.19,2.56-0.56c1.59-0.74,2.79-2.12,3.29-3.81l1.17-3.94c0.32-1.06-0.29-2.17-1.35-2.49 c-1.06-0.31-2.17,0.29-2.49,1.35l-1.17,3.95c-0.17,0.59-0.58,1.06-1.14,1.31s-1.18,0.26-1.74,0.01L8.29,37.9 c-0.91-0.4-1.57-1.15-1.87-2.1c-0.3-0.95-0.17-1.94,0.35-2.79c0.52-0.84,1.34-1.4,2.31-1.57c0.97-0.17,1.93,0.07,2.71,0.69 l2.57,2.04c0.87,0.69,2.12,0.54,2.81-0.32c0.69-0.87,0.54-2.12-0.32-2.81l-2.57-2.04c-1.66-1.32-3.8-1.86-5.89-1.49 c-2.09,0.37-3.92,1.61-5.02,3.42c-1.12,1.82-1.39,4.03-0.76,6.07c0.63,2.04,2.12,3.7,4.07,4.57l8.94,3.96 C16.4,45.86,17.24,46.04,18.09,46.04z" fill="inherit"/></g></g><g><g id="change2_10"><path d="M13.48,52.42c3.18,0,5.98-2.29,6.56-5.48l0.4-2.26c0.19-1.09-0.53-2.13-1.62-2.32c-1.09-0.2-2.13,0.53-2.32,1.62 l-0.4,2.26c-0.25,1.37-1.53,2.33-2.91,2.17l-7.21-0.79c-0.65-0.07-1.21-0.4-1.58-0.94c-0.37-0.53-0.49-1.17-0.34-1.81 c0.26-1.05,0.92-1.92,1.82-2.37c0.84-0.43,1.81-0.45,2.73-0.07l0.84,0.35c1.02,0.42,2.19-0.07,2.61-1.09 c0.42-1.02-0.07-2.19-1.09-2.61l-0.84-0.35c-2.01-0.83-4.16-0.76-6.06,0.2c-1.93,0.98-3.35,2.79-3.89,4.98 c-0.43,1.74-0.09,3.58,0.94,5.06c1.03,1.47,2.64,2.43,4.42,2.62l7.21,0.79C13,52.41,13.24,52.42,13.48,52.42z" fill="inherit"/></g></g><g><g id="change2_9"><path d="M134.05,136.35c0.83,0,1.61-0.52,1.89-1.35c0.36-1.04-0.2-2.18-1.25-2.54c-57.26-19.59-96-72.79-96.34-73.3l-0.66-1 l-1.19,0.11c-11.2,0.99-22.05-9.21-22.16-9.31c-0.8-0.76-2.07-0.73-2.83,0.07c-0.76,0.8-0.73,2.06,0.06,2.83 c0.48,0.46,11.55,10.89,24.09,10.47c5.05,7.24,43.58,55.4,97.73,73.93C133.62,136.32,133.83,136.35,134.05,136.35z" fill="inherit"/></g></g></g></svg>