<?xml version="1.0" encoding="UTF-8" standalone="no"?><svg xmlns="http://www.w3.org/2000/svg" xmlns:xlink="http://www.w3.org/1999/xlink" fill="#000000" height="362.3" preserveAspectRatio="xMidYMid meet" version="1" viewBox="-0.3 0.0 319.6 362.3" width="319.6" zoomAndPan="magnify"><g><g><g id="change1_3"><path d="M207.9,235.26c-0.86,54.42-13.33,89.74-13.33,89.74c32.65,3.12,51.23,22.07,31.78,31.01 c-2.6,1.19-5.41,1.9-8.26,2.22c-17.87,2.03-33.64-1.14-43.69-4.14c-0.39-0.11-0.77-0.24-1.14-0.38 c-7.52-2.85-11.06-12.05-8.16-19.99c4.52-12.39,14.64-45.77,15.55-98.39h-43.11c0.91,52.62,11.03,86,15.55,98.39 c2.9,7.94-0.64,17.14-8.16,19.99c-0.37,0.14-0.75,0.27-1.14,0.38c-10.05,3-25.82,6.17-43.69,4.14c-2.85-0.32-5.66-1.03-8.26-2.22 c-19.45-8.94-0.87-27.89,31.78-31.01c0,0-12.47-35.32-13.33-89.74c-38.11-1.86-58.87-46.34-34.85-76.85l8.46-10.74 c14.21-18.05,25.75-38.05,34.27-59.39l0.38-0.94c7.31-18.32,23.93-27.46,40.54-27.44c16.62-0.02,33.24,9.12,40.56,27.44l0.37,0.94 c8.52,21.34,20.06,41.34,34.28,59.39l8.45,10.74C266.77,188.92,246,233.4,207.9,235.26z" fill="#ee2b2c"/></g><g id="change2_7"><path d="M206.63,360.87c-13.3,0-24.81-2.48-32.8-4.87c-0.42-0.12-0.85-0.27-1.27-0.42c-8.37-3.17-12.64-13.5-9.33-22.55 c4.28-11.73,14.26-44.35,15.39-95.7h-39.03c1.13,51.36,11.11,83.97,15.39,95.7c3.31,9.05-0.97,19.38-9.33,22.55 c-0.42,0.16-0.86,0.31-1.3,0.43c-10.23,3.05-26.27,6.27-44.46,4.2c-3.21-0.36-6.19-1.16-8.87-2.39 c-8.97-4.12-9.46-9.78-8.95-12.78c1.71-10.08,18.23-19.23,38.9-21.77c-2.72-8.75-11.7-40.92-12.64-86.15 c-17.71-1.53-33.16-12.44-40.62-28.82c-7.83-17.17-5.52-36.29,6.17-51.14l8.46-10.74c14.1-17.9,25.53-37.72,33.98-58.89l0.38-0.95 c7.06-17.7,23.28-28.69,42.34-28.69c0.04,0,0.08,0,0.12,0c19.05,0,35.28,10.99,42.36,28.7l0.37,0.95 c8.45,21.17,19.89,40.99,33.99,58.89l8.45,10.74c11.69,14.84,13.99,33.96,6.17,51.13c-7.46,16.38-22.91,27.29-40.62,28.83 c-0.94,45.23-9.92,77.39-12.64,86.15c20.67,2.54,37.19,11.69,38.9,21.77c0.51,3,0.02,8.66-8.94,12.78 c-2.68,1.23-5.66,2.03-8.87,2.39C214.3,360.67,210.39,360.87,206.63,360.87z M135.51,233.33h47.18l-0.04,2.03 c-0.92,53.14-11.27,86.96-15.67,99.04c-2.57,7.04,0.63,15.02,6.99,17.43c0.31,0.12,0.64,0.23,0.98,0.33 c9.93,2.96,25.41,6.07,42.92,4.08c2.79-0.31,5.36-1,7.65-2.05c3.43-1.58,7.37-4.33,6.67-8.48c-1.25-7.39-16.06-16.64-37.8-18.72 l-2.55-0.24l0.85-2.41c0.12-0.35,12.37-35.69,13.22-89.11l0.03-1.88l1.87-0.09c17.24-0.84,31.83-10.79,39.04-26.62 c7.19-15.79,5.07-33.36-5.67-47l-8.45-10.74c-14.34-18.2-25.97-38.35-34.56-59.88l-0.37-0.95c-6.45-16.14-21.26-26.17-38.64-26.17 c-0.04,0-0.07,0-0.11,0c-17.39,0-32.18,10.03-38.63,26.18l-0.38,0.95c-8.59,21.52-20.22,41.67-34.55,59.88l-8.46,10.74 c-10.74,13.65-12.86,31.22-5.67,47c7.21,15.82,21.81,25.77,39.05,26.61l1.87,0.09l0.03,1.88c0.84,53.47,13.09,88.76,13.22,89.11 l0.85,2.41l-2.55,0.24c-21.74,2.08-36.55,11.34-37.81,18.72c-0.7,4.15,3.24,6.9,6.67,8.48c2.29,1.05,4.86,1.74,7.65,2.05 c17.52,1.99,33-1.11,42.9-4.07c0.36-0.1,0.69-0.21,1.01-0.33c6.36-2.41,9.56-10.39,6.99-17.43c-4.41-12.08-14.75-45.9-15.67-99.04 L135.51,233.33z" fill="inherit"/></g></g><g><g id="change1_1"><path d="M99.58,129.6l-32.47-28.79L42.56,62.21l2.56-17.64l-6.7-12.5V4.42L31.97,2l-5.19,3.18l-2.07,3.29 l-4.62-5.44l-6.48,1.3l-3.59,4.7l5.46,16.51l-4.73,3.93l-1.96,6L4.1,37.24L2.04,41.3l4.82,11.46l4.56,9.42l8.81,8.11l3.92,0.98 c0,0,36.07,65.38,66.08,71.4S99.58,129.6,99.58,129.6z" fill="#ee2b2c"/></g></g><g><g id="change2_5"><path d="M97.81,130.07c0.67,0,1.33-0.34,1.71-0.96c0.58-0.94,0.28-2.17-0.67-2.75c-33.69-20.57-52-59.46-54.21-64.4l2.32-12.87 c1-5.57-0.86-11.21-4.98-15.09l-1.57-1.48L39.8,7.64C39.7,3.36,36.26,0,31.97,0c-2.16,0-4.17,0.86-5.66,2.42 c-1.49,1.56-2.26,3.61-2.16,5.77l1.1,24c0.05,1.1,1,1.96,2.09,1.91c1.1-0.05,1.96-0.99,1.91-2.09l-1.1-24 c-0.05-1.06,0.33-2.06,1.06-2.82S30.91,4,31.97,4c2.1,0,3.78,1.64,3.83,3.74l0.65,26.55l2.79,2.63 c3.13,2.95,4.54,7.24,3.78,11.47l-2.53,14.05l0.23,0.55c0.18,0.43,19.03,44.19,56.05,66.8 C97.09,129.98,97.45,130.07,97.81,130.07z" fill="inherit"/></g></g><g><g id="change2_10"><path d="M10.09,42.04l-2.16-3.72c-1.18-2.02-1.46-4.37-0.8-6.62c0.66-2.25,2.17-4.07,4.25-5.13l3-1.54L9.74,11.82 c-0.77-2.2-0.56-4.62,0.58-6.65c1.14-2.03,3.1-3.47,5.38-3.96c4.14-0.88,8.19,1.51,9.43,5.53l3.39,10.75 c0.33,1.05-0.25,2.18-1.31,2.51c-1.05,0.33-2.18-0.25-2.51-1.31L21.3,7.93c-0.63-2.05-2.68-3.25-4.78-2.81 c-1.15,0.25-2.15,0.98-2.73,2c-0.58,1.03-0.68,2.26-0.29,3.37l5.21,14.82c0.01,0.03,0.02,0.07,0.04,0.1l3.48,9.9l0.32,0.85 c1.29,3.48-0.38,7.33-3.8,8.77c-0.87,0.36-1.77,0.54-2.66,0.54C13.67,45.48,11.36,44.22,10.09,42.04z M13.2,30.13 c-1.1,0.56-1.89,1.52-2.24,2.7c-0.35,1.18-0.2,2.42,0.42,3.48l2.16,3.72c0.73,1.26,2.3,1.79,3.65,1.22 c1.44-0.61,2.14-2.23,1.6-3.69l-3.08-8.71L13.2,30.13z" fill="inherit"/></g></g><g><g id="change2_9"><path d="M3.83,49.88L1.72,47.1c-1.47-1.93-2.04-4.41-1.55-6.79c0.49-2.38,1.97-4.44,4.08-5.64l5.45-3.11l5.32,11.61 c1.42,3.1,0.26,6.72-2.7,8.42c-1.02,0.58-2.14,0.86-3.25,0.86C7.07,52.46,5.11,51.55,3.83,49.88z M6.24,38.15 c-1.11,0.63-1.89,1.71-2.15,2.96c-0.26,1.25,0.04,2.55,0.81,3.57l2.11,2.78c0.78,1.02,2.2,1.31,3.31,0.67 c1.16-0.66,1.61-2.08,1.05-3.29l-3.5-7.64L6.24,38.15z" fill="inherit"/></g></g><g><g id="change2_8"><path d="M27.73,45.67h7.18c1.1,0,2-0.9,2-2s-0.9-2-2-2h-7.18c-1.44,0-2.7-0.98-3.04-2.38c-0.23-0.94-0.02-1.92,0.58-2.68 c0.6-0.76,1.5-1.2,2.46-1.2h10.7c1.1,0,2-0.9,2-2s-0.9-2-2-2h-10.7c-2.21,0-4.25,1-5.61,2.73c-1.36,1.74-1.84,3.96-1.31,6.1 C21.59,43.44,24.44,45.67,27.73,45.67z" fill="inherit"/></g></g><g><g id="change2_2"><path d="M88.56,143.57c0.76,0,1.48-0.43,1.82-1.16c0.46-1,0.02-2.19-0.98-2.65C50.9,122.02,26.26,70.1,26,69.57l-0.41-0.85 l-0.92-0.22c-2.69-0.65-5.18-1.99-7.19-3.85c-4.51-4.18-7.88-9.48-9.75-15.33l-0.4-1.25c-0.33-1.05-1.46-1.63-2.51-1.3 c-1.05,0.34-1.63,1.46-1.3,2.51l0.4,1.26C6,57.04,9.75,62.94,14.76,67.58c2.29,2.12,5.05,3.68,8.05,4.56 c1.61,3.17,7.85,15.06,17.62,28.44c10.54,14.44,26.43,33.2,47.28,42.81C87.99,143.52,88.28,143.57,88.56,143.57z" fill="inherit"/></g></g><g><g id="change1_2"><path d="M219.34,130.73l32.47-28.79l24.55-38.61L273.8,45.7l6.7-12.5V5.54l6.46-2.42l5.19,3.18l2.07,3.29 l4.62-5.44l6.48,1.3l3.59,4.7l-5.46,16.51l4.73,3.93l1.96,6l4.68,1.77l2.06,4.06l-4.82,11.46l-4.56,9.42l-8.81,8.11l-3.92,0.98 c0,0-36.07,65.38-66.08,71.4S219.34,130.73,219.34,130.73z" fill="#ee2b2c"/></g></g><g><g id="change2_11"><path d="M221.12,131.2c-0.67,0-1.33-0.34-1.71-0.96c-0.58-0.94-0.28-2.17,0.67-2.75c33.69-20.57,52-59.46,54.21-64.4l-2.32-12.87 c-1-5.57,0.86-11.21,4.98-15.09l1.57-1.48l0.61-24.88c0.1-4.28,3.54-7.64,7.83-7.64c2.16,0,4.17,0.86,5.66,2.42 c1.49,1.56,2.26,3.61,2.16,5.77l-1.1,24c-0.05,1.1-1,1.96-2.09,1.91c-1.1-0.05-1.96-0.99-1.91-2.09l1.1-24 c0.05-1.06-0.33-2.06-1.06-2.82s-1.71-1.19-2.77-1.19c-2.1,0-3.78,1.64-3.83,3.74l-0.65,26.55l-2.79,2.63 c-3.13,2.95-4.54,7.24-3.78,11.47l2.53,14.05l-0.23,0.55c-0.18,0.43-19.03,44.19-56.05,66.8 C221.83,131.1,221.47,131.2,221.12,131.2z" fill="inherit"/></g></g><g><g id="change2_3"><path d="M302.85,46.6c-0.89,0-1.8-0.17-2.66-0.54c-3.42-1.44-5.09-5.29-3.8-8.77l0.32-0.85l3.48-9.9 c0.01-0.03,0.02-0.07,0.04-0.1l5.21-14.82c0.39-1.11,0.28-2.34-0.29-3.37c-0.58-1.03-1.57-1.76-2.73-2 c-2.09-0.44-4.15,0.76-4.78,2.81l-3.39,10.76c-0.33,1.05-1.46,1.64-2.51,1.31c-1.05-0.33-1.64-1.46-1.31-2.51l3.39-10.75 c1.24-4.03,5.28-6.41,9.43-5.53c2.28,0.48,4.24,1.93,5.38,3.96c1.14,2.03,1.35,4.46,0.58,6.65l-4.64,13.22l3,1.54 c2.08,1.07,3.59,2.89,4.25,5.13c0.66,2.25,0.38,4.6-0.8,6.62l-2.16,3.72C307.57,45.35,305.25,46.6,302.85,46.6z M303.21,29.97 l-3.08,8.71c-0.54,1.46,0.16,3.09,1.6,3.69c1.34,0.57,2.91,0.04,3.65-1.22l2.16-3.72c0.62-1.06,0.77-2.3,0.42-3.48 c-0.35-1.18-1.14-2.14-2.24-2.7L303.21,29.97z" fill="inherit"/></g></g><g><g id="change2_6"><path d="M309.86,53.59c-1.11,0-2.23-0.28-3.25-0.86c-2.96-1.7-4.12-5.32-2.7-8.42l5.32-11.61l5.45,3.11 c2.11,1.2,3.6,3.26,4.08,5.64c0.49,2.38-0.08,4.85-1.55,6.79L315.1,51C313.82,52.68,311.86,53.59,309.86,53.59z M311.04,38.33 l-3.5,7.64c-0.55,1.21-0.1,2.62,1.05,3.29c1.11,0.64,2.54,0.35,3.31-0.67l2.11-2.78c0.77-1.02,1.07-2.32,0.81-3.57 c-0.25-1.25-1.04-2.33-2.15-2.96L311.04,38.33z" fill="inherit"/></g></g><g><g id="change2_1"><path d="M291.2,46.79h-7.18c-1.1,0-2-0.9-2-2s0.9-2,2-2h7.18c1.44,0,2.7-0.98,3.04-2.38c0.23-0.94,0.02-1.92-0.58-2.68 c-0.6-0.76-1.5-1.2-2.46-1.2h-10.7c-1.1,0-2-0.9-2-2s0.9-2,2-2h10.7c2.21,0,4.25,1,5.61,2.73c1.36,1.74,1.84,3.96,1.31,6.1 C297.34,44.56,294.49,46.79,291.2,46.79z" fill="inherit"/></g></g><g><g id="change2_4"><path d="M230.37,144.7c-0.76,0-1.48-0.43-1.82-1.16c-0.46-1-0.02-2.19,0.98-2.65c38.49-17.74,63.13-69.66,63.39-70.18l0.41-0.85 l0.92-0.22c2.69-0.65,5.18-1.99,7.19-3.85c4.51-4.18,7.88-9.48,9.75-15.33l0.4-1.25c0.33-1.05,1.46-1.63,2.51-1.3 c1.05,0.34,1.63,1.46,1.3,2.51l-0.4,1.26c-2.08,6.51-5.83,12.41-10.85,17.05c-2.29,2.12-5.05,3.68-8.05,4.56 c-1.61,3.17-7.85,15.06-17.62,28.44c-10.54,14.44-26.43,33.2-47.28,42.81C230.94,144.64,230.65,144.7,230.37,144.7z" fill="inherit"/></g></g></g></svg>