<?xml version="1.0" encoding="UTF-8"?><svg xmlns="http://www.w3.org/2000/svg" xmlns:xlink="http://www.w3.org/1999/xlink" height="105.6" preserveAspectRatio="xMidYMid meet" version="1.0" viewBox="-1.8 -0.1 89.3 105.6" width="89.3" zoomAndPan="magnify"><g><g id="change1_1"><path d="M59.5,51.7c-7.7-3.9-15.4-7.9-23.1-11.8c-7.7,3.9-15.4,7.9-23.1,11.8c-2.3,1.2-4.1-2.4-1.8-3.6c6.8-3.5,13.7-7,20.5-10.5 c-6.8-3.5-13.7-7-20.5-10.5c-2.3-1.2-0.5-4.7,1.8-3.6c7.7,3.9,15.4,7.9,23.1,11.8c7.7-3.9,15.4-7.9,23.1-11.8 c2.3-1.2,4.1,2.4,1.8,3.6c-6.8,3.5-13.7,7-20.5,10.5c6.8,3.5,13.7,7,20.5,10.5C63.7,49.3,61.8,52.8,59.5,51.7z M77.4,63.6H8.3 c-6,0-10.1,6.2-7.6,11.7C9.3,93.7,25.9,105.5,44,105c17.2-0.5,32.8-12.1,40.9-29.6C87.5,69.9,83.5,63.6,77.4,63.6z M3,9.8 C10,6.2,17.7,4.2,25.5,4c2.6-0.1,2.6-4.1,0-4C16.9,0.3,8.6,2.4,1,6.3C-1.3,7.5,0.7,11,3,9.8z M56.2,4C64,4.2,71.7,6.2,78.7,9.8 c2.3,1.2,4.3-2.3,2-3.5C73.1,2.4,64.7,0.3,56.2,0C53.6-0.1,53.6,3.9,56.2,4z" fill="inherit"/></g><g id="change2_1"><path d="M62.2,100.2c-5.6,3-11.8,4.7-18.2,4.9c-7.2,0.2-14.2-1.6-20.5-4.9c2.6-8.2,10.3-14.2,19.4-14.2 C51.9,85.9,59.7,91.9,62.2,100.2z" fill="#D85041"/></g></g></svg>