<?xml version="1.0" encoding="UTF-8" standalone="no"?><svg xmlns="http://www.w3.org/2000/svg" xmlns:xlink="http://www.w3.org/1999/xlink" fill="#171e2e" height="166.4" preserveAspectRatio="xMidYMid meet" version="1" viewBox="0.0 0.0 166.4 166.4" width="166.4" zoomAndPan="magnify"><g><g><g id="change1_1"><circle cx="83.19" cy="83.19" fill="#2fb4c2" r="81.19"/></g><g id="change2_2"><path d="M83.19,166.38C37.32,166.38,0,129.06,0,83.19C0,37.32,37.32,0,83.19,0c45.87,0,83.19,37.32,83.19,83.19 C166.38,129.06,129.06,166.38,83.19,166.38z M83.19,4C39.52,4,4,39.52,4,83.19s35.52,79.19,79.19,79.19s79.19-35.52,79.19-79.19 S126.85,4,83.19,4z" fill="inherit"/></g></g><g><g id="change3_1"><path d="M129.52,16.52l-2.91,5.75c-2.52,4.98-0.96,11.05,3.63,14.22l1.97,1.35c3.68,2.53,5.53,6.99,4.71,11.39l0,0 c-0.71,3.8,2.41,7.22,6.26,6.86l16.01-1.49" fill="#009140"/></g><g id="change2_1"><path d="M142.62,58.11c-2.19,0-4.26-0.91-5.76-2.55c-1.67-1.83-2.36-4.27-1.91-6.7c0.67-3.61-0.85-7.29-3.88-9.37l-1.97-1.35 c-5.4-3.71-7.24-10.92-4.29-16.77l2.91-5.75l3.57,1.8l-2.91,5.75c-2.06,4.07-0.77,9.08,2.98,11.67l1.97,1.35 c4.33,2.98,6.5,8.24,5.54,13.4c-0.22,1.19,0.12,2.38,0.93,3.27c0.81,0.89,1.98,1.34,3.17,1.23L159,52.6l0.37,3.98l-16.01,1.49 C143.11,58.1,142.87,58.11,142.62,58.11z" fill="inherit"/></g></g><g id="change3_5"><path d="M156.33 52.87L150.47 34.76 130.24 19.5z" fill="#009140"/></g></g><g><g><defs><circle cx="83.19" cy="83.19" id="a" r="81.19"/></defs><clipPath id="b"><use overflow="visible" xlink:actuate="onLoad" xlink:href="#a" xlink:show="embed" xlink:type="simple"/></clipPath><g clip-path="url(#b)"><g id="change3_4"><path d="M64,164.37l1.4-2.11c7.88-11.83,3.66-15.9-3.76-25.97c-1.76-2.39-2.26-5.5-1.33-8.33l1.77-5.34 c1.85-5.57-3.36-11.1-8.95-9.31c-0.04,0.01-0.08,0.03-0.12,0.04h0c-6,2-12.62,0.62-17.33-3.61l0,0 c-8.4-7.56-20.97-8.09-29.98-1.28l-4.9,3.71L2,150.26L64,164.37z" fill="#009140"/></g><g id="change2_5"><path d="M64.9,166.63L0.05,151.87l-1.28-40.66l5.73-4.33c9.76-7.38,23.44-6.8,32.53,1.38c4.16,3.74,10.04,4.97,15.36,3.2 l0.16-0.05c3.29-1.05,6.73-0.19,9.19,2.3c2.5,2.53,3.37,6.19,2.25,9.55l-1.77,5.34c-0.73,2.2-0.34,4.64,1.04,6.51 c0.49,0.66,0.96,1.3,1.42,1.91c6.57,8.81,10.53,14.13,2.39,26.36L64.9,166.63z M3.95,148.65l59.14,13.47l0.64-0.96 c6.57-9.88,4.17-13.11-2.27-21.75c-0.46-0.62-0.94-1.26-1.43-1.93c-2.15-2.92-2.75-6.71-1.61-10.14l1.77-5.34 c0.64-1.92,0.14-4.02-1.3-5.48c-1.38-1.4-3.31-1.89-5.14-1.3l-0.1,0.03c-6.67,2.22-14.07,0.68-19.3-4.02 c-7.67-6.9-19.21-7.39-27.44-1.17l-4.08,3.09L3.95,148.65z" fill="inherit"/></g></g><g clip-path="url(#b)"><g id="change3_3"><path d="M169.96,81.55l-9.69,0.75c-7.12,0.55-13.36,4.96-16.24,11.49l0,0c-2.44,5.51-7.28,9.59-13.13,11.05l0,0 c-4.84,1.21-8.1,5.75-7.7,10.72l0.08,0.98c0.53,6.48,5.08,11.92,11.37,13.57h0c1,0.26,1.74,1.1,1.89,2.13l2.8,20.23l41.12-9.66 L169.96,81.55z" fill="#009140"/></g><g id="change2_4"><path d="M137.65,154.92l-3.1-22.4c-0.03-0.23-0.19-0.41-0.41-0.47c-7.09-1.87-12.26-8.03-12.85-15.34l-0.08-0.98 c-0.48-5.98,3.39-11.37,9.2-12.83c5.29-1.32,9.58-4.94,11.79-9.92c3.19-7.21,10.06-12.07,17.92-12.67l11.51-0.89l11.11,64.91 L137.65,154.92z M168.3,83.68l-7.88,0.61c-6.39,0.49-11.98,4.44-14.57,10.31c-2.71,6.12-7.98,10.56-14.47,12.18 c-3.91,0.98-6.51,4.6-6.19,8.62l0.08,0.98c0.46,5.62,4.43,10.36,9.88,11.8c1.79,0.47,3.11,1.96,3.36,3.79l2.5,18.05l37.15-8.73 L168.3,83.68z" fill="inherit"/></g></g><g clip-path="url(#b)"><g id="change3_2"><path d="M106.22-4.55v2.83c0,9.94-4.33,19.38-11.87,25.86l0,0l0,0c-4.81,3.6-7.96,8.99-8.8,14.94 c-0.94,6.72-2.03,11.58-8.27,18.02l-1.26,1.3c-6.81,7.03-16.72,10.14-26.33,8.25l0,0c-9.19-1.8-17.61-6.39-24.12-13.13l0,0 c-3.43-3.56-8.35-5.27-13.25-4.64l-17.6,2.3l-9.11-79.75L106.22-4.55z" fill="#009140"/></g><g id="change2_3"><path d="M55.31,69.21c-1.99,0-4-0.19-6-0.58c-9.64-1.89-18.35-6.63-25.17-13.7c-2.98-3.09-7.3-4.6-11.55-4.04l-19.61,2.56 l-9.65-84.49L108.22-6.19v4.48c0,10.53-4.58,20.51-12.56,27.38l-0.11,0.08c-4.34,3.25-7.26,8.21-8.02,13.61 c-0.96,6.87-2.16,12.27-8.81,19.14l-1.26,1.3C71.56,65.88,63.58,69.21,55.31,69.21z M14.32,46.77c4.74,0,9.36,1.93,12.69,5.38 c6.25,6.48,14.23,10.82,23.07,12.55c8.98,1.76,18.14-1.11,24.51-7.68l1.26-1.3c5.84-6.03,6.82-10.41,7.73-16.91 c0.9-6.42,4.37-12.33,9.52-16.22c7.07-6.11,11.12-14.96,11.12-24.31v-1.19L-12.08-26.06l8.56,75.01l15.58-2.03 C12.82,46.82,13.57,46.77,14.32,46.77z" fill="inherit"/></g></g></g><g id="change2_6"><path d="M83.19,166.38C37.32,166.38,0,129.06,0,83.19C0,37.32,37.32,0,83.19,0c45.87,0,83.19,37.32,83.19,83.19 C166.38,129.06,129.06,166.38,83.19,166.38z M83.19,4C39.52,4,4,39.52,4,83.19s35.52,79.19,79.19,79.19s79.19-35.52,79.19-79.19 S126.85,4,83.19,4z" fill="inherit"/></g></g></svg>