<?xml version="1.0" encoding="UTF-8"?><svg xmlns="http://www.w3.org/2000/svg" xmlns:xlink="http://www.w3.org/1999/xlink" height="63.6" preserveAspectRatio="xMidYMid meet" version="1.0" viewBox="-1.2 -0.4 96.7 63.6" width="96.7" zoomAndPan="magnify"><g><g id="change1_1"><path d="M39.6,32c0,9.4-7.6,17-17,17s-17-7.6-17-17s7.6-17,17-17S39.6,22.6,39.6,32z M69.8,15c-9.4,0-17,7.6-17,17 s7.6,17,17,17s17-7.6,17-17S79.2,15,69.8,15z" fill="#FFF"/></g><g id="change2_1"><path d="M30.9,27.3c0,6.2-5.1,11.3-11.3,11.3S8.3,33.5,8.3,27.3S13.4,16,19.6,16S30.9,21,30.9,27.3z M67,16 c-6.2,0-11.3,5.1-11.3,11.3S60.7,38.6,67,38.6c6.2,0,11.3-5.1,11.3-11.3S73.2,16,67,16z M90.8,42.6C81.3,50.1,69.9,55.1,58,57.1 c-12.2,2.1-24.8,0.8-36.4-3.4c-6.6-2.4-12.9-5.8-18.5-10C1,42.2-1.2,45.5,0.8,47C11.4,55,24.1,60,37.3,61.6 C50,63.2,63,61.3,74.8,56.5c6.7-2.7,13-6.4,18.6-10.9C95.5,44,92.8,41,90.8,42.6z M78.3,3.6c-5.1-2.7-11-4-16.7-3.5 c-1.1,0.1-2,0.9-2,2c0,1,0.9,2.1,2,2c5.1-0.4,10.2,0.6,14.7,3C78.6,8.3,80.6,4.8,78.3,3.6z M12.8,7.1c4.5-2.4,9.6-3.4,14.7-3 c1.1,0.1,2-1,2-2c0-1.1-0.9-1.9-2-2c-5.8-0.5-11.6,0.8-16.7,3.5C8.5,4.8,10.5,8.3,12.8,7.1z" fill="inherit"/></g></g></svg>