<?xml version="1.0" encoding="UTF-8" standalone="no"?><svg xmlns="http://www.w3.org/2000/svg" xmlns:xlink="http://www.w3.org/1999/xlink" fill="#ffffff" height="84.2" preserveAspectRatio="xMidYMid meet" version="1" viewBox="7.9 5.5 76.6 84.2" width="76.6" zoomAndPan="magnify"><g id="change1_1"><path d="M46.2,75.3c0.7,0,1.3-0.5,1.3-1.2c0-0.7-0.5-1.3-1.2-1.3S45,73.3,45,74c0,0,0,0,0,0C45,74.7,45.5,75.2,46.2,75.3z" fill="inherit"/><path d="M69.9,8h5.4L47.3,39.3l-11.2-7.8c-0.6-0.4-1.3-0.3-1.7,0.3L21.7,48.9c-0.4,0.6-0.3,1.3,0.3,1.8c0.2,0.2,0.5,0.2,0.8,0.2 c0.4,0,0.8-0.2,1-0.5l12-16.2L46.8,42c0.5,0.4,1.2,0.3,1.7-0.2L77,9.8v4.6c0,0.7,0.5,1.2,1.2,1.2c0,0,0,0,0,0l0,0 c0.7,0,1.2-0.6,1.2-1.2V6.7c0-0.7-0.6-1.2-1.2-1.2h-8.4c-0.7,0-1.2,0.6-1.2,1.2S69.2,8,69.9,8L69.9,8z" fill="inherit"/><path d="M84.5,24.7c0-1.9-1.5-3.4-3.3-3.4H71c-0.7,0-1.2,0.6-1.2,1.2s0.6,1.2,1.2,1.2h10.1c0.5,0,0.8,0.4,0.8,0.9v43.5h-4.3V31.6 c0-0.7-0.6-1.2-1.2-1.2h-7.2c-0.7,0-1.2,0.6-1.2,1.2v36.6h-5.4v-14c0-0.7-0.6-1.2-1.2-1.2H54c-0.7,0-1.2,0.6-1.2,1.2v14h-5.4V50 c0-0.7-0.6-1.2-1.2-1.2h-7.2c-0.7,0-1.2,0.6-1.2,1.2v18.2h-5.4v-7.8c0-0.7-0.6-1.2-1.2-1.2h-7.3c-0.7,0-1.2,0.6-1.2,1.2v7.8H10.4 v-5.3h6.5c0.7,0,1.2-0.6,1.2-1.2s-0.6-1.2-1.2-1.2h-6.5v-5h6.5c0.7,0,1.2-0.6,1.2-1.2s-0.6-1.2-1.2-1.2h-6.5v-5h6.5 c0.7,0,1.2-0.6,1.2-1.2s-0.6-1.2-1.2-1.2h-6.5v-5h6.5c0.7,0,1.2-0.6,1.2-1.2s-0.6-1.2-1.2-1.2h-6.5v-5h6.5c0.7,0,1.2-0.6,1.2-1.2 c0-0.7-0.6-1.2-1.2-1.2h-6.5v-5.7c0-0.5,0.4-0.9,0.8-0.9h0H57c0.7,0,1.2-0.6,1.2-1.2s-0.6-1.2-1.2-1.2H11.3c-1.9,0-3.3,1.5-3.3,3.4 l0,0L7.9,75.9c0.1,2.1,1.7,3.7,3.8,3.9h24.8c0,1.8,0,4.8-0.1,5.5c-0.3,1-1.1,1.7-2.1,2h-3.8c-0.7,0-1.2,0.6-1.2,1.2 s0.6,1.2,1.2,1.2H62c0.7,0,1.2-0.6,1.2-1.2s-0.6-1.2-1.2-1.2h-4c-1-0.3-1.7-1-1.9-2c-0.1-0.7-0.1-3.7-0.2-5.5h25.4 c2,0,3.2-1.9,3.2-3.8L84.5,24.7z M82.1,76c0,0.6-0.3,1.3-0.7,1.3H11.6c-0.7-0.1-1.2-0.7-1.3-1.4v-5.1h71.7V76z" fill="inherit"/></g></svg>