<?xml version="1.0" encoding="UTF-8" standalone="no"?><svg xmlns="http://www.w3.org/2000/svg" xmlns:xlink="http://www.w3.org/1999/xlink" fill="#000000" height="209.7" preserveAspectRatio="xMidYMid meet" version="1" viewBox="-0.6 -0.5 500.7 209.7" width="500.7" zoomAndPan="magnify"><g><g id="change1_1"><path d="M219.732132,205.7107849c-23.3665466,0-41.218338-0.2134399-57.883728-0.6912689 c-10.9900818-0.3153381-22.157074-0.4989777-32.9567871-0.6768341c-13.8753281-0.2288208-28.2236786-0.465332-42.299942-0.983551 c-3.0410004-0.1144104-7.1299515-0.2153625-11.8640213-0.3336182c-4.5254364-0.1115265-9.6854248-0.2403564-15.192482-0.4105225 c-5.2763176-0.1769104-10.9487419-0.3787994-16.6250114-0.6537781l-0.2317047-0.0115356l-0.2297783,0.0250092 c-2.8439064,0.3076477-5.4109192,0.4576263-7.8481369,0.4576263c-0.610508,0-1.2219734-0.009613-1.834404-0.0288391 c-6.0954533-0.1980591-10.6747341-0.9758453-14.8482933-2.5218201c-2.5122108-0.9470062-4.7129192-2.2132111-6.5252104-3.7591858 c-1.8517103-1.5421295-3.4197989-3.637085-4.561975-6.0800629c-0.9720039-2.1603394-1.6565404-4.6475525-2.017076-7.3549347 c-0.3922625-2.8179474-0.4730225-5.57724-0.4999423-7.6683502l-0.1672883-15.3145752 c-0.0480714-4.1802979-0.1374846-8.3586578-0.226897-12.5370178c-0.1557515-7.2895508-0.3163099-14.8281097-0.2403572-22.2195663 c0.0134602-9.3604584-0.1778641-18.8314819-0.3634195-27.9919739C3.0214801,82.4134293,2.717669,67.3767014,3.2320328,52.6274338 c0.1355615-3.8860893,0.1990156-7.6750755,0.2393956-10.5410919c0.0336499-3.9264717,0.1826713-7.3924217,0.4547553-10.6122417 c0.3691883-4.1937485,0.9143181-7.4260693,1.7661428-10.4699497c0.4509101-1.5190563,1.0143065-3.32654,1.8469033-5.0128851 l0.0624924-0.1355619c0.2355499-0.5460901,0.5835872-1.1421757,0.9527755-1.7747955l0.2932348-0.5057106l0.2413187-0.3509216 c0.4441795-0.6480026,0.8633623-1.25947,1.3258095-1.7661428l0.0749912-0.0855675 c1.0239201-1.2123604,2.7544909-2.9304314,5.1782503-4.2235522c2.2103233-1.2238975,5.1186428-2.0901442,8.4528732-2.5266323 c2.0449581-0.2461257,4.2398968-0.368227,6.6819248-0.368227c3.998579,0,8.0538807,0.3355384,11.8409443,0.6979966 l0.2038231,0.0192285l0.2047844-0.0086527c1.9363174-0.0836444,3.8726311-0.1576743,5.8099098-0.2317042 c33.750927-1.1940932,68.1094666-1.3431146,101.3373718-1.4873288l3.3092346-0.0144215 c6.2810059-0.0240357,12.5629883-0.0701842,18.8449554-0.1163328c8.8287811-0.065377,17.9594727-0.1317155,26.9363251-0.1317155 c4.992691,0,9.5354309,0.02019,13.8887787,0.0615313c5.7233887,0.0336499,11.4352264,0.0461485,17.1470642,0.0461485 c9.3056641,0,18.6094055-0.0336499,27.9131317-0.0682614c9.296051-0.0336499,18.5921021-0.0672998,27.8890991-0.0672998 c20.5187988,0,36.2958374,0.1701727,51.1556702,0.5508981c11.1525574,0.2845826,22.4839478,0.4211054,33.4413452,0.5537825 c12.5581665,0.1519055,25.5451355,0.3086185,38.2869263,0.6883821c3.1535034,0.0942202,7.4904785,0.166327,12.5120239,0.2490101 c12.5639343,0.2086296,29.7706299,0.4932122,45.3842163,1.3988776l0.125946,0.0067296l0.1268921-0.0028839 c0.410553-0.0115371,0.8220215-0.0182672,1.2344971-0.0182672c0.5566406,0,1.1133118,0.0124984,1.6709595,0.0432639 c4.3514099,0.2413187,7.6164246,0.7662582,10.5852966,1.7046118c1.7815247,0.5662813,3.3005981,1.2546635,4.6417847,2.1045656 c1.4104309,0.8873978,2.6919861,2.0305357,3.7130432,3.3111572c1.8594055,2.3180027,3.2044373,5.358037,4.2369995,9.5710154 c0.9066467,3.7236099,1.3969727,7.479908,1.8209534,11.0083485c0.3643799,3.3649979,0.6105042,7.018425,0.7941284,11.8101807 c0.1615295,3.7630272,0.2528687,7.5827789,0.3413086,11.2765884l0.0163574,0.6720352 c0.0730591,3.1775208,0.1326599,6.3560028,0.1922913,9.5335159c0.0884399,4.7273483,0.1807251,9.615242,0.3182068,14.4291153 c0.4499512,16.803833,0.3269043,33.9201355,0.2076721,50.4720764l-0.0144043,2.0641785 c-0.0307617,5.9502869-0.1740112,12.3101349-0.4384155,19.4477692 c-0.1961365,5.6445465-0.4393616,12.6610413-0.8210754,19.4141083c-0.1047974,1.8305664-0.3787842,5.6435852-1.0325623,10.5882111 c-0.330719,2.3410797-0.6451111,4.3398895-1.0931396,6.404068c-0.4864807,2.1247559-1.0152588,4.2312469-2.0497742,6.2963867 c-0.4816589,0.9700928-1.1056213,1.8747864-1.8084412,2.6266327c-0.6412659,0.6403046-1.4854126,1.2392731-2.3103027,1.6161499 c-1.8180542,0.8008728-3.4803772,0.9345093-4.9475098,1.0518036c-0.786438,0.0413513-1.6334839,0.0653839-2.4439392,0.0653839 c-1.7815247,0-2.8468018-0.1115265-3.1294556-0.1461334l-0.402832-0.0576935l-2.7602844,0.2422791 c-3.1005859,0.2942047-6.265625,0.4980164-9.224884,0.6739655c-18.6103516,1.113327-37.3572388,1.5988464-54.843689,1.9584198 c-19.3737488,0.379776-38.639801,0.562439-54.9302368,0.6903076c-5.9829407,0.0442352-11.9668884,0.10672-17.9508057,0.16922 c-10.8497009,0.1124878-22.0686035,0.2297821-33.0990906,0.2297821c-3.852417,0-7.7077637-0.0144348-11.5611572-0.0471191 c-4.8648376-0.02211-9.7161865-0.0307617-14.5694885-0.0307617c-9.6334839,0-19.2650757,0.0346069-28.8976288,0.0692291 C238.9808807,205.676178,229.3569794,205.7107849,219.732132,205.7107849z" fill="#606d8d"/></g><g id="change2_1"><path d="M499.6795044,81.7597809c-0.2288208-7.9797287-0.3259277-15.9606628-0.5105286-23.9495277 c-0.0959167-3.9953346-0.1867676-7.9883842-0.3588562-11.990448c-0.1523743-3.9922104-0.3756714-8.0157852-0.8126526-12.0499344 c-0.4549866-3.7816582-0.966217-7.5857887-1.8848877-11.3589115c-0.9179077-3.7450027-2.2766418-7.5671587-4.79776-10.710907 c-1.2476807-1.5630417-2.7662659-2.90868-4.4403381-3.9631262c-1.6738586-1.0597339-3.4866333-1.8383703-5.3318481-2.4248409 c-3.7012634-1.1696973-7.5224609-1.6281784-11.311676-1.837409c-1.0510864-0.0591278-2.1021729-0.0574453-3.1517944-0.0288429 C445.114624,2.1714606,420.0437012,2.1217067,409.1000061,1.79398 c-23.8833008-0.7120575-47.8194885-0.6332204-71.7398376-1.2425253 c-41.3721619-1.0603348-82.7649841-0.2205275-124.1530151-0.4618459 c-19.909729-0.1903627-39.8079224,0.1114054-59.710434,0.1859161c-34.9212265,0.1529872-69.8395615,0.2695604-104.7468414,1.504154 c-1.9420853,0.0741501-3.8832092,0.1485406-5.8240891,0.2324252c-6.1593895-0.5897158-12.8081436-1.0871346-19.1886597-0.3181125 c-3.3868694,0.4429778-6.7208614,1.3312169-9.4597282,2.8500328C11.5209827,6.0148888,9.5125599,7.9520454,8.23314,9.4672556 C7.509666,10.260314,6.947711,11.13305,6.3494625,11.9950905c-0.5057111,0.886076-1.0635796,1.7738342-1.4584861,2.688633 c-0.8984542,1.8193817-1.4945395,3.6744576-2.0430341,5.524004c-1.0354577,3.7037811-1.5447742,7.3832855-1.8646894,11.0176029 c-0.3076569,3.6352768-0.4350461,7.2401505-0.4653311,10.8201485c-0.0487925,3.5173836-0.1148906,6.9845352-0.2374727,10.4792023 c-0.8407687,24.1285934,0.4802332,48.2556305,0.4451411,72.3921509 c-0.1187363,11.6084061,0.3348172,23.2132034,0.4677346,34.8200302l0.166327,15.3204803 c0.034371,2.6085968,0.1458967,5.2864075,0.5261414,8.0197449c0.3629391,2.7244568,1.0609357,5.5319366,2.2694504,8.2162476 c1.2452893,2.662674,3.0482073,5.1835327,5.321023,7.0770721c2.2521448,1.9197235,4.8167534,3.3010559,7.415493,4.2811127 c5.2277641,1.9358368,10.5617657,2.5340881,15.7784748,2.7031708c3.3988876,0.1110535,6.7689323-0.0829163,10.0971527-0.4433289 c5.7104034,0.276535,11.3525429,0.4775848,16.6766891,0.6559296c11.2960587,0.348877,21.1302643,0.5213318,27.0387192,0.7437897 c25.0615387,0.9224854,50.1812363,0.9403992,75.2809982,1.6606293c43.4140015,1.245285,86.8525085,0.3905792,130.2840576,0.5858612 c20.89328,0.1784668,41.7740479-0.1980438,62.6593628-0.352005c18.3233948-0.1442108,36.6465149-0.3316803,54.9677124-0.6907806 c18.3217163-0.3762817,36.6390686-0.8669739,54.9593201-1.9622803c3.1080627-0.1859131,6.216095-0.3882904,9.3253784-0.682251 c0.7969971-0.0746307,1.5923462-0.1413269,2.3876953-0.2130737c0.0264282,0.0040894,0.0562439,0.0078125,0.0817261,0.012146 c0.7004089,0.0891724,2.9056702,0.2812042,6.2252502,0.1003418c1.6589355-0.1331635,3.6651917-0.3063354,5.939209-1.3099518 c1.1304016-0.5157928,2.2600708-1.3010406,3.2409668-2.2847137c0.9383545-1.0038452,1.7108765-2.1531067,2.2910767-3.3199158 c1.1760864-2.3462524,1.7721558-4.7033081,2.2958984-6.9931946c0.4975586-2.2895203,0.8345337-4.5169067,1.1342468-6.6441803 c0.5602722-4.237854,0.8953247-8.0418701,1.0539551-10.8089752c0.3682251-6.5160828,0.5994568-12.9921417,0.8239441-19.4707184 c0.2384338-6.4438477,0.4069214-13.0417786,0.4408264-19.5362091 C499.9989319,116.8376007,500.1488953,99.307045,499.6795044,81.7597809z M492.8052673,51.2504311 c-0.5951233,21.8861809,0.2992554,43.8764458-0.1504517,65.8302917 c-0.3352966,10.5565948-0.1439819,21.1226959-0.4951477,31.6312103l-0.8121643,27.7927246 c-0.1619873,4.5974274-0.3184509,9.2036285-0.8477173,13.6057587c-0.2754517,2.1856842-0.6852722,4.321991-1.4294128,6.0809174 c-0.7347717,1.7854919-1.8442688,2.9352417-3.6260376,3.7278137c-1.1575317,0.4985046-2.4812012,0.8460541-3.8757324,1.1313629 c-2.1355896,0.0507202-5.3587646,0.1293182-9.3530273,0.1363983c-6.155304,0.0455475-14.1135254-0.0231934-22.5817566-0.104187 c-16.9420471-0.1861572-35.9501953-0.5608826-46.8294678-0.515686c-25.617981,0.0806427-51.2508545,0.2971954-76.8933411,0.5339508 c-34.594574,0.317749-69.1934814,0.2660675-103.7955017,0.6231232c-31.4737854,0.3250885-62.9845886,0.0323334-94.4739914,0.14505 c-29.0139694,0.0896606-58.0426025-0.066452-87.0582581-0.4137726c-0.9664726-0.1008301-2.1072083-0.2224426-3.3847046-0.3750763 c-3.3469696-0.3946686-7.6390266-1.0326843-11.8964691-2.2241364c-2.1105747-0.624939-4.2050438-1.3849335-6.078146-2.3350677 c-1.8762264-0.9459229-3.5056067-2.0848541-4.7576265-3.331955c-2.5280743-2.4719543-3.5630512-5.4217224-4.1214008-7.8733673 c-0.6737204-2.8534088-0.8590355-6.0983429-0.8842735-9.5001068c0.0122585-3.3996124-0.0021629-7.0636139-0.0343704-10.6055145 c-0.0610504-7.1366882-0.1785851-14.2745667-0.3220787-21.4129181c-0.3879356-19.26017-0.5326309-38.517807-1.2337523-57.7707672 c-0.3187132-8.755722-0.4872036-17.5162506-0.6504059-26.2772636L6.9611712,46.6081772 c-0.0915761-4.4053841-0.2598257-8.6920319-0.129312-13.0024719c0.1221013-4.0680408,0.4636488-8.1360836,1.3690734-12.0388794 c0.9309025-3.8660221,2.4141455-7.6649837,5.1462831-10.431613c2.6850281-2.8136187,6.5297775-4.3198152,10.5072041-5.0431695 c1.9750137-0.3705106,3.9877625-0.5928407,6.0175781-0.7388573c0.0677795,0.0054078,0.1358013,0.0108161,0.199976,0.0165844 c1.2736511,0.117054,5.4575443,0.2267771,11.3349934,0.3471956c5.8923531,0.162962,13.481144,0.3729138,21.5552139,0.5962057 c8.0841675,0.2104325,16.6533737,0.4336038,24.4952621,0.6377869c7.847168,0.196372,14.9701462,0.327126,20.1568146,0.3432298 c24.4253082,0.1015511,48.8612061-0.000721,73.3045502-0.1632023c32.9769745-0.2041831,65.9551544-0.1438537,98.9357452-0.5150847 c29.9984436-0.3345771,60.0327454-0.1299133,90.0461121-0.3688278c28.4354248-0.2315841,56.8847961-0.2053852,85.3267212-0.2838616 c2.3845825-0.0070906,4.7674866-0.0575657,7.1494141-0.1236639c0.1663513,0.0216322,0.3417969,0.0326886,0.5136414,0.0515566 c5.8231506,0.6407919,12.1089478,1.3300157,16.9430237,3.0283775c2.4062195,0.8472586,4.3941956,1.9321098,5.8118286,3.1549253 c1.4469299,1.194334,2.3687134,2.5089664,2.9614258,3.5804777c1.2284851,2.2920446,2.0454407,4.9800768,2.6026001,7.865201 c0.578064,2.8715458,0.9111938,5.9215546,1.1928711,9.0005283l0.1896667,2.3240089l0.1172791,2.288681 c0.0949402,1.5057144,0.099762,3.1032486,0.1377258,4.6599197 C492.8997498,44.9260368,492.8848267,48.0900955,492.8052673,51.2504311z" fill="inherit"/></g></g></svg>