<?xml version="1.0" encoding="UTF-8"?><svg xmlns="http://www.w3.org/2000/svg" xmlns:xlink="http://www.w3.org/1999/xlink" height="30.9" preserveAspectRatio="xMidYMid meet" version="1.0" viewBox="0.0 0.0 75.8 30.9" width="75.8" zoomAndPan="magnify"><g id="change1_1"><path d="M60.31,0c-7.49,0-13.75,5.36-15.14,12.45c-6.03-2.29-11.47-1.11-14.58,0.02C29.21,5.37,22.94,0,15.44,0 C6.93,0,0,6.92,0,15.43c0,8.52,6.93,15.44,15.44,15.44c8.08,0,14.74-6.24,15.38-14.17c2.16-0.97,7.88-2.92,14.12-0.01 c0.63,7.93,7.28,14.18,15.37,14.18c8.52,0,15.44-6.92,15.44-15.44C75.75,6.92,68.83,0,60.31,0z M15.44,26.87 C9.13,26.87,4,21.74,4,15.43C4,9.13,9.13,4,15.44,4s11.44,5.13,11.44,11.43C26.88,21.74,21.75,26.87,15.44,26.87z M60.31,26.87 c-6.3,0-11.43-5.13-11.43-11.44C48.88,9.13,54.01,4,60.31,4c6.31,0,11.44,5.13,11.44,11.43C71.75,21.74,66.62,26.87,60.31,26.87z" fill="inherit"/></g></svg>