<?xml version="1.0" encoding="UTF-8"?><svg xmlns="http://www.w3.org/2000/svg" xmlns:xlink="http://www.w3.org/1999/xlink" height="59.6" preserveAspectRatio="xMidYMid meet" version="1.0" viewBox="-1.2 -1.2 94.6 59.6" width="94.6" zoomAndPan="magnify"><g><g id="change1_1"><path d="M61.9,53.4c-1.5,2.2-4.2,3.2-6.7,3.9c-2.7,0.7-5.5,1-8.3,1c-2.8-0.1-5.7-0.5-8.4-1.4c-2.4-0.8-5-1.8-6.8-3.6 c-1.8-1.8-2.2-4.5-0.6-6.5c1.7-2.2,4.5-2.6,7.1-2.1c2.9,0.5,5.5,1.3,8.5,1.3c1.1,0,3.4-0.5,8-1.4c0.8-0.2,2.4-0.5,4.3,0.1 c0.7,0.2,1.6,0.5,2.3,1.1C63.4,47.8,63.5,51.1,61.9,53.4z M90.8,33.4c-1-0.6-2.1-0.1-2.7,0.7c-3,3.9-7.9,6.4-12.8,6.4 c-5.1,0.1-9.8-2.3-13.1-6.1c-1.7-2-4.5,0.9-2.8,2.8c4,4.7,10.1,7.5,16.3,7.3c6.3-0.2,12.1-3.4,15.9-8.4 C92.2,35.2,91.7,33.9,90.8,33.4z M92.7,10.9C86.8,3.7,77.6-0.4,68.2,0.5c-2.6,0.3-2.4,4.3,0.2,4c7.8-0.8,16,2.3,20.9,8.5 c0.7,0.8,1.8,1.3,2.8,0.6C92.9,13.2,93.4,11.8,92.7,10.9z M3.4,12.1c5.2-5.9,13.3-9.1,21.1-8c1.1,0.2,2.1-0.3,2.5-1.4 c0.3-0.9-0.3-2.3-1.4-2.5c-9.2-1.4-18.8,1.9-25,9C-1.2,11.2,1.6,14.1,3.4,12.1z M32.8,33.4c-1-0.6-2.1-0.1-2.7,0.7 c-3,3.9-7.9,6.4-12.8,6.4c-5.1,0.1-9.8-2.3-13.1-6.1c-1.7-2-4.5,0.9-2.8,2.8c4,4.7,10.1,7.5,16.3,7.3c6.3-0.2,12.1-3.4,15.9-8.4 C34.1,35.2,33.6,33.9,32.8,33.4z" fill="inherit"/></g><g id="change2_1"><path d="M55.8,57.2c-0.2,0.1-0.5,0.1-0.7,0.2c-2.7,0.7-5.5,1-8.3,1c-2.8-0.1-5.7-0.5-8.4-1.4c0,0,0,0,0,0 c0.9-3.9,4.5-6.8,8.7-6.8C51.4,50.1,55,53.1,55.8,57.2z" fill="#D85041"/></g></g></svg>