<?xml version="1.0" encoding="UTF-8"?><svg xmlns="http://www.w3.org/2000/svg" xmlns:xlink="http://www.w3.org/1999/xlink" height="396.7" preserveAspectRatio="xMidYMid meet" version="1.0" viewBox="-1.2 0.0 286.3 396.7" width="286.3" zoomAndPan="magnify"><g><g><g><g id="change1_3"><path d="M178.1 113.24L196.78 128.58 212.86 134.66 226.39 128.21 237.55 115.12 236.26 109.2 236.21 96.57 231.02 84.83 235.26 79.39 242.89 79.78 245.54 86.9 249.18 73.43 253.83 64.93 261.27 66.76 263.89 69.33 267.43 65.97 274.53 68.59 275.41 72.67 272.21 78.07 275.27 76.97 280.28 80.16 280.49 86.34 280.49 86.34 281.65 91.05 281.88 97.19 272.25 107.12 267.61 112.95 256.15 120.84 249.4 128.15 237.08 140.19 225.02 146.19 210.15 146.76 193.49 143.12 183.6 138.9 168.61 125.67 168.17 113.61z" fill="#E75FA2"/></g></g></g><g><g><g id="change2_2"><path d="M265.12,93.91c-0.45,0.1-0.93,0.04-1.37-0.2c-0.97-0.52-1.33-1.74-0.81-2.71l9.61-17.79c0.5-0.92,0.59-1.98,0.26-2.97 c-0.33-0.99-1.03-1.78-1.98-2.22c-0.95-0.44-2.02-0.47-2.98-0.08c-0.97,0.39-1.72,1.14-2.1,2.12l-2.14,5.49 c-0.4,1.03-1.56,1.54-2.59,1.14c-1.03-0.4-1.54-1.56-1.14-2.59l2.14-5.49c0.78-1.99,2.36-3.58,4.34-4.38 c1.98-0.79,4.23-0.73,6.16,0.17c1.93,0.9,3.42,2.57,4.09,4.59c0.67,2.02,0.47,4.26-0.54,6.13l-9.61,17.79 C266.18,93.44,265.68,93.79,265.12,93.91z" fill="inherit"/></g></g></g><g><g><g id="change2_6"><path d="M269.55,101.26c-0.53,0.11-1.1,0.01-1.58-0.33c-0.9-0.64-1.11-1.89-0.47-2.79l10.49-14.73 c0.85-1.19,0.66-2.81-0.44-3.77c-0.65-0.57-1.51-0.81-2.36-0.65c-0.85,0.16-1.58,0.68-1.99,1.44l-1.43,2.64 c-0.53,0.97-1.74,1.33-2.71,0.81c-0.97-0.52-1.33-1.74-0.81-2.71l1.43-2.64c0.99-1.84,2.72-3.1,4.8-3.47 c2.05-0.37,4.13,0.2,5.7,1.58c2.65,2.32,3.11,6.23,1.07,9.1l-10.49,14.73C270.46,100.89,270.02,101.16,269.55,101.26z" fill="inherit"/></g></g></g><g id="change2_3"><path d="M214.36,149.78c-15.14,0-31-8.78-47.22-26.17c-0.75-0.81-0.71-2.07,0.1-2.83c0.81-0.75,2.07-0.71,2.83,0.1 c17.05,18.28,33.44,26.56,48.69,24.62c20.93-2.67,32.73-24,32.85-24.21c0.32-0.6,0.93-0.99,1.61-1.04 c8.2-0.61,16.15-12.68,16.23-12.8c0.05-0.08,0.11-0.15,0.17-0.22l10.32-11.86c0.76-0.87,1.13-1.99,1.04-3.14 c-0.09-1.15-0.62-2.2-1.5-2.95l-1.78-1.52c-0.84-0.72-0.94-1.98-0.22-2.82c0.72-0.84,1.98-0.94,2.82-0.22l1.78,1.52 c1.7,1.45,2.72,3.47,2.89,5.69c0.17,2.23-0.55,4.38-2.01,6.06l-10.23,11.76c-0.93,1.41-8.81,12.87-18.12,14.36 c-2.62,4.39-14.73,22.73-35.33,25.36C217.64,149.67,216.01,149.78,214.36,149.78z" fill="inherit"/></g><g id="change2_7"><path d="M212.91,135.81c-0.37,0-0.75-0.01-1.13-0.04c-15.27-0.99-33.87-21.35-34.65-22.22c-0.74-0.82-0.68-2.08,0.14-2.82 c0.82-0.74,2.08-0.68,2.83,0.14c0.18,0.2,18.29,20.03,31.94,20.91c11.3,0.73,20.87-13.05,23.52-17.24 c-4.7-6.17-2.38-15.12-1.5-17.87l-4.16-9.09c-0.99-2.15-0.98-4.62,0.02-6.77c1-2.15,2.88-3.75,5.16-4.38 c2.09-0.58,4.29-0.31,6.19,0.77c1.89,1.08,3.24,2.83,3.8,4.94l0.35,1.31l3.64-14.28c0.54-2.11,1.94-3.92,3.84-4.98 c1.9-1.05,4.19-1.28,6.26-0.61c2.07,0.66,3.74,2.11,4.7,4.06c0.96,1.95,1.08,4.16,0.33,6.2l-6.47,17.78 c-0.38,1.04-1.52,1.57-2.56,1.2c-1.04-0.38-1.57-1.53-1.19-2.56l6.47-17.78c0.37-1.01,0.31-2.11-0.16-3.07s-1.3-1.68-2.33-2.01 c-1.04-0.33-2.14-0.23-3.1,0.3c-0.96,0.53-1.63,1.41-1.91,2.47l-5.54,21.71c-0.22,0.88-1.02,1.5-1.93,1.51 c-0.94,0-1.71-0.6-1.94-1.48l-2.32-8.71c-0.28-1.06-0.97-1.95-1.92-2.5c-0.96-0.55-2.07-0.68-3.13-0.39 c-1.15,0.32-2.11,1.13-2.61,2.22c-0.5,1.09-0.51,2.33-0.01,3.42l4.49,9.82c0.22,0.49,0.24,1.04,0.05,1.54 c-0.04,0.1-3.84,10.39,1.36,15.65c0.63,0.63,0.76,1.61,0.32,2.39C239.28,116.17,228.05,135.81,212.91,135.81z" fill="inherit"/></g></g><g><g><g id="change1_2"><path d="M262.44,360.14c-1.9,2.13-4.2,3.91-6.68,5.34c-15.57,9.01-31.29,12.41-41.7,13.67 c-0.4,0.06-0.8,0.09-1.2,0.11c-8.03,0.39-14.95-6.62-15.47-15.06c-0.96-15.51-6.44-60.88-37.53-123.73h-58.99 C91,312.24,63.66,357.22,63.66,357.22c31.32,9.75,45.61,32.11,24.74,36.87c-2.79,0.63-5.68,0.75-8.54,0.48 c-17.9-1.68-32.69-8.02-41.91-13.02c-0.36-0.19-0.7-0.39-1.04-0.61c-6.77-4.33-8.35-14.06-3.88-21.24 c8.31-13.35,30.53-54.28,41.48-124.99V59.01c0-31.49,25.52-57.01,57-57.01c31.48,0,57,25.52,57,57.01v178.46 c29.01,59.69,32.41,106.96,32.41,106.96C252.09,334.23,276.7,344.17,262.44,360.14z" fill="#E75FA2"/></g><g id="change2_4"><path d="M82.69,396.71c-0.99,0-2-0.05-3.02-0.14c-18.23-1.71-33.27-8.15-42.68-13.25c-0.39-0.21-0.78-0.44-1.17-0.69 c-7.53-4.81-9.59-15.8-4.49-23.98c26.33-42.29,37.55-100.75,41.18-124.09V59.01c0-32.54,26.47-59.01,59-59.01s59,26.47,59,59.01 v178c14.94,30.83,22.94,58.26,27.03,75.87c3.32,14.31,4.66,24.46,5.14,28.9c19.95-5.94,38.75-4.16,44.35,4.4 c1.67,2.55,3.48,7.93-3.09,15.29v0c-1.96,2.19-4.37,4.12-7.17,5.74c-15.87,9.18-31.85,12.64-42.46,13.92 c-0.46,0.07-0.96,0.1-1.34,0.12c-8.96,0.44-16.98-7.32-17.57-16.93c-1-16.23-6.6-60.46-36.78-121.85h-56.01 c-5.19,36.47-14.9,65.77-22.19,84.03c-6.1,15.29-11.45,25.39-13.8,29.58c19.7,6.72,33.99,19.06,33.6,29.28 c-0.12,3.05-1.75,8.48-11.38,10.68C86.88,396.48,84.82,396.71,82.69,396.71z M131.51,4c-30.33,0-55,24.68-55,55.01v175.7 c0,0.1-0.01,0.21-0.02,0.31c-10.91,70.47-32.84,111.41-41.76,125.74c-3.96,6.36-2.47,14.83,3.26,18.5c0.3,0.19,0.59,0.36,0.9,0.53 c9.1,4.93,23.61,11.15,41.16,12.8c2.79,0.26,5.45,0.12,7.91-0.44c3.68-0.84,8.1-2.72,8.26-6.93c0.29-7.49-12.3-19.58-33.16-26.08 c-0.59-0.18-1.06-0.63-1.28-1.2c-0.22-0.58-0.16-1.22,0.16-1.75c0.07-0.11,6.88-11.41,14.8-31.27 c7.31-18.32,17.08-47.89,22.14-84.71c0.14-0.99,0.98-1.73,1.98-1.73h58.99c0.76,0,1.46,0.43,1.79,1.11 c30.98,62.62,36.71,107.92,37.73,124.49c0.46,7.48,6.59,13.53,13.38,13.19c0.33-0.02,0.66-0.04,1-0.09 c10.3-1.25,25.72-4.58,41-13.42c2.44-1.4,4.52-3.07,6.19-4.94c0,0,0,0,0,0c2.52-2.82,5.03-6.92,2.73-10.44 c-4.1-6.27-21.38-8.83-42.13-2.04c-0.58,0.19-1.23,0.1-1.74-0.24c-0.51-0.34-0.84-0.9-0.88-1.52 c-0.03-0.47-3.73-47.62-32.21-106.23c-0.13-0.27-0.2-0.57-0.2-0.87V59.01C186.51,28.68,161.84,4,131.51,4z" fill="inherit"/></g></g><g><g id="change1_1"><path d="M74.5,109.05l-16.42,10.59l-11.62,13.04L35.78,151.5l-7.51,20.95l-4.61,22.58L17.92,199l-4.83,6.51 l-3.81,14.01L2,236.43l3.92,7.24l2.13,7.64l7.1,1.28l6.4,3.84l6.59-2l2.13-2.88l4.62,2.85l4.95-1.67l1.86-6.57l0.65-19.89 l2.58-1.03l8.94,7.95l8.05-3.65l-0.11-6.08l-9.95-12.54l-4.97-11.68l-7.35-4.76c0,0,8.2-54.76,37.17-67.37 S74.5,109.05,74.5,109.05z" fill="#E75FA2"/></g></g><g><g id="change2_8"><path d="M5.91,245.68c-0.27,0-0.53-0.05-0.79-0.17c-4.29-1.86-6.28-6.87-4.42-11.16l6.62-15.32c1.49-17.2,11.11-23.6,14.5-25.34 c0.52-4.12,2.68-18.66,8.91-35.15c9.63-25.5,24.49-43.25,42.98-51.32c1.01-0.44,2.19,0.02,2.63,1.03 c0.44,1.01-0.02,2.19-1.03,2.63c-42.42,18.51-49.58,83.7-49.65,84.35l-0.13,1.24l-1.17,0.43c-0.46,0.18-11.64,4.66-13.09,22.77 l-0.03,0.33l-6.88,15.93c-0.98,2.27,0.07,4.92,2.34,5.91c1.01,0.44,1.48,1.62,1.04,2.63C7.42,245.23,6.69,245.68,5.91,245.68z" fill="inherit"/></g></g><g><g id="change2_5"><path d="M12.36,255.34c-1.01,0-2.02-0.2-2.98-0.61c-1.93-0.82-3.41-2.35-4.16-4.32c-0.75-1.96-0.66-4.09,0.24-5.99l8.17-17.17 c0.48-1,1.67-1.42,2.67-0.95c1,0.47,1.42,1.67,0.95,2.67l-8.17,17.17c-0.43,0.9-0.47,1.91-0.12,2.85 c0.35,0.93,1.06,1.66,1.98,2.05c0.93,0.39,1.94,0.39,2.87-0.01c0.92-0.4,1.62-1.14,1.96-2.09l1.8-4.96 c0.38-1.04,1.53-1.58,2.56-1.2c1.04,0.38,1.57,1.52,1.2,2.56l-1.8,4.96c-0.72,1.99-2.19,3.55-4.13,4.39 C14.42,255.13,13.39,255.34,12.36,255.34z" fill="inherit"/></g></g><g><g id="change2_9"><path d="M23.57,258.81c-0.5,0-1-0.05-1.5-0.15c-2.06-0.41-3.82-1.61-4.95-3.38c-1.13-1.77-1.48-3.87-0.99-5.91l4.48-18.48 c0.26-1.07,1.34-1.74,2.42-1.47c1.07,0.26,1.73,1.34,1.47,2.42l-4.48,18.48c-0.24,0.97-0.07,1.97,0.47,2.81 c0.54,0.84,1.38,1.41,2.36,1.61c0.99,0.2,1.98-0.02,2.8-0.6c0.8-0.57,1.32-1.41,1.48-2.37l0.29-5.37c0.06-1.1,1.02-1.94,2.1-1.89 c1.1,0.06,1.95,1,1.89,2.1l-0.31,5.64c-0.3,2.09-1.42,3.92-3.14,5.14C26.65,258.33,25.13,258.81,23.57,258.81z" fill="inherit"/></g></g><g><g id="change2_1"><path d="M35.54,255.83c-0.29,0-0.58-0.01-0.86-0.04c-2.22-0.24-4.21-1.32-5.6-3.07c-1.39-1.74-2.02-3.92-1.76-6.13L29.15,231 c0.13-1.1,1.13-1.89,2.22-1.75c1.1,0.13,1.88,1.12,1.75,2.22l-1.83,15.58c-0.13,1.15,0.19,2.27,0.91,3.17 c0.72,0.9,1.75,1.46,2.89,1.58c1.21,0.13,2.38-0.25,3.29-1.05c0.91-0.81,1.42-1.92,1.44-3.14l0.34-21.42 c0.03-1.6,1.01-3,2.51-3.55c1.5-0.56,3.16-0.15,4.22,1.05l4.78,5.36c0.96,1.08,2.29,1.69,3.74,1.73c1.46,0.03,2.8-0.51,3.82-1.54 c1.97-1.99,1.98-5.25,0.03-7.25l-9.41-9.7l-0.11-0.58c-0.03-0.13-2.62-13.01-10.24-15.05l-1.68-0.45l0.22-1.73 c0.07-0.54,1.72-13.31,7.02-28.4c7.17-20.46,15.9-32.9,28.42-40.28c0.95-0.56,2.18-0.24,2.74,0.71c0.56,0.95,0.24,2.18-0.71,2.74 c-14.54,8.56-21.94,24.67-26.65,38.08c-4.11,11.69-6,22.19-6.62,26.07c7.73,3.39,10.67,14.24,11.3,16.96l8.6,8.86 c3.45,3.56,3.43,9.32-0.06,12.85c-1.77,1.8-4.24,2.79-6.77,2.73c-2.53-0.06-4.94-1.18-6.62-3.07l-4.54-5.09l-0.33,21.05 c-0.04,2.32-1.05,4.53-2.79,6.07C39.52,255.09,37.55,255.83,35.54,255.83z" fill="inherit"/></g></g></g></svg>