<?xml version="1.0" encoding="UTF-8" standalone="no"?><svg xmlns="http://www.w3.org/2000/svg" xmlns:xlink="http://www.w3.org/1999/xlink" fill="#171e2e" height="92.8" preserveAspectRatio="xMidYMid meet" version="1" viewBox="-0.4 -0.2 42.8 92.8" width="42.8" zoomAndPan="magnify"><g><g id="change1_2"><path d="M27.86,20.46L39.9,68.17c0.42,1.65-0.06,3.39-1.25,4.6L21.02,90.62L3.4,72.77 c-1.19-1.21-1.67-2.95-1.25-4.6l12.03-47.71" fill="#009140"/></g><g id="change2_2"><path d="M21.02,92.62c-0.53,0-1.05-0.21-1.42-0.59L1.97,74.17c-1.67-1.7-2.35-4.18-1.77-6.5l12.03-47.71 c0.27-1.07,1.36-1.72,2.43-1.45c1.07,0.27,1.72,1.36,1.45,2.43L4.08,68.66c-0.24,0.96,0.04,2,0.74,2.71l16.2,16.41l16.2-16.41 c0.7-0.71,0.98-1.74,0.74-2.71L25.93,20.95c-0.27-1.07,0.38-2.16,1.45-2.43c1.07-0.27,2.16,0.38,2.43,1.45l12.03,47.71 c0.58,2.31-0.09,4.8-1.77,6.5L22.44,92.02C22.07,92.41,21.56,92.62,21.02,92.62z" fill="inherit"/></g></g><g><g id="change1_1"><path d="M21.02 2L32.12 11.47 27.86 20.46 21.02 20.46 14.18 20.46 9.92 11.47z" fill="#009140"/></g><g id="change2_1"><path d="M27.86,22.46H14.18c-0.77,0-1.48-0.45-1.81-1.15l-4.25-8.99c-0.39-0.82-0.18-1.79,0.51-2.38l11.1-9.47 c0.75-0.64,1.85-0.64,2.6,0l11.1,9.47c0.69,0.59,0.9,1.56,0.51,2.38l-4.25,8.99C29.34,22.01,28.64,22.46,27.86,22.46z M15.44,18.46 H26.6L29.66,12l-8.63-7.37L12.39,12L15.44,18.46z" fill="inherit"/></g></g></svg>