<?xml version="1.0" encoding="UTF-8" standalone="no"?><svg xmlns="http://www.w3.org/2000/svg" xmlns:xlink="http://www.w3.org/1999/xlink" fill="#ffffff" height="174" preserveAspectRatio="xMidYMid meet" version="1" viewBox="0.0 0.0 117.9 174.0" width="117.9" zoomAndPan="magnify"><g><g id="change1_1"><path d="M105.54,171.96h-93.2C6.63,171.96,2,167.33,2,161.61V12.35C2,6.63,6.63,2,12.35,2h93.2 c5.71,0,10.35,4.63,10.35,10.35v149.27C115.89,167.33,111.26,171.96,105.54,171.96z" fill="#ff7222"/></g><g id="change2_4"><path d="M105.54,173.96h-93.2C5.54,173.96,0,168.42,0,161.61V12.35C0,5.54,5.54,0,12.35,0h93.2c6.81,0,12.35,5.54,12.35,12.35 v149.27C117.89,168.42,112.35,173.96,105.54,173.96z M12.35,4C7.74,4,4,7.74,4,12.35v149.27c0,4.6,3.74,8.35,8.35,8.35h93.2 c4.6,0,8.35-3.74,8.35-8.35V12.35c0-4.6-3.74-8.35-8.35-8.35H12.35z" fill="inherit"/></g></g><g><g id="change3_1"><path d="M13.69 20.6H104.53999999999999V148.7H13.69z" fill="#ff7222"/></g><g id="change2_1"><path d="M104.54,150.7H13.69c-1.1,0-2-0.9-2-2V20.6c0-1.1,0.9-2,2-2h90.85c1.1,0,2,0.9,2,2v128.1 C106.54,149.8,105.64,150.7,104.54,150.7z M15.69,146.7h86.85V22.6H15.69V146.7z" fill="inherit"/></g></g><g id="change2_5"><path d="M70.65,14.82H47.57c-1.1,0-2-0.9-2-2s0.9-2,2-2h23.08c1.1,0,2,0.9,2,2S71.76,14.82,70.65,14.82z" fill="inherit"/></g><g id="change2_3"><path d="M59.85,9.55h-1.82c-1.1,0-2-0.9-2-2s0.9-2,2-2h1.82c1.1,0,2,0.9,2,2S60.96,9.55,59.85,9.55z" fill="inherit"/></g><g><g id="change3_2"><ellipse cx="58.95" cy="160.95" fill="#ff7222" rx="4.81" ry="5.07"/></g><g id="change2_2"><path d="M58.95,168.02c-3.75,0-6.81-3.17-6.81-7.07c0-3.9,3.05-7.07,6.81-7.07s6.81,3.17,6.81,7.07 C65.75,164.85,62.7,168.02,58.95,168.02z M58.95,157.88c-1.55,0-2.81,1.38-2.81,3.07s1.26,3.07,2.81,3.07 c1.55,0,2.81-1.38,2.81-3.07S60.49,157.88,58.95,157.88z" fill="inherit"/></g></g></svg>