<?xml version="1.0" encoding="UTF-8"?><svg xmlns="http://www.w3.org/2000/svg" xmlns:xlink="http://www.w3.org/1999/xlink" height="283.2" preserveAspectRatio="xMidYMid meet" version="1.0" viewBox="-0.3 -6.9 346.5 283.2" width="346.5" zoomAndPan="magnify"><g><g><g id="change1_3"><path d="M291.49,244.21c-1.55,3.53-4.67,6.13-8.31,7.37c-19.45,6.57-33.92,4.08-42.75,0.74 c-5.92-2.25-9.73-7.97-9.64-14.3c0.47-33.04-10.59-66.44-19.28-87.44c-12.42,3.99-26.1,5.02-39.95,2.39 c-1.37-0.26-2.72-0.55-4.05-0.88c-17.63,52.47-44.78,84.44-44.78,84.44s33,23.13,21.57,35.37c-4.1,4.4-12.16,1.7-16.09,0.13 c-19.9-7.98-24.9-17.84-29.41-26.41c-2.95-5.6-2.02-12.41,2.25-17.08c24.58-26.99,38.9-63.65,45.62-84.66 c-28.28-15.95-44.68-47.81-38.48-80.42c7.85-41.29,48.94-68.16,91.77-60.02c42.83,8.14,71.2,48.21,63.35,89.5 c-3.84,20.22-15.66,36.99-31.75,47.85c19.93,49.13,20.73,88.85,20.73,88.85S299.34,226.39,291.49,244.21z" fill="#4A66AF"/></g><g id="change2_7"><path d="M137.97,276.31c-2.95,0-6.45-0.81-10.48-2.42c-20.34-8.15-25.84-18.61-30.26-27.01l-0.17-0.32 c-3.31-6.29-2.29-14.07,2.54-19.36c23.99-26.34,38.15-62.3,44.7-82.39c-28.88-17.05-44.13-49.68-38.04-81.72 c8.04-42.31,50.26-69.94,94.11-61.61c21.23,4.04,39.67,15.8,51.94,33.13c12.28,17.35,16.9,38.2,13,58.71 c-3.71,19.54-14.79,36.6-31.27,48.22c16.75,41.95,19.7,77.26,20.19,86c7.76-0.37,32.37-0.81,38.63,8.1 c1.29,1.84,2.42,4.95,0.48,9.37l0,0c-1.71,3.9-5.17,6.99-9.5,8.46c-20.07,6.78-35.06,4.13-44.1,0.72 c-6.65-2.52-11.04-9.03-10.93-16.2c0.45-31.47-9.61-63.28-18.44-84.96c-12.59,3.73-26.09,4.39-39.17,1.91 c-0.83-0.16-1.62-0.32-2.36-0.48c-15.3,44.61-37.54,74.52-43.21,81.7c5.47,4.09,21.86,17.24,23.04,28.43 c0.35,3.34-0.62,6.27-2.87,8.68C143.88,275.3,141.27,276.31,137.97,276.31z M184.68,4c-35.94,0-67.79,24.53-74.51,59.84 c-5.87,30.87,9.2,62.34,37.5,78.31l1.42,0.8l-0.5,1.55c-6.41,20.05-20.93,57.81-46.05,85.4c-3.7,4.05-4.48,10-1.96,14.8l0.17,0.32 c4.33,8.23,9.24,17.56,28.21,25.16c6.77,2.71,11.58,2.84,13.88,0.36c1.45-1.56,2.05-3.37,1.82-5.54 c-0.98-9.42-16.99-22.56-23.08-26.83l-1.79-1.26l1.42-1.67c0.27-0.32,27.12-32.33,44.41-83.79l0.59-1.75l1.79,0.45 c1.19,0.3,2.48,0.58,3.93,0.86c13.03,2.48,26.5,1.67,38.96-2.33l1.75-0.56l0.7,1.7c9.12,22.05,19.9,55.25,19.43,88.23 c-0.08,5.5,3.27,10.48,8.35,12.4c8.43,3.18,22.45,5.64,41.4-0.76c3.26-1.11,5.86-3.4,7.12-6.27l0,0c1.29-2.94,0.57-4.53-0.09-5.46 c-2.3-3.27-9.54-5.49-20.38-6.24c-8.66-0.6-16.66-0.06-16.74-0.05l-2.09,0.15l-0.04-2.1c-0.01-0.39-1.04-39.97-20.58-88.14 l-0.61-1.5l1.34-0.91c16.32-11.02,27.29-27.56,30.91-46.57c3.69-19.43-0.69-39.2-12.34-55.65 c-11.66-16.48-29.22-27.67-49.42-31.51C194.6,4.46,189.6,4,184.68,4z" fill="inherit"/></g></g></g><g><g><g><g><g id="change1_4"><path d="M239.82 54.08L258.98 68.8 275.25 74.36 288.96 67.13 299.3 54.03 297.81 48.15 297.36 35.53 291.79 23.97 295.85 18.39 303.49 18.54 306.37 25.57 309.57 11.99 313.95 3.34 321.43 4.93 324.14 7.42 327.57 3.94 334.75 6.33 335.76 10.38 332.73 15.88 335.76 14.68 340.87 17.71 341.29 23.88 341.29 23.88 342.59 28.55 343.02 34.68 333.72 44.92 329.26 50.9 319.46 59.63 313.12 67.51 300.55 80.83 288.17 87.81 272.73 90.02 256.66 85.84 246.14 79.55 230.73 66.81 229.9 54.76z" fill="#4A66AF"/></g></g></g></g><g><g><g><g id="change2_6"><path d="M326.17,31.94c-0.45,0.11-0.93,0.07-1.37-0.15c-0.99-0.49-1.39-1.69-0.9-2.68l9.03-18.09 c0.47-0.94,0.53-1.99,0.16-2.98c-0.36-0.98-1.09-1.75-2.05-2.16c-0.96-0.41-2.03-0.41-2.98,0.02c-0.96,0.42-1.68,1.2-2.03,2.19 l-1.97,5.56c-0.37,1.04-1.51,1.59-2.55,1.22c-1.04-0.37-1.59-1.51-1.22-2.55l1.97-5.56c0.71-2.01,2.24-3.66,4.19-4.52 c1.95-0.86,4.2-0.87,6.16-0.03c1.96,0.84,3.5,2.46,4.24,4.46c0.73,2,0.61,4.24-0.34,6.14l-9.03,18.09 C327.21,31.44,326.72,31.8,326.17,31.94z" fill="inherit"/></g></g></g></g><g><g><g><g id="change2_2"><path d="M330.83,39.14c-0.53,0.13-1.1,0.05-1.59-0.28c-0.92-0.61-1.17-1.85-0.56-2.77l10.01-15.06 c0.81-1.22,0.57-2.83-0.56-3.75c-0.67-0.55-1.54-0.76-2.38-0.58c-0.84,0.18-1.55,0.73-1.94,1.5l-1.34,2.69 c-0.49,0.99-1.7,1.39-2.68,0.9c-0.99-0.49-1.39-1.69-0.9-2.68l1.34-2.69c0.93-1.87,2.62-3.19,4.68-3.63 c2.04-0.44,4.14,0.07,5.75,1.39c2.73,2.23,3.31,6.13,1.36,9.06l-10.01,15.06C331.72,38.74,331.3,39.03,330.83,39.14z" fill="inherit"/></g></g></g></g><g><g id="change2_4"><path d="M340.63,22c0.15,0.07,0.28,0.15,0.41,0.26l1.83,1.46c1.74,1.39,2.83,3.38,3.07,5.6c0.24,2.22-0.41,4.39-1.82,6.12 l-9.78,11.99c-0.91,1.91-6.72,13.48-15.78,15.27c-2.61,4.72-15.22,25.44-37.15,28.92c-16.52,2.62-34.05-5.25-52.11-23.4 c-0.78-0.78-0.78-2.05,0.01-2.83c0.78-0.78,2.05-0.78,2.83,0.01c17.1,17.18,33.46,24.67,48.62,22.27 c22.22-3.52,34.6-27.46,34.72-27.7c0.31-0.6,0.9-1.01,1.57-1.09c8.02-0.85,13.7-13.22,13.76-13.34c0.07-0.16,0.16-0.31,0.27-0.44 l9.93-12.19c0.73-0.9,1.06-2.02,0.94-3.17c-0.12-1.15-0.69-2.18-1.59-2.9l-1.83-1.46c-0.86-0.69-1-1.95-0.31-2.81 C338.82,21.84,339.82,21.63,340.63,22z" fill="inherit"/></g></g><g><g id="change2_1"><path d="M320.39,2.23c1.57,0.72,2.85,1.93,3.67,3.48c1.02,1.92,1.21,4.12,0.53,6.19l-5.9,17.98c-0.34,1.05-1.47,1.62-2.52,1.28 c-1.05-0.34-1.62-1.47-1.28-2.52l5.9-17.98c0.34-1.02,0.24-2.11-0.26-3.07c-0.51-0.95-1.36-1.64-2.39-1.94 c-1.05-0.3-2.15-0.16-3.09,0.4s-1.59,1.46-1.82,2.53l-4.83,21.87c-0.2,0.89-0.97,1.53-1.88,1.57c-0.91,0.03-1.73-0.55-1.99-1.42 l-2.6-8.63c-0.32-1.05-1.03-1.92-2-2.43c-0.97-0.51-2.09-0.62-3.14-0.29c-1.14,0.36-2.07,1.2-2.54,2.3s-0.43,2.35,0.1,3.42 l4.81,9.67c0.24,0.48,0.27,1.04,0.1,1.54c-0.03,0.1-3.5,10.51,1.87,15.6c0.65,0.61,0.81,1.58,0.4,2.38 c-0.47,0.89-11.57,21.86-27.31,21.35c-15.29-0.5-32.16-19.84-32.97-20.68c-0.77-0.79-0.75-2.06,0.05-2.83 c0.79-0.77,2.06-0.74,2.83,0.05c0.19,0.19,16.55,19.02,30.22,19.46c11.28,0.36,20.43-13.72,22.95-17.99 c-4.9-6.01-2.87-15.03-2.07-17.81l-4.45-8.95c-1.06-2.12-1.13-4.59-0.2-6.77c0.93-2.18,2.76-3.84,5.02-4.55 c2.08-0.65,4.28-0.45,6.21,0.57c1.93,1.02,3.33,2.73,3.96,4.81l0.39,1.3l3.18-14.39c0.47-2.13,1.81-3.98,3.68-5.1 c1.87-1.11,4.14-1.41,6.24-0.81C319.63,1.92,320.02,2.06,320.39,2.23z" fill="inherit"/></g></g><g><g><g><g id="change1_2"><path d="M109.04 79.8L93.6 98.4 78.97 107.42 64 103.4 51.02 92.92 51.17 86.85 48.82 74.44 51.69 61.93 46.5 57.39 39.08 59.23 37.83 66.72 31.7 54.19 25.52 46.72 18.57 49.92 16.48 52.95 12.37 50.32 5.89 54.23 5.81 58.41 9.97 63.1 6.76 62.6 2.44 66.68 3.4 72.79 3.4 72.79 3.16 77.64 4.1 83.71 15.43 91.64 21.1 96.48 32.6 102.83 40.52 109.12 55.73 119.33 69.34 123.39 84.89 122.14 99.63 114.5 108.5 106.04 120.72 90.21 118.86 78.28z" fill="#4A66AF"/></g></g></g></g><g><g><g><g id="change2_9"><path d="M19.93,77.31c0.46,0.01,0.92-0.14,1.31-0.45c0.86-0.7,0.98-1.96,0.28-2.81L8.71,58.4c-0.66-0.81-0.95-1.83-0.82-2.87 c0.13-1.04,0.68-1.95,1.52-2.56c0.85-0.62,1.89-0.85,2.91-0.64c1.03,0.2,1.9,0.8,2.47,1.68L17.94,59 c0.59,0.93,1.82,1.21,2.76,0.62c0.93-0.59,1.21-1.82,0.62-2.76l-3.15-4.99c-1.14-1.8-2.99-3.07-5.09-3.48 c-2.1-0.4-4.29,0.08-6.02,1.33c-1.73,1.25-2.87,3.17-3.15,5.28c-0.27,2.11,0.34,4.27,1.69,5.92l12.81,15.65 C18.8,77.05,19.36,77.3,19.93,77.31z" fill="inherit"/></g></g></g></g><g><g><g><g id="change2_3"><path d="M16.98,85.37c0.54,0.01,1.09-0.2,1.49-0.62c0.76-0.8,0.73-2.07-0.07-2.83L5.3,69.45c-1.06-1.01-1.18-2.63-0.28-3.79 c0.53-0.68,1.33-1.08,2.2-1.09c0.86-0.01,1.68,0.37,2.22,1.04l1.9,2.32c0.7,0.85,1.96,0.98,2.81,0.28 c0.86-0.7,0.98-1.96,0.28-2.81l-1.9-2.32c-1.32-1.62-3.26-2.53-5.37-2.5c-2.09,0.03-4.02,0.98-5.3,2.63 c-2.17,2.78-1.87,6.71,0.68,9.14l13.09,12.47C16.01,85.18,16.49,85.36,16.98,85.37z" fill="inherit"/></g></g></g></g><g><g id="change2_5"><path d="M3.62,70.82c-0.13,0.1-0.24,0.21-0.35,0.34l-1.46,1.83c-1.39,1.74-2.02,3.92-1.76,6.14c0.26,2.22,1.37,4.19,3.13,5.57 l12.19,9.53c1.31,1.67,9.53,11.66,18.77,11.4c3.59,4.03,20.47,21.44,42.63,19.99c16.69-1.09,32.04-12.65,45.65-34.35 c0.59-0.94,0.3-2.17-0.63-2.76c-0.94-0.59-2.17-0.31-2.76,0.63c-12.87,20.54-27.17,31.46-42.49,32.48 c-22.45,1.49-39.82-19.13-39.99-19.34c-0.43-0.52-1.1-0.79-1.77-0.71c-8.01,0.94-16.28-9.86-16.37-9.97 c-0.1-0.14-0.23-0.26-0.36-0.37L5.65,81.54c-0.91-0.71-1.48-1.74-1.62-2.88c-0.13-1.15,0.19-2.28,0.91-3.18l1.46-1.83 c0.69-0.86,0.55-2.12-0.31-2.81C5.35,70.26,4.33,70.27,3.62,70.82z" fill="inherit"/></g></g><g><g id="change2_8"><path d="M18.99,47.06c-1.37,1.05-2.35,2.51-2.81,4.21c-0.57,2.1-0.27,4.29,0.85,6.15l9.73,16.23c0.57,0.95,1.8,1.26,2.74,0.69 c0.94-0.57,1.25-1.8,0.69-2.74l-9.73-16.23c-0.55-0.93-0.7-2.01-0.42-3.05c0.28-1.04,0.96-1.9,1.91-2.42 c0.96-0.53,2.06-0.63,3.1-0.29c1.04,0.34,1.87,1.07,2.34,2.06l9.55,20.26c0.39,0.82,1.28,1.28,2.18,1.11 c0.9-0.17,1.56-0.92,1.63-1.83l0.63-8.99c0.08-1.1,0.58-2.1,1.42-2.82c0.83-0.71,1.9-1.06,3-0.97c1.19,0.1,2.28,0.71,2.98,1.68 c0.7,0.97,0.94,2.2,0.66,3.36l-2.55,10.49c-0.13,0.52-0.04,1.07,0.24,1.53c0.06,0.09,5.74,9.47,1.63,15.63 c-0.5,0.74-0.44,1.72,0.14,2.4c0.65,0.77,16.12,18.75,31.35,14.78c14.81-3.87,27.88-25.93,28.49-26.93 c0.57-0.94,0.27-2.17-0.67-2.75c-0.94-0.57-2.17-0.27-2.75,0.67c-0.14,0.23-12.84,21.68-26.08,25.13 c-10.92,2.85-22.96-8.86-26.36-12.47c3.45-6.95-0.53-15.3-1.92-17.83l2.36-9.71c0.56-2.3,0.09-4.72-1.3-6.65 c-1.39-1.92-3.54-3.13-5.9-3.33c-2.17-0.18-4.27,0.5-5.93,1.93c-1.65,1.42-2.65,3.4-2.8,5.57l-0.09,1.35l-6.29-13.33 c-0.93-1.97-2.65-3.49-4.72-4.16c-2.07-0.67-4.35-0.46-6.26,0.58C19.66,46.59,19.32,46.81,18.99,47.06z" fill="inherit"/></g></g><g id="change1_1"><path d="M113.9,103.25c0,0-1.09-3.13-4.02-1.41c-2.92,1.71-0.86-12.83-0.86-12.83l10.76-8.24l9.74,9.34 L113.9,103.25z" fill="#4A66AF"/></g><g id="change1_5"><path d="M256.14,77.49c6.16,5.21,10.75,9.43,9.38,9.36c-3.56-0.17-3.71,3.19-3.71,3.19l-25.32,2.07L221.79,67 l10.64-8.72c0,0,5.42,4.25,11.89,9.48l-8.88-14.25l8.9-7.28l17.27,20.79c0,0-0.24,5.23,4.37,6.63 C269.01,74.58,261.59,76.37,256.14,77.49z" fill="#4A66AF"/></g></g></svg>