<?xml version="1.0" encoding="UTF-8"?><svg xmlns="http://www.w3.org/2000/svg" xmlns:xlink="http://www.w3.org/1999/xlink" height="296.6" preserveAspectRatio="xMidYMid meet" version="1.0" viewBox="0.0 0.0 197.3 296.6" width="197.3" zoomAndPan="magnify"><g><g><g id="change1_1"><path d="M120.06,192.86v73.63c27.29,2.44,46.92,17.75,30.66,24.75c-2.17,0.93-4.52,1.49-6.9,1.74 c-14.94,1.59-28.12-0.89-36.52-3.24c-5.7-1.6-9.58-6.33-9.58-11.69c0,5.36-3.89,10.09-9.59,11.69c-8.4,2.35-21.58,4.83-36.52,3.24 c-2.38-0.25-4.73-0.81-6.9-1.74c-16.25-7,3.37-22.31,30.66-24.75v-74.07C33.24,182.02,2,143.97,2,98.62C2,45.26,45.26,2,98.63,2 c53.36,0,96.62,43.26,96.62,96.62C195.25,144.62,163.11,183.11,120.06,192.86z" fill="#FDD20D"/></g><g id="change2_4"><path d="M134.23,295.48c-11.14,0-20.78-1.95-27.47-3.82c-3.95-1.11-7.13-3.51-9.04-6.62c-1.92,3.1-5.09,5.5-9.05,6.62 c-8.59,2.4-22.02,4.92-37.27,3.3c-2.7-0.28-5.21-0.92-7.48-1.89c-6.96-3-7.38-7.24-7.02-9.51c1.36-8.48,17.53-16.78,36.47-18.89 v-70.71C30.09,182.57,0,143.58,0,98.62C0,44.24,44.24,0,98.63,0c54.38,0,98.62,44.24,98.62,98.62c0,22.5-7.78,44.51-21.9,61.97 c-13.58,16.79-32.45,28.77-53.29,33.85v70.24c18.94,2.11,35.12,10.41,36.47,18.89c0.36,2.27-0.07,6.51-7.02,9.51 c-2.27,0.97-4.79,1.61-7.48,1.89C140.66,295.33,137.38,295.48,134.23,295.48z M99.72,278.05c0,4.48,3.26,8.4,8.12,9.76 c8.25,2.31,21.15,4.74,35.77,3.18c2.3-0.24,4.43-0.78,6.32-1.59c3.4-1.47,4.97-3.22,4.65-5.2c-0.86-5.34-14.47-13.91-34.7-15.72 c-1.03-0.09-1.82-0.96-1.82-1.99v-73.63c0-0.93,0.65-1.74,1.56-1.95c20.58-4.66,39.27-16.32,52.62-32.83 c13.55-16.75,21.01-37.87,21.01-59.46C193.25,46.45,150.8,4,98.63,4C46.45,4,4,46.45,4,98.62c0,43.64,29.55,81.42,71.85,91.86 c0.89,0.22,1.52,1.02,1.52,1.94v74.07c0,1.04-0.79,1.9-1.82,1.99c-20.23,1.81-33.84,10.37-34.7,15.72 c-0.32,1.99,1.25,3.74,4.65,5.2c1.89,0.81,4.02,1.35,6.32,1.59c14.62,1.56,27.52-0.87,35.77-3.18c4.86-1.36,8.13-5.29,8.13-9.76 c0-1.1,0.9-2,2-2S99.72,276.95,99.72,278.05z" fill="inherit"/></g></g></g><g><g id="change2_3"><path d="M97.72,280.76c-1.1,0-2-0.9-2-2v-85.73c0-1.1,0.9-2,2-2s2,0.9,2,2v85.73C99.72,279.86,98.82,280.76,97.72,280.76z" fill="inherit"/></g><g id="change2_1"><path d="M102.49,194.82h-9.53c-1.1,0-2-0.9-2-2s0.9-2,2-2h9.53c1.1,0,2,0.9,2,2S103.59,194.82,102.49,194.82z" fill="inherit"/></g><g><path d="M137.01,115.42c1.02-0.42,2.19,0.06,2.61,1.08c0.29,0.7,0.15,1.47-0.3,2.02l10.7,4.38 c-1.45-7.88-6.01-14.58-12.54-18.44c-1.13-0.67-2.31-1.25-3.53-1.75c-6.61-2.7-13.88-2.69-20.48,0.01l-6.41,2.62l27.32,11.17 L137.01,115.42z" fill="none"/></g><g><path d="M90.1,102.71c-6.6-2.7-13.88-2.7-20.48-0.01c-1.21,0.5-2.4,1.08-3.53,1.75 c-6.54,3.86-11.09,10.57-12.54,18.44l10.27-4.2l-5.11-2.13c-1.02-0.42-1.5-1.59-1.08-2.61c0.42-1.02,1.6-1.5,2.61-1.08l8.83,3.67 l27.43-11.22L90.1,102.71z" fill="none"/></g><g><path d="M101.78 107.49L74.31 118.73 101.68 130.11 129.15 118.69z" fill="none"/></g><g id="change2_5"><path d="M166.55,110.5c-0.95-0.56-2.18-0.23-2.73,0.72c-0.56,0.96-0.23,2.18,0.72,2.74c8.84,5.15,12.25,16.38,7.75,25.57 c-4.55,9.3-15.59,13.46-25.15,9.49l-40.25-16.74l27.51-11.45l18.73,7.66c0.25,0.1,0.51,0.15,0.76,0.15c0.79,0,1.53-0.47,1.85-1.24 c0.42-1.02-0.07-2.19-1.09-2.61l-0.25-0.1v-0.01l-0.37-2.11c-1.58-9.19-6.87-17.04-14.52-21.56c-1.29-0.76-2.65-1.44-4.05-2.01 c-7.58-3.09-15.92-3.09-23.5,0.01l-10.18,4.16l-10.17-4.16c-7.58-3.1-15.93-3.1-23.51-0.01c-1.39,0.57-2.75,1.25-4.04,2.01 c-7.65,4.52-12.94,12.37-14.53,21.56l-0.36,2.11v0.01l-0.25,0.1c-1.02,0.42-1.51,1.59-1.09,2.61c0.31,0.77,1.06,1.24,1.85,1.24 c0.25,0,0.51-0.05,0.75-0.15l18.63-7.61l5.25-2.15l27.47-11.24l5.29-2.16l6.4-2.62c6.6-2.7,13.88-2.7,20.48,0 c1.22,0.49,2.4,1.08,3.53,1.75c6.53,3.85,11.09,10.56,12.54,18.44l-10.7-4.38c0.45-0.55,0.59-1.32,0.3-2.02 c-0.42-1.02-1.59-1.51-2.61-1.08l-2.62,1.09l-5.24,2.18l-27.47,11.42l-5.21,2.17l-46.36,19.28c-9.56,3.97-20.61-0.19-25.15-9.49 c-4.5-9.19-1.1-20.43,7.75-25.57c0.95-0.56,1.28-1.78,0.72-2.74c-0.55-0.95-1.78-1.28-2.73-0.72 c-10.65,6.2-14.75,19.72-9.34,30.79c4.08,8.32,12.48,13.23,21.25,13.23c3.02,0,6.09-0.58,9.03-1.81l50.04-20.81l43.93,18.27 c2.94,1.23,6.01,1.81,9.03,1.81c8.77,0,17.17-4.91,21.25-13.23C181.3,130.22,177.2,116.7,166.55,110.5z M69.07,116.55l-5.25,2.15 l-10.27,4.2c1.45-7.88,6-14.59,12.54-18.44c1.13-0.67,2.31-1.26,3.53-1.75c6.6-2.7,13.87-2.7,20.48,0l6.4,2.62L69.07,116.55z" fill="inherit"/></g><g id="change2_2"><path d="M50.8,126.99c1.09,0.18,2.12-0.54,2.31-1.63l0.36-2.1c0.02-0.12,0.05-0.23,0.07-0.35l-4.38,1.79 C48.99,125.77,49.72,126.8,50.8,126.99z" fill="inherit"/></g></g></svg>