<?xml version="1.0" encoding="UTF-8"?><svg xmlns="http://www.w3.org/2000/svg" xmlns:xlink="http://www.w3.org/1999/xlink" height="1033.6" preserveAspectRatio="xMidYMid meet" version="1.0" viewBox="328.7 624.9 1795.1 1033.6" width="1795.1" zoomAndPan="magnify"><defs><clipPath id="a"><path d="M 367 805 L 380 805 L 380 880 L 367 880 Z M 367 805"/></clipPath><clipPath id="b"><path d="M 1986.148438 1217.578125 C 1981.070312 1151.621094 2046.761719 950.671875 2007.410156 880.570312 C 1863.800781 624.859375 1379.28125 1089.429688 1226.261719 1232.378906 C 1073.199219 1089.429688 588.714844 624.859375 445.109375 880.570312 C 405.753906 950.671875 471.441406 1151.621094 466.347656 1217.578125 C 461.519531 1280.449219 328.726562 1413.789062 378.507812 1520.640625 C 435.640625 1643.28125 577.285156 1658.441406 725.015625 1641.820312 C 917.964844 1620.109375 1088.730469 1510.390625 1226.261719 1379.058594 C 1363.78125 1510.390625 1534.519531 1620.109375 1727.480469 1641.820312 C 1875.230469 1658.441406 2016.851562 1643.28125 2073.988281 1520.640625 C 2123.789062 1413.789062 1990.988281 1280.449219 1986.148438 1217.578125 Z M 1986.148438 1217.578125"/></clipPath><clipPath id="c"><path d="M 635 805 L 727 805 L 727 880 L 635 880 Z M 635 805"/></clipPath><clipPath id="d"><path d="M 1986.148438 1217.578125 C 1981.070312 1151.621094 2046.761719 950.671875 2007.410156 880.570312 C 1863.800781 624.859375 1379.28125 1089.429688 1226.261719 1232.378906 C 1073.199219 1089.429688 588.714844 624.859375 445.109375 880.570312 C 405.753906 950.671875 471.441406 1151.621094 466.347656 1217.578125 C 461.519531 1280.449219 328.726562 1413.789062 378.507812 1520.640625 C 435.640625 1643.28125 577.285156 1658.441406 725.015625 1641.820312 C 917.964844 1620.109375 1088.730469 1510.390625 1226.261719 1379.058594 C 1363.78125 1510.390625 1534.519531 1620.109375 1727.480469 1641.820312 C 1875.230469 1658.441406 2016.851562 1643.28125 2073.988281 1520.640625 C 2123.789062 1413.789062 1990.988281 1280.449219 1986.148438 1217.578125 Z M 1986.148438 1217.578125"/></clipPath><clipPath id="e"><path d="M 983 805 L 1075 805 L 1075 880 L 983 880 Z M 983 805"/></clipPath><clipPath id="f"><path d="M 1986.148438 1217.578125 C 1981.070312 1151.621094 2046.761719 950.671875 2007.410156 880.570312 C 1863.800781 624.859375 1379.28125 1089.429688 1226.261719 1232.378906 C 1073.199219 1089.429688 588.714844 624.859375 445.109375 880.570312 C 405.753906 950.671875 471.441406 1151.621094 466.347656 1217.578125 C 461.519531 1280.449219 328.726562 1413.789062 378.507812 1520.640625 C 435.640625 1643.28125 577.285156 1658.441406 725.015625 1641.820312 C 917.964844 1620.109375 1088.730469 1510.390625 1226.261719 1379.058594 C 1363.78125 1510.390625 1534.519531 1620.109375 1727.480469 1641.820312 C 1875.230469 1658.441406 2016.851562 1643.28125 2073.988281 1520.640625 C 2123.789062 1413.789062 1990.988281 1280.449219 1986.148438 1217.578125 Z M 1986.148438 1217.578125"/></clipPath><clipPath id="g"><path d="M 1330 805 L 1422 805 L 1422 880 L 1330 880 Z M 1330 805"/></clipPath><clipPath id="h"><path d="M 1986.148438 1217.578125 C 1981.070312 1151.621094 2046.761719 950.671875 2007.410156 880.570312 C 1863.800781 624.859375 1379.28125 1089.429688 1226.261719 1232.378906 C 1073.199219 1089.429688 588.714844 624.859375 445.109375 880.570312 C 405.753906 950.671875 471.441406 1151.621094 466.347656 1217.578125 C 461.519531 1280.449219 328.726562 1413.789062 378.507812 1520.640625 C 435.640625 1643.28125 577.285156 1658.441406 725.015625 1641.820312 C 917.964844 1620.109375 1088.730469 1510.390625 1226.261719 1379.058594 C 1363.78125 1510.390625 1534.519531 1620.109375 1727.480469 1641.820312 C 1875.230469 1658.441406 2016.851562 1643.28125 2073.988281 1520.640625 C 2123.789062 1413.789062 1990.988281 1280.449219 1986.148438 1217.578125 Z M 1986.148438 1217.578125"/></clipPath><clipPath id="i"><path d="M 1678 805 L 1770 805 L 1770 880 L 1678 880 Z M 1678 805"/></clipPath><clipPath id="j"><path d="M 1986.148438 1217.578125 C 1981.070312 1151.621094 2046.761719 950.671875 2007.410156 880.570312 C 1863.800781 624.859375 1379.28125 1089.429688 1226.261719 1232.378906 C 1073.199219 1089.429688 588.714844 624.859375 445.109375 880.570312 C 405.753906 950.671875 471.441406 1151.621094 466.347656 1217.578125 C 461.519531 1280.449219 328.726562 1413.789062 378.507812 1520.640625 C 435.640625 1643.28125 577.285156 1658.441406 725.015625 1641.820312 C 917.964844 1620.109375 1088.730469 1510.390625 1226.261719 1379.058594 C 1363.78125 1510.390625 1534.519531 1620.109375 1727.480469 1641.820312 C 1875.230469 1658.441406 2016.851562 1643.28125 2073.988281 1520.640625 C 2123.789062 1413.789062 1990.988281 1280.449219 1986.148438 1217.578125 Z M 1986.148438 1217.578125"/></clipPath><clipPath id="k"><path d="M 2025 805 L 2086 805 L 2086 880 L 2025 880 Z M 2025 805"/></clipPath><clipPath id="l"><path d="M 1986.148438 1217.578125 C 1981.070312 1151.621094 2046.761719 950.671875 2007.410156 880.570312 C 1863.800781 624.859375 1379.28125 1089.429688 1226.261719 1232.378906 C 1073.199219 1089.429688 588.714844 624.859375 445.109375 880.570312 C 405.753906 950.671875 471.441406 1151.621094 466.347656 1217.578125 C 461.519531 1280.449219 328.726562 1413.789062 378.507812 1520.640625 C 435.640625 1643.28125 577.285156 1658.441406 725.015625 1641.820312 C 917.964844 1620.109375 1088.730469 1510.390625 1226.261719 1379.058594 C 1363.78125 1510.390625 1534.519531 1620.109375 1727.480469 1641.820312 C 1875.230469 1658.441406 2016.851562 1643.28125 2073.988281 1520.640625 C 2123.789062 1413.789062 1990.988281 1280.449219 1986.148438 1217.578125 Z M 1986.148438 1217.578125"/></clipPath><clipPath id="m"><path d="M 479 962 L 571 962 L 571 1054 L 479 1054 Z M 479 962"/></clipPath><clipPath id="n"><path d="M 1986.148438 1217.578125 C 1981.070312 1151.621094 2046.761719 950.671875 2007.410156 880.570312 C 1863.800781 624.859375 1379.28125 1089.429688 1226.261719 1232.378906 C 1073.199219 1089.429688 588.714844 624.859375 445.109375 880.570312 C 405.753906 950.671875 471.441406 1151.621094 466.347656 1217.578125 C 461.519531 1280.449219 328.726562 1413.789062 378.507812 1520.640625 C 435.640625 1643.28125 577.285156 1658.441406 725.015625 1641.820312 C 917.964844 1620.109375 1088.730469 1510.390625 1226.261719 1379.058594 C 1363.78125 1510.390625 1534.519531 1620.109375 1727.480469 1641.820312 C 1875.230469 1658.441406 2016.851562 1643.28125 2073.988281 1520.640625 C 2123.789062 1413.789062 1990.988281 1280.449219 1986.148438 1217.578125 Z M 1986.148438 1217.578125"/></clipPath><clipPath id="o"><path d="M 826 962 L 918 962 L 918 1054 L 826 1054 Z M 826 962"/></clipPath><clipPath id="p"><path d="M 1986.148438 1217.578125 C 1981.070312 1151.621094 2046.761719 950.671875 2007.410156 880.570312 C 1863.800781 624.859375 1379.28125 1089.429688 1226.261719 1232.378906 C 1073.199219 1089.429688 588.714844 624.859375 445.109375 880.570312 C 405.753906 950.671875 471.441406 1151.621094 466.347656 1217.578125 C 461.519531 1280.449219 328.726562 1413.789062 378.507812 1520.640625 C 435.640625 1643.28125 577.285156 1658.441406 725.015625 1641.820312 C 917.964844 1620.109375 1088.730469 1510.390625 1226.261719 1379.058594 C 1363.78125 1510.390625 1534.519531 1620.109375 1727.480469 1641.820312 C 1875.230469 1658.441406 2016.851562 1643.28125 2073.988281 1520.640625 C 2123.789062 1413.789062 1990.988281 1280.449219 1986.148438 1217.578125 Z M 1986.148438 1217.578125"/></clipPath><clipPath id="q"><path d="M 1174 962 L 1266 962 L 1266 1054 L 1174 1054 Z M 1174 962"/></clipPath><clipPath id="r"><path d="M 1986.148438 1217.578125 C 1981.070312 1151.621094 2046.761719 950.671875 2007.410156 880.570312 C 1863.800781 624.859375 1379.28125 1089.429688 1226.261719 1232.378906 C 1073.199219 1089.429688 588.714844 624.859375 445.109375 880.570312 C 405.753906 950.671875 471.441406 1151.621094 466.347656 1217.578125 C 461.519531 1280.449219 328.726562 1413.789062 378.507812 1520.640625 C 435.640625 1643.28125 577.285156 1658.441406 725.015625 1641.820312 C 917.964844 1620.109375 1088.730469 1510.390625 1226.261719 1379.058594 C 1363.78125 1510.390625 1534.519531 1620.109375 1727.480469 1641.820312 C 1875.230469 1658.441406 2016.851562 1643.28125 2073.988281 1520.640625 C 2123.789062 1413.789062 1990.988281 1280.449219 1986.148438 1217.578125 Z M 1986.148438 1217.578125"/></clipPath><clipPath id="s"><path d="M 1521 962 L 1613 962 L 1613 1054 L 1521 1054 Z M 1521 962"/></clipPath><clipPath id="t"><path d="M 1986.148438 1217.578125 C 1981.070312 1151.621094 2046.761719 950.671875 2007.410156 880.570312 C 1863.800781 624.859375 1379.28125 1089.429688 1226.261719 1232.378906 C 1073.199219 1089.429688 588.714844 624.859375 445.109375 880.570312 C 405.753906 950.671875 471.441406 1151.621094 466.347656 1217.578125 C 461.519531 1280.449219 328.726562 1413.789062 378.507812 1520.640625 C 435.640625 1643.28125 577.285156 1658.441406 725.015625 1641.820312 C 917.964844 1620.109375 1088.730469 1510.390625 1226.261719 1379.058594 C 1363.78125 1510.390625 1534.519531 1620.109375 1727.480469 1641.820312 C 1875.230469 1658.441406 2016.851562 1643.28125 2073.988281 1520.640625 C 2123.789062 1413.789062 1990.988281 1280.449219 1986.148438 1217.578125 Z M 1986.148438 1217.578125"/></clipPath><clipPath id="u"><path d="M 1868 962 L 1961 962 L 1961 1054 L 1868 1054 Z M 1868 962"/></clipPath><clipPath id="v"><path d="M 1986.148438 1217.578125 C 1981.070312 1151.621094 2046.761719 950.671875 2007.410156 880.570312 C 1863.800781 624.859375 1379.28125 1089.429688 1226.261719 1232.378906 C 1073.199219 1089.429688 588.714844 624.859375 445.109375 880.570312 C 405.753906 950.671875 471.441406 1151.621094 466.347656 1217.578125 C 461.519531 1280.449219 328.726562 1413.789062 378.507812 1520.640625 C 435.640625 1643.28125 577.285156 1658.441406 725.015625 1641.820312 C 917.964844 1620.109375 1088.730469 1510.390625 1226.261719 1379.058594 C 1363.78125 1510.390625 1534.519531 1620.109375 1727.480469 1641.820312 C 1875.230469 1658.441406 2016.851562 1643.28125 2073.988281 1520.640625 C 2123.789062 1413.789062 1990.988281 1280.449219 1986.148438 1217.578125 Z M 1986.148438 1217.578125"/></clipPath><clipPath id="w"><path d="M 367 1134 L 380 1134 L 380 1226 L 367 1226 Z M 367 1134"/></clipPath><clipPath id="x"><path d="M 1986.148438 1217.578125 C 1981.070312 1151.621094 2046.761719 950.671875 2007.410156 880.570312 C 1863.800781 624.859375 1379.28125 1089.429688 1226.261719 1232.378906 C 1073.199219 1089.429688 588.714844 624.859375 445.109375 880.570312 C 405.753906 950.671875 471.441406 1151.621094 466.347656 1217.578125 C 461.519531 1280.449219 328.726562 1413.789062 378.507812 1520.640625 C 435.640625 1643.28125 577.285156 1658.441406 725.015625 1641.820312 C 917.964844 1620.109375 1088.730469 1510.390625 1226.261719 1379.058594 C 1363.78125 1510.390625 1534.519531 1620.109375 1727.480469 1641.820312 C 1875.230469 1658.441406 2016.851562 1643.28125 2073.988281 1520.640625 C 2123.789062 1413.789062 1990.988281 1280.449219 1986.148438 1217.578125 Z M 1986.148438 1217.578125"/></clipPath><clipPath id="y"><path d="M 635 1134 L 727 1134 L 727 1226 L 635 1226 Z M 635 1134"/></clipPath><clipPath id="z"><path d="M 1986.148438 1217.578125 C 1981.070312 1151.621094 2046.761719 950.671875 2007.410156 880.570312 C 1863.800781 624.859375 1379.28125 1089.429688 1226.261719 1232.378906 C 1073.199219 1089.429688 588.714844 624.859375 445.109375 880.570312 C 405.753906 950.671875 471.441406 1151.621094 466.347656 1217.578125 C 461.519531 1280.449219 328.726562 1413.789062 378.507812 1520.640625 C 435.640625 1643.28125 577.285156 1658.441406 725.015625 1641.820312 C 917.964844 1620.109375 1088.730469 1510.390625 1226.261719 1379.058594 C 1363.78125 1510.390625 1534.519531 1620.109375 1727.480469 1641.820312 C 1875.230469 1658.441406 2016.851562 1643.28125 2073.988281 1520.640625 C 2123.789062 1413.789062 1990.988281 1280.449219 1986.148438 1217.578125 Z M 1986.148438 1217.578125"/></clipPath><clipPath id="A"><path d="M 983 1134 L 1075 1134 L 1075 1226 L 983 1226 Z M 983 1134"/></clipPath><clipPath id="B"><path d="M 1986.148438 1217.578125 C 1981.070312 1151.621094 2046.761719 950.671875 2007.410156 880.570312 C 1863.800781 624.859375 1379.28125 1089.429688 1226.261719 1232.378906 C 1073.199219 1089.429688 588.714844 624.859375 445.109375 880.570312 C 405.753906 950.671875 471.441406 1151.621094 466.347656 1217.578125 C 461.519531 1280.449219 328.726562 1413.789062 378.507812 1520.640625 C 435.640625 1643.28125 577.285156 1658.441406 725.015625 1641.820312 C 917.964844 1620.109375 1088.730469 1510.390625 1226.261719 1379.058594 C 1363.78125 1510.390625 1534.519531 1620.109375 1727.480469 1641.820312 C 1875.230469 1658.441406 2016.851562 1643.28125 2073.988281 1520.640625 C 2123.789062 1413.789062 1990.988281 1280.449219 1986.148438 1217.578125 Z M 1986.148438 1217.578125"/></clipPath><clipPath id="C"><path d="M 1330 1134 L 1422 1134 L 1422 1226 L 1330 1226 Z M 1330 1134"/></clipPath><clipPath id="D"><path d="M 1986.148438 1217.578125 C 1981.070312 1151.621094 2046.761719 950.671875 2007.410156 880.570312 C 1863.800781 624.859375 1379.28125 1089.429688 1226.261719 1232.378906 C 1073.199219 1089.429688 588.714844 624.859375 445.109375 880.570312 C 405.753906 950.671875 471.441406 1151.621094 466.347656 1217.578125 C 461.519531 1280.449219 328.726562 1413.789062 378.507812 1520.640625 C 435.640625 1643.28125 577.285156 1658.441406 725.015625 1641.820312 C 917.964844 1620.109375 1088.730469 1510.390625 1226.261719 1379.058594 C 1363.78125 1510.390625 1534.519531 1620.109375 1727.480469 1641.820312 C 1875.230469 1658.441406 2016.851562 1643.28125 2073.988281 1520.640625 C 2123.789062 1413.789062 1990.988281 1280.449219 1986.148438 1217.578125 Z M 1986.148438 1217.578125"/></clipPath><clipPath id="E"><path d="M 1678 1134 L 1770 1134 L 1770 1226 L 1678 1226 Z M 1678 1134"/></clipPath><clipPath id="F"><path d="M 1986.148438 1217.578125 C 1981.070312 1151.621094 2046.761719 950.671875 2007.410156 880.570312 C 1863.800781 624.859375 1379.28125 1089.429688 1226.261719 1232.378906 C 1073.199219 1089.429688 588.714844 624.859375 445.109375 880.570312 C 405.753906 950.671875 471.441406 1151.621094 466.347656 1217.578125 C 461.519531 1280.449219 328.726562 1413.789062 378.507812 1520.640625 C 435.640625 1643.28125 577.285156 1658.441406 725.015625 1641.820312 C 917.964844 1620.109375 1088.730469 1510.390625 1226.261719 1379.058594 C 1363.78125 1510.390625 1534.519531 1620.109375 1727.480469 1641.820312 C 1875.230469 1658.441406 2016.851562 1643.28125 2073.988281 1520.640625 C 2123.789062 1413.789062 1990.988281 1280.449219 1986.148438 1217.578125 Z M 1986.148438 1217.578125"/></clipPath><clipPath id="G"><path d="M 2025 1134 L 2086 1134 L 2086 1226 L 2025 1226 Z M 2025 1134"/></clipPath><clipPath id="H"><path d="M 1986.148438 1217.578125 C 1981.070312 1151.621094 2046.761719 950.671875 2007.410156 880.570312 C 1863.800781 624.859375 1379.28125 1089.429688 1226.261719 1232.378906 C 1073.199219 1089.429688 588.714844 624.859375 445.109375 880.570312 C 405.753906 950.671875 471.441406 1151.621094 466.347656 1217.578125 C 461.519531 1280.449219 328.726562 1413.789062 378.507812 1520.640625 C 435.640625 1643.28125 577.285156 1658.441406 725.015625 1641.820312 C 917.964844 1620.109375 1088.730469 1510.390625 1226.261719 1379.058594 C 1363.78125 1510.390625 1534.519531 1620.109375 1727.480469 1641.820312 C 1875.230469 1658.441406 2016.851562 1643.28125 2073.988281 1520.640625 C 2123.789062 1413.789062 1990.988281 1280.449219 1986.148438 1217.578125 Z M 1986.148438 1217.578125"/></clipPath><clipPath id="I"><path d="M 479 1307 L 571 1307 L 571 1399 L 479 1399 Z M 479 1307"/></clipPath><clipPath id="J"><path d="M 1986.148438 1217.578125 C 1981.070312 1151.621094 2046.761719 950.671875 2007.410156 880.570312 C 1863.800781 624.859375 1379.28125 1089.429688 1226.261719 1232.378906 C 1073.199219 1089.429688 588.714844 624.859375 445.109375 880.570312 C 405.753906 950.671875 471.441406 1151.621094 466.347656 1217.578125 C 461.519531 1280.449219 328.726562 1413.789062 378.507812 1520.640625 C 435.640625 1643.28125 577.285156 1658.441406 725.015625 1641.820312 C 917.964844 1620.109375 1088.730469 1510.390625 1226.261719 1379.058594 C 1363.78125 1510.390625 1534.519531 1620.109375 1727.480469 1641.820312 C 1875.230469 1658.441406 2016.851562 1643.28125 2073.988281 1520.640625 C 2123.789062 1413.789062 1990.988281 1280.449219 1986.148438 1217.578125 Z M 1986.148438 1217.578125"/></clipPath><clipPath id="K"><path d="M 826 1307 L 918 1307 L 918 1399 L 826 1399 Z M 826 1307"/></clipPath><clipPath id="L"><path d="M 1986.148438 1217.578125 C 1981.070312 1151.621094 2046.761719 950.671875 2007.410156 880.570312 C 1863.800781 624.859375 1379.28125 1089.429688 1226.261719 1232.378906 C 1073.199219 1089.429688 588.714844 624.859375 445.109375 880.570312 C 405.753906 950.671875 471.441406 1151.621094 466.347656 1217.578125 C 461.519531 1280.449219 328.726562 1413.789062 378.507812 1520.640625 C 435.640625 1643.28125 577.285156 1658.441406 725.015625 1641.820312 C 917.964844 1620.109375 1088.730469 1510.390625 1226.261719 1379.058594 C 1363.78125 1510.390625 1534.519531 1620.109375 1727.480469 1641.820312 C 1875.230469 1658.441406 2016.851562 1643.28125 2073.988281 1520.640625 C 2123.789062 1413.789062 1990.988281 1280.449219 1986.148438 1217.578125 Z M 1986.148438 1217.578125"/></clipPath><clipPath id="M"><path d="M 1174 1307 L 1266 1307 L 1266 1399 L 1174 1399 Z M 1174 1307"/></clipPath><clipPath id="N"><path d="M 1986.148438 1217.578125 C 1981.070312 1151.621094 2046.761719 950.671875 2007.410156 880.570312 C 1863.800781 624.859375 1379.28125 1089.429688 1226.261719 1232.378906 C 1073.199219 1089.429688 588.714844 624.859375 445.109375 880.570312 C 405.753906 950.671875 471.441406 1151.621094 466.347656 1217.578125 C 461.519531 1280.449219 328.726562 1413.789062 378.507812 1520.640625 C 435.640625 1643.28125 577.285156 1658.441406 725.015625 1641.820312 C 917.964844 1620.109375 1088.730469 1510.390625 1226.261719 1379.058594 C 1363.78125 1510.390625 1534.519531 1620.109375 1727.480469 1641.820312 C 1875.230469 1658.441406 2016.851562 1643.28125 2073.988281 1520.640625 C 2123.789062 1413.789062 1990.988281 1280.449219 1986.148438 1217.578125 Z M 1986.148438 1217.578125"/></clipPath><clipPath id="O"><path d="M 1521 1307 L 1613 1307 L 1613 1399 L 1521 1399 Z M 1521 1307"/></clipPath><clipPath id="P"><path d="M 1986.148438 1217.578125 C 1981.070312 1151.621094 2046.761719 950.671875 2007.410156 880.570312 C 1863.800781 624.859375 1379.28125 1089.429688 1226.261719 1232.378906 C 1073.199219 1089.429688 588.714844 624.859375 445.109375 880.570312 C 405.753906 950.671875 471.441406 1151.621094 466.347656 1217.578125 C 461.519531 1280.449219 328.726562 1413.789062 378.507812 1520.640625 C 435.640625 1643.28125 577.285156 1658.441406 725.015625 1641.820312 C 917.964844 1620.109375 1088.730469 1510.390625 1226.261719 1379.058594 C 1363.78125 1510.390625 1534.519531 1620.109375 1727.480469 1641.820312 C 1875.230469 1658.441406 2016.851562 1643.28125 2073.988281 1520.640625 C 2123.789062 1413.789062 1990.988281 1280.449219 1986.148438 1217.578125 Z M 1986.148438 1217.578125"/></clipPath><clipPath id="Q"><path d="M 1868 1307 L 1961 1307 L 1961 1399 L 1868 1399 Z M 1868 1307"/></clipPath><clipPath id="R"><path d="M 1986.148438 1217.578125 C 1981.070312 1151.621094 2046.761719 950.671875 2007.410156 880.570312 C 1863.800781 624.859375 1379.28125 1089.429688 1226.261719 1232.378906 C 1073.199219 1089.429688 588.714844 624.859375 445.109375 880.570312 C 405.753906 950.671875 471.441406 1151.621094 466.347656 1217.578125 C 461.519531 1280.449219 328.726562 1413.789062 378.507812 1520.640625 C 435.640625 1643.28125 577.285156 1658.441406 725.015625 1641.820312 C 917.964844 1620.109375 1088.730469 1510.390625 1226.261719 1379.058594 C 1363.78125 1510.390625 1534.519531 1620.109375 1727.480469 1641.820312 C 1875.230469 1658.441406 2016.851562 1643.28125 2073.988281 1520.640625 C 2123.789062 1413.789062 1990.988281 1280.449219 1986.148438 1217.578125 Z M 1986.148438 1217.578125"/></clipPath><clipPath id="S"><path d="M 367 1479 L 380 1479 L 380 1571 L 367 1571 Z M 367 1479"/></clipPath><clipPath id="T"><path d="M 1986.148438 1217.578125 C 1981.070312 1151.621094 2046.761719 950.671875 2007.410156 880.570312 C 1863.800781 624.859375 1379.28125 1089.429688 1226.261719 1232.378906 C 1073.199219 1089.429688 588.714844 624.859375 445.109375 880.570312 C 405.753906 950.671875 471.441406 1151.621094 466.347656 1217.578125 C 461.519531 1280.449219 328.726562 1413.789062 378.507812 1520.640625 C 435.640625 1643.28125 577.285156 1658.441406 725.015625 1641.820312 C 917.964844 1620.109375 1088.730469 1510.390625 1226.261719 1379.058594 C 1363.78125 1510.390625 1534.519531 1620.109375 1727.480469 1641.820312 C 1875.230469 1658.441406 2016.851562 1643.28125 2073.988281 1520.640625 C 2123.789062 1413.789062 1990.988281 1280.449219 1986.148438 1217.578125 Z M 1986.148438 1217.578125"/></clipPath><clipPath id="U"><path d="M 635 1479 L 727 1479 L 727 1571 L 635 1571 Z M 635 1479"/></clipPath><clipPath id="V"><path d="M 1986.148438 1217.578125 C 1981.070312 1151.621094 2046.761719 950.671875 2007.410156 880.570312 C 1863.800781 624.859375 1379.28125 1089.429688 1226.261719 1232.378906 C 1073.199219 1089.429688 588.714844 624.859375 445.109375 880.570312 C 405.753906 950.671875 471.441406 1151.621094 466.347656 1217.578125 C 461.519531 1280.449219 328.726562 1413.789062 378.507812 1520.640625 C 435.640625 1643.28125 577.285156 1658.441406 725.015625 1641.820312 C 917.964844 1620.109375 1088.730469 1510.390625 1226.261719 1379.058594 C 1363.78125 1510.390625 1534.519531 1620.109375 1727.480469 1641.820312 C 1875.230469 1658.441406 2016.851562 1643.28125 2073.988281 1520.640625 C 2123.789062 1413.789062 1990.988281 1280.449219 1986.148438 1217.578125 Z M 1986.148438 1217.578125"/></clipPath><clipPath id="W"><path d="M 983 1479 L 1075 1479 L 1075 1571 L 983 1571 Z M 983 1479"/></clipPath><clipPath id="X"><path d="M 1986.148438 1217.578125 C 1981.070312 1151.621094 2046.761719 950.671875 2007.410156 880.570312 C 1863.800781 624.859375 1379.28125 1089.429688 1226.261719 1232.378906 C 1073.199219 1089.429688 588.714844 624.859375 445.109375 880.570312 C 405.753906 950.671875 471.441406 1151.621094 466.347656 1217.578125 C 461.519531 1280.449219 328.726562 1413.789062 378.507812 1520.640625 C 435.640625 1643.28125 577.285156 1658.441406 725.015625 1641.820312 C 917.964844 1620.109375 1088.730469 1510.390625 1226.261719 1379.058594 C 1363.78125 1510.390625 1534.519531 1620.109375 1727.480469 1641.820312 C 1875.230469 1658.441406 2016.851562 1643.28125 2073.988281 1520.640625 C 2123.789062 1413.789062 1990.988281 1280.449219 1986.148438 1217.578125 Z M 1986.148438 1217.578125"/></clipPath><clipPath id="Y"><path d="M 1330 1479 L 1422 1479 L 1422 1571 L 1330 1571 Z M 1330 1479"/></clipPath><clipPath id="Z"><path d="M 1986.148438 1217.578125 C 1981.070312 1151.621094 2046.761719 950.671875 2007.410156 880.570312 C 1863.800781 624.859375 1379.28125 1089.429688 1226.261719 1232.378906 C 1073.199219 1089.429688 588.714844 624.859375 445.109375 880.570312 C 405.753906 950.671875 471.441406 1151.621094 466.347656 1217.578125 C 461.519531 1280.449219 328.726562 1413.789062 378.507812 1520.640625 C 435.640625 1643.28125 577.285156 1658.441406 725.015625 1641.820312 C 917.964844 1620.109375 1088.730469 1510.390625 1226.261719 1379.058594 C 1363.78125 1510.390625 1534.519531 1620.109375 1727.480469 1641.820312 C 1875.230469 1658.441406 2016.851562 1643.28125 2073.988281 1520.640625 C 2123.789062 1413.789062 1990.988281 1280.449219 1986.148438 1217.578125 Z M 1986.148438 1217.578125"/></clipPath><clipPath id="aa"><path d="M 1678 1479 L 1770 1479 L 1770 1571 L 1678 1571 Z M 1678 1479"/></clipPath><clipPath id="ab"><path d="M 1986.148438 1217.578125 C 1981.070312 1151.621094 2046.761719 950.671875 2007.410156 880.570312 C 1863.800781 624.859375 1379.28125 1089.429688 1226.261719 1232.378906 C 1073.199219 1089.429688 588.714844 624.859375 445.109375 880.570312 C 405.753906 950.671875 471.441406 1151.621094 466.347656 1217.578125 C 461.519531 1280.449219 328.726562 1413.789062 378.507812 1520.640625 C 435.640625 1643.28125 577.285156 1658.441406 725.015625 1641.820312 C 917.964844 1620.109375 1088.730469 1510.390625 1226.261719 1379.058594 C 1363.78125 1510.390625 1534.519531 1620.109375 1727.480469 1641.820312 C 1875.230469 1658.441406 2016.851562 1643.28125 2073.988281 1520.640625 C 2123.789062 1413.789062 1990.988281 1280.449219 1986.148438 1217.578125 Z M 1986.148438 1217.578125"/></clipPath><clipPath id="ac"><path d="M 2025 1479 L 2086 1479 L 2086 1571 L 2025 1571 Z M 2025 1479"/></clipPath><clipPath id="ad"><path d="M 1986.148438 1217.578125 C 1981.070312 1151.621094 2046.761719 950.671875 2007.410156 880.570312 C 1863.800781 624.859375 1379.28125 1089.429688 1226.261719 1232.378906 C 1073.199219 1089.429688 588.714844 624.859375 445.109375 880.570312 C 405.753906 950.671875 471.441406 1151.621094 466.347656 1217.578125 C 461.519531 1280.449219 328.726562 1413.789062 378.507812 1520.640625 C 435.640625 1643.28125 577.285156 1658.441406 725.015625 1641.820312 C 917.964844 1620.109375 1088.730469 1510.390625 1226.261719 1379.058594 C 1363.78125 1510.390625 1534.519531 1620.109375 1727.480469 1641.820312 C 1875.230469 1658.441406 2016.851562 1643.28125 2073.988281 1520.640625 C 2123.789062 1413.789062 1990.988281 1280.449219 1986.148438 1217.578125 Z M 1986.148438 1217.578125"/></clipPath></defs><g><g id="change1_1"><path d="M 2007.414062 880.566406 C 1863.804688 624.851562 1379.277344 1089.429688 1226.261719 1232.378906 C 1073.199219 1089.429688 588.714844 624.851562 445.109375 880.566406 C 405.753906 950.667969 471.441406 1151.617188 466.347656 1217.578125 C 461.519531 1280.449219 328.726562 1413.789062 378.507812 1520.636719 C 435.640625 1643.277344 577.289062 1658.4375 725.015625 1641.820312 C 917.964844 1620.109375 1088.730469 1510.386719 1226.261719 1379.058594 C 1363.789062 1510.386719 1534.523438 1620.109375 1727.476562 1641.820312 C 1875.230469 1658.4375 2016.847656 1643.277344 2073.992188 1520.636719 C 2123.792969 1413.789062 1990.996094 1280.449219 1986.148438 1217.578125 C 1981.066406 1151.617188 2046.761719 950.667969 2007.414062 880.566406" fill="#f3663b"/></g><g clip-path="url(#a)"><g clip-path="url(#b)" id="change2_25"><path d="M 333.894531 788.703125 C 308.714844 788.703125 288.320312 809.152344 288.320312 834.316406 C 288.320312 859.453125 308.714844 879.898438 333.894531 879.898438 C 359.066406 879.898438 379.460938 859.453125 379.460938 834.316406 C 379.460938 809.152344 359.066406 788.703125 333.894531 788.703125" fill="#f4eee6"/></g></g><g clip-path="url(#c)"><g clip-path="url(#d)" id="change2_21"><path d="M 681.332031 788.703125 C 656.175781 788.703125 635.757812 809.152344 635.757812 834.316406 C 635.757812 859.453125 656.175781 879.898438 681.332031 879.898438 C 706.503906 879.898438 726.921875 859.453125 726.921875 834.316406 C 726.921875 809.152344 706.503906 788.703125 681.332031 788.703125" fill="#f4eee6"/></g></g><g clip-path="url(#e)"><g clip-path="url(#f)" id="change2_27"><path d="M 1028.761719 788.703125 C 1003.617188 788.703125 983.199219 809.152344 983.199219 834.316406 C 983.199219 859.453125 1003.617188 879.898438 1028.761719 879.898438 C 1053.945312 879.898438 1074.351562 859.453125 1074.351562 834.316406 C 1074.351562 809.152344 1053.945312 788.703125 1028.761719 788.703125" fill="#f4eee6"/></g></g><g clip-path="url(#g)"><g clip-path="url(#h)" id="change2_2"><path d="M 1376.230469 788.703125 C 1351.054688 788.703125 1330.636719 809.152344 1330.636719 834.316406 C 1330.636719 859.453125 1351.054688 879.898438 1376.230469 879.898438 C 1401.386719 879.898438 1421.800781 859.453125 1421.800781 834.316406 C 1421.800781 809.152344 1401.386719 788.703125 1376.230469 788.703125" fill="#f4eee6"/></g></g><g clip-path="url(#i)"><g clip-path="url(#j)" id="change2_11"><path d="M 1723.671875 788.699219 C 1698.503906 788.699219 1678.105469 809.136719 1678.105469 834.308594 C 1678.105469 859.445312 1698.503906 879.886719 1723.671875 879.886719 C 1748.832031 879.886719 1769.25 859.445312 1769.25 834.308594 C 1769.25 809.136719 1748.832031 788.699219 1723.671875 788.699219" fill="#f4eee6"/></g></g><g clip-path="url(#k)"><g clip-path="url(#l)" id="change2_10"><path d="M 2071.109375 788.707031 C 2045.933594 788.707031 2025.542969 809.148438 2025.542969 834.3125 C 2025.542969 859.449219 2045.933594 879.894531 2071.109375 879.894531 C 2096.285156 879.894531 2116.6875 859.449219 2116.6875 834.3125 C 2116.6875 809.148438 2096.285156 788.707031 2071.109375 788.707031" fill="#f4eee6"/></g></g><g clip-path="url(#m)"><g clip-path="url(#n)" id="change2_28"><path d="M 524.707031 962.191406 C 499.53125 962.191406 479.140625 982.628906 479.140625 1007.808594 C 479.140625 1032.941406 499.53125 1053.378906 524.707031 1053.378906 C 549.882812 1053.378906 570.277344 1032.941406 570.277344 1007.808594 C 570.277344 982.628906 549.882812 962.191406 524.707031 962.191406" fill="#f4eee6"/></g></g><g clip-path="url(#o)"><g clip-path="url(#p)" id="change2_8"><path d="M 872.144531 962.191406 C 846.972656 962.191406 826.578125 982.628906 826.578125 1007.808594 C 826.578125 1032.941406 846.972656 1053.378906 872.144531 1053.378906 C 897.324219 1053.378906 917.71875 1032.941406 917.71875 1007.808594 C 917.71875 982.628906 897.324219 962.191406 872.144531 962.191406" fill="#f4eee6"/></g></g><g clip-path="url(#q)"><g clip-path="url(#r)" id="change2_20"><path d="M 1219.589844 962.191406 C 1194.441406 962.191406 1174.019531 982.628906 1174.019531 1007.808594 C 1174.019531 1032.941406 1194.441406 1053.378906 1219.589844 1053.378906 C 1244.761719 1053.378906 1265.179688 1032.941406 1265.179688 1007.808594 C 1265.179688 982.628906 1244.761719 962.191406 1219.589844 962.191406" fill="#f4eee6"/></g></g><g clip-path="url(#s)"><g clip-path="url(#t)" id="change2_18"><path d="M 1567.050781 962.191406 C 1541.871094 962.191406 1521.460938 982.628906 1521.460938 1007.808594 C 1521.460938 1032.941406 1541.871094 1053.378906 1567.050781 1053.378906 C 1592.199219 1053.378906 1612.621094 1032.941406 1612.621094 1007.808594 C 1612.621094 982.628906 1592.199219 962.191406 1567.050781 962.191406" fill="#f4eee6"/></g></g><g clip-path="url(#u)"><g clip-path="url(#v)" id="change2_13"><path d="M 1914.484375 962.195312 C 1889.316406 962.195312 1868.898438 982.636719 1868.898438 1007.816406 C 1868.898438 1032.9375 1889.316406 1053.378906 1914.484375 1053.378906 C 1939.652344 1053.378906 1960.058594 1032.9375 1960.058594 1007.816406 C 1960.058594 982.636719 1939.652344 962.195312 1914.484375 962.195312" fill="#f4eee6"/></g></g><g clip-path="url(#w)"><g clip-path="url(#x)" id="change2_5"><path d="M 333.894531 1134.230469 C 308.71875 1134.230469 288.320312 1154.671875 288.320312 1179.851562 C 288.320312 1204.96875 308.71875 1225.410156 333.894531 1225.410156 C 359.066406 1225.410156 379.464844 1204.96875 379.464844 1179.851562 C 379.464844 1154.671875 359.066406 1134.230469 333.894531 1134.230469" fill="#f4eee6"/></g></g><g clip-path="url(#y)"><g clip-path="url(#z)" id="change2_4"><path d="M 681.335938 1134.230469 C 656.179688 1134.230469 635.761719 1154.671875 635.761719 1179.851562 C 635.761719 1204.96875 656.179688 1225.410156 681.335938 1225.410156 C 706.507812 1225.410156 726.925781 1204.96875 726.925781 1179.851562 C 726.925781 1154.671875 706.507812 1134.230469 681.335938 1134.230469" fill="#f4eee6"/></g></g><g clip-path="url(#A)"><g clip-path="url(#B)" id="change2_6"><path d="M 1028.769531 1134.230469 C 1003.621094 1134.230469 983.203125 1154.671875 983.203125 1179.851562 C 983.203125 1204.96875 1003.621094 1225.410156 1028.769531 1225.410156 C 1053.949219 1225.410156 1074.359375 1204.96875 1074.359375 1179.851562 C 1074.359375 1154.671875 1053.949219 1134.230469 1028.769531 1134.230469" fill="#f4eee6"/></g></g><g clip-path="url(#C)"><g clip-path="url(#D)" id="change2_15"><path d="M 1376.238281 1134.230469 C 1351.058594 1134.230469 1330.640625 1154.671875 1330.640625 1179.851562 C 1330.640625 1204.96875 1351.058594 1225.410156 1376.238281 1225.410156 C 1401.390625 1225.410156 1421.808594 1204.96875 1421.808594 1179.851562 C 1421.808594 1154.671875 1401.390625 1134.230469 1376.238281 1134.230469" fill="#f4eee6"/></g></g><g clip-path="url(#E)"><g clip-path="url(#F)" id="change2_12"><path d="M 1723.671875 1134.234375 C 1698.503906 1134.234375 1678.105469 1154.671875 1678.105469 1179.84375 C 1678.105469 1204.972656 1698.503906 1225.410156 1723.671875 1225.410156 C 1748.832031 1225.410156 1769.25 1204.972656 1769.25 1179.84375 C 1769.25 1154.671875 1748.832031 1134.234375 1723.671875 1134.234375" fill="#f4eee6"/></g></g><g clip-path="url(#G)"><g clip-path="url(#H)" id="change2_14"><path d="M 2071.109375 1134.234375 C 2045.933594 1134.234375 2025.542969 1154.679688 2025.542969 1179.855469 C 2025.542969 1204.972656 2045.933594 1225.414062 2071.109375 1225.414062 C 2096.285156 1225.414062 2116.6875 1204.972656 2116.6875 1179.855469 C 2116.6875 1154.679688 2096.285156 1134.234375 2071.109375 1134.234375" fill="#f4eee6"/></g></g><g clip-path="url(#I)"><g clip-path="url(#J)" id="change2_7"><path d="M 524.707031 1307.71875 C 499.53125 1307.71875 479.140625 1328.160156 479.140625 1353.328125 C 479.140625 1378.46875 499.53125 1398.910156 524.707031 1398.910156 C 549.882812 1398.910156 570.277344 1378.46875 570.277344 1353.328125 C 570.277344 1328.160156 549.882812 1307.71875 524.707031 1307.71875" fill="#f4eee6"/></g></g><g clip-path="url(#K)"><g clip-path="url(#L)" id="change2_16"><path d="M 872.144531 1307.71875 C 846.972656 1307.71875 826.578125 1328.160156 826.578125 1353.328125 C 826.578125 1378.46875 846.972656 1398.910156 872.144531 1398.910156 C 897.324219 1398.910156 917.71875 1378.46875 917.71875 1353.328125 C 917.71875 1328.160156 897.324219 1307.71875 872.144531 1307.71875" fill="#f4eee6"/></g></g><g clip-path="url(#M)"><g clip-path="url(#N)" id="change2_22"><path d="M 1219.589844 1307.71875 C 1194.441406 1307.71875 1174.019531 1328.160156 1174.019531 1353.328125 C 1174.019531 1378.46875 1194.441406 1398.910156 1219.589844 1398.910156 C 1244.761719 1398.910156 1265.179688 1378.46875 1265.179688 1353.328125 C 1265.179688 1328.160156 1244.761719 1307.71875 1219.589844 1307.71875" fill="#f4eee6"/></g></g><g clip-path="url(#O)"><g clip-path="url(#P)" id="change2_19"><path d="M 1567.050781 1307.71875 C 1541.871094 1307.71875 1521.460938 1328.160156 1521.460938 1353.328125 C 1521.460938 1378.46875 1541.871094 1398.910156 1567.050781 1398.910156 C 1592.199219 1398.910156 1612.621094 1378.46875 1612.621094 1353.328125 C 1612.621094 1328.160156 1592.199219 1307.71875 1567.050781 1307.71875" fill="#f4eee6"/></g></g><g clip-path="url(#Q)"><g clip-path="url(#R)" id="change2_26"><path d="M 1914.484375 1307.722656 C 1889.316406 1307.722656 1868.898438 1328.160156 1868.898438 1353.332031 C 1868.898438 1378.472656 1889.316406 1398.910156 1914.484375 1398.910156 C 1939.652344 1398.910156 1960.058594 1378.472656 1960.058594 1353.332031 C 1960.058594 1328.160156 1939.652344 1307.722656 1914.484375 1307.722656" fill="#f4eee6"/></g></g><g clip-path="url(#S)"><g clip-path="url(#T)" id="change2_17"><path d="M 333.894531 1479.75 C 308.71875 1479.75 288.320312 1500.199219 288.320312 1525.371094 C 288.320312 1550.5 308.71875 1570.941406 333.894531 1570.941406 C 359.066406 1570.941406 379.464844 1550.5 379.464844 1525.371094 C 379.464844 1500.199219 359.066406 1479.75 333.894531 1479.75" fill="#f4eee6"/></g></g><g clip-path="url(#U)"><g clip-path="url(#V)" id="change2_3"><path d="M 681.335938 1479.75 C 656.179688 1479.75 635.761719 1500.199219 635.761719 1525.371094 C 635.761719 1550.5 656.179688 1570.941406 681.335938 1570.941406 C 706.507812 1570.941406 726.925781 1550.5 726.925781 1525.371094 C 726.925781 1500.199219 706.507812 1479.75 681.335938 1479.75" fill="#f4eee6"/></g></g><g clip-path="url(#W)"><g clip-path="url(#X)" id="change2_24"><path d="M 1028.769531 1479.75 C 1003.621094 1479.75 983.203125 1500.199219 983.203125 1525.371094 C 983.203125 1550.5 1003.621094 1570.941406 1028.769531 1570.941406 C 1053.949219 1570.941406 1074.359375 1550.5 1074.359375 1525.371094 C 1074.359375 1500.199219 1053.949219 1479.75 1028.769531 1479.75" fill="#f4eee6"/></g></g><g clip-path="url(#Y)"><g clip-path="url(#Z)" id="change2_1"><path d="M 1376.238281 1479.75 C 1351.058594 1479.75 1330.640625 1500.199219 1330.640625 1525.371094 C 1330.640625 1550.5 1351.058594 1570.941406 1376.238281 1570.941406 C 1401.390625 1570.941406 1421.808594 1550.5 1421.808594 1525.371094 C 1421.808594 1500.199219 1401.390625 1479.75 1376.238281 1479.75" fill="#f4eee6"/></g></g><g clip-path="url(#aa)"><g clip-path="url(#ab)" id="change2_23"><path d="M 1723.671875 1479.75 C 1698.503906 1479.75 1678.105469 1500.199219 1678.105469 1525.367188 C 1678.105469 1550.5 1698.503906 1570.941406 1723.671875 1570.941406 C 1748.832031 1570.941406 1769.25 1550.5 1769.25 1525.367188 C 1769.25 1500.199219 1748.832031 1479.75 1723.671875 1479.75" fill="#f4eee6"/></g></g><g clip-path="url(#ac)"><g clip-path="url(#ad)" id="change2_9"><path d="M 2071.109375 1479.753906 C 2045.933594 1479.753906 2025.542969 1500.203125 2025.542969 1525.371094 C 2025.542969 1550.503906 2045.933594 1570.941406 2071.109375 1570.941406 C 2096.285156 1570.941406 2116.6875 1550.503906 2116.6875 1525.371094 C 2116.6875 1500.203125 2096.285156 1479.753906 2071.109375 1479.753906" fill="#f4eee6"/></g></g><g id="change3_1"><path d="M 2049.425781 1453.4375 C 1993.324219 1571.707031 1854.292969 1586.328125 1709.25 1570.296875 C 1519.820312 1549.40625 1352.203125 1443.566406 1217.175781 1316.953125 C 1082.175781 1443.566406 914.554688 1549.40625 725.128906 1570.296875 C 580.089844 1586.328125 441.058594 1571.707031 384.949219 1453.4375 C 379.578125 1442.105469 376.480469 1430.445312 375.027344 1418.617188 C 365.167969 1453.257812 363.394531 1488.175781 378.507812 1520.636719 C 435.644531 1643.277344 577.289062 1658.4375 725.015625 1641.816406 C 917.96875 1620.105469 1088.734375 1510.386719 1226.265625 1379.054688 C 1363.785156 1510.386719 1534.53125 1620.105469 1727.488281 1641.816406 C 1875.234375 1658.4375 2016.851562 1643.277344 2073.992188 1520.636719 C 2097.777344 1469.554688 2079.886719 1412.515625 2054.1875 1359.9375 C 2062.65625 1391.753906 2063.542969 1423.667969 2049.425781 1453.4375" fill="#ee4e26"/></g><g id="change3_2"><path d="M 1112.171875 1245.441406 C 1022.578125 1205.839844 962.835938 1168.28125 859.355469 1116.789062 C 829.785156 1104.089844 768.898438 1074.679688 693.234375 1058.699219 C 675.003906 1055.289062 653.792969 1053.199219 640.269531 1057.878906 C 637.765625 1058.660156 636.011719 1059.429688 634.765625 1060.070312 C 637.539062 1063.261719 642.683594 1068.308594 647.714844 1071.679688 C 681.398438 1095.671875 725.265625 1114.328125 766.578125 1131.628906 C 847.382812 1169.828125 937.386719 1174.109375 997.886719 1224.820312 C 1005.441406 1231.738281 1012.429688 1241.851562 1015.441406 1254.601562 L 1015.480469 1264.46875 L 1015.140625 1269.300781 L 1014.929688 1271.070312 C 1009.179688 1277.269531 1027.71875 1257.921875 1001.960938 1285.28125 L 1000.140625 1285.640625 C 995.40625 1286.5 990.125 1287.691406 986.160156 1287.738281 C 969.730469 1288.230469 958.304688 1285.730469 948.558594 1284.140625 C 929.460938 1280.539062 919.472656 1277.949219 919.449219 1277.988281 C 920.039062 1280.039062 876.628906 1263.238281 820.230469 1262.011719 C 810.691406 1262.46875 802.015625 1265.199219 797.261719 1268.980469 C 804.203125 1271.390625 813.898438 1273.03125 823.527344 1274.488281 C 843.238281 1277.488281 864.730469 1278.988281 888.488281 1283.960938 C 900.347656 1288.558594 913.28125 1285.191406 930.304688 1307.449219 C 933.398438 1314.320312 936.203125 1321.421875 932.625 1331.761719 C 929.53125 1338.769531 925.683594 1342.820312 922.589844 1345.640625 C 916.28125 1351.148438 910.523438 1354.699219 904.925781 1357.839844 C 860.632812 1380.878906 816.722656 1394.078125 774.496094 1411.011719 C 753.535156 1419.160156 733.027344 1427.5 714.609375 1436.738281 C 705.527344 1441.328125 696.742188 1446.300781 690.140625 1451.351562 C 688.320312 1452.578125 687.003906 1453.808594 686 1454.859375 C 692.917969 1456.359375 707.851562 1459.628906 717.933594 1457.898438 C 734.800781 1457.488281 751.1875 1455.539062 766.007812 1453.488281 C 795.800781 1449.070312 819.863281 1443.839844 835.839844 1440.289062 C 950.992188 1412.429688 1018.210938 1397.128906 1113.058594 1367.808594 C 1112.519531 1364.761719 1112.171875 1361.621094 1112.171875 1358.390625 L 1112.171875 1245.441406" fill="#ee4e26"/></g><g id="change3_3"><path d="M 1741.148438 1058.691406 C 1665.472656 1074.675781 1604.597656 1104.089844 1575.03125 1116.785156 C 1478.679688 1164.722656 1420.25 1200.59375 1340.351562 1237.292969 L 1340.351562 1358.386719 C 1340.351562 1363.433594 1339.578125 1368.355469 1338.253906 1372.957031 C 1424.480469 1399.035156 1490.382812 1414.105469 1598.535156 1440.285156 C 1614.523438 1443.835938 1638.578125 1449.066406 1668.367188 1453.484375 C 1683.214844 1455.535156 1699.558594 1457.484375 1716.449219 1457.894531 C 1726.527344 1459.625 1741.457031 1456.355469 1748.378906 1454.855469 C 1747.375 1453.804688 1746.039062 1452.574219 1744.238281 1451.347656 C 1737.636719 1446.296875 1728.847656 1441.324219 1719.785156 1436.734375 C 1701.355469 1427.496094 1680.84375 1419.15625 1659.875 1411.003906 C 1617.65625 1394.074219 1573.769531 1380.875 1529.476562 1357.835938 C 1523.878906 1354.695312 1518.09375 1351.144531 1511.765625 1345.636719 C 1508.699219 1342.820312 1504.84375 1338.769531 1501.753906 1331.757812 C 1498.199219 1321.414062 1500.980469 1314.3125 1504.070312 1307.445312 C 1521.097656 1285.1875 1534.058594 1288.554688 1545.882812 1283.953125 C 1569.640625 1278.984375 1591.117188 1277.480469 1610.878906 1274.488281 C 1620.472656 1273.023438 1630.175781 1271.386719 1637.121094 1268.96875 C 1632.363281 1265.195312 1623.707031 1262.46875 1614.148438 1262.003906 C 1557.75 1263.238281 1514.339844 1280.03125 1514.957031 1277.988281 C 1514.902344 1277.945312 1504.910156 1280.539062 1485.820312 1284.140625 C 1476.074219 1285.730469 1464.644531 1288.222656 1448.238281 1287.738281 C 1444.253906 1287.683594 1439 1286.492188 1434.25 1285.628906 L 1432.394531 1285.277344 C 1406.660156 1257.917969 1425.242188 1277.539062 1419.488281 1271.332031 L 1419.402344 1270.472656 L 1419.269531 1269.289062 L 1418.894531 1264.464844 L 1418.949219 1254.59375 C 1421.941406 1241.84375 1428.917969 1231.730469 1436.46875 1224.820312 C 1496.996094 1174.109375 1586.996094 1169.824219 1667.792969 1131.625 C 1709.117188 1114.324219 1752.980469 1095.664062 1786.667969 1071.675781 C 1791.710938 1068.308594 1796.835938 1063.25 1799.617188 1060.058594 C 1798.371094 1059.417969 1796.59375 1058.65625 1794.109375 1057.875 C 1780.582031 1053.191406 1759.375 1055.277344 1741.148438 1058.691406" fill="#ee4e26"/></g><g id="change3_4"><path d="M 1294.769531 1169.601562 L 1157.738281 1169.601562 C 1125.171875 1169.601562 1098.769531 1196 1098.769531 1228.601562 L 1098.769531 1365.578125 C 1098.769531 1398.171875 1125.171875 1424.578125 1157.738281 1424.578125 L 1294.769531 1424.578125 C 1327.339844 1424.578125 1353.75 1398.171875 1353.75 1365.578125 L 1353.75 1228.601562 C 1353.75 1196 1327.339844 1169.601562 1294.769531 1169.601562" fill="#ee4e26"/></g><g id="change1_2"><path d="M 1277.019531 1202.648438 L 1175.5 1202.648438 C 1151.351562 1202.648438 1131.800781 1222.21875 1131.800781 1246.351562 L 1131.800781 1347.871094 C 1131.800781 1372 1151.351562 1391.570312 1175.5 1391.570312 L 1277.019531 1391.570312 C 1301.148438 1391.570312 1320.71875 1372 1320.71875 1347.871094 L 1320.71875 1246.351562 C 1320.71875 1222.21875 1301.148438 1202.648438 1277.019531 1202.648438" fill="#f3663b"/></g></g></svg>