<?xml version="1.0" encoding="UTF-8" standalone="no"?><svg xmlns="http://www.w3.org/2000/svg" xmlns:xlink="http://www.w3.org/1999/xlink" fill="#000000" height="42.5" preserveAspectRatio="xMidYMid meet" version="1" viewBox="1.4 2.8 45.3 42.5" width="45.3" zoomAndPan="magnify"><g id="change1_1"><path d="M33.99,2.815H14.01C6.567,2.815,1.369,7.39,1.369,13.94l0.002,7.626C2.008,29.23,5.906,32.648,14.01,32.648 h3.347l-4.071,11.979c-0.005,0.015-0.01,0.03-0.014,0.046c-0.01,0.041-0.015,0.082-0.015,0.122c0,0.03,0.002,0.06,0.008,0.089 c0.012,0.065,0.037,0.13,0.075,0.188c0.035,0.052,0.08,0.099,0.133,0.135c0.049,0.034,0.104,0.059,0.16,0.073 c0.042,0.011,0.083,0.016,0.124,0.016c0.028,0,0.056-0.003,0.083-0.007c0.069-0.012,0.137-0.038,0.198-0.08 c0.012-0.008,0.024-0.018,0.036-0.026l15.791-12.534h4.127c7.324,0,12.641-4.898,12.641-11.648v-7.588 C46.631,6.975,41.669,2.815,33.99,2.815z M45.631,21c0,6.17-4.896,10.648-11.641,10.648h-4.301c-0.113,0-0.223,0.038-0.311,0.108 L14.776,43.348l3.752-11.038c0-0.001,0-0.002,0-0.002s0-0.001,0-0.002s0-0.001,0-0.002c0.04-0.121,0.031-0.246-0.016-0.354 c0,0-0.001-0.001-0.001-0.001v-0.001c0,0,0,0,0,0c-0.005-0.012-0.011-0.023-0.017-0.035c0,0,0-0.001,0-0.001h0 c-0.055-0.104-0.147-0.188-0.265-0.231c-0.011-0.004-0.022-0.008-0.033-0.011c0,0-0.001,0-0.001,0 c-0.051-0.016-0.102-0.022-0.153-0.021H14.01c-7.568,0-11.05-3.04-11.641-10.124V13.94c0-6.994,5.847-10.125,11.641-10.125h19.98 c7.071,0,11.641,3.767,11.641,9.597V21z" fill="#60be70"/></g></svg>