<?xml version="1.0" encoding="UTF-8"?><svg xmlns="http://www.w3.org/2000/svg" xmlns:xlink="http://www.w3.org/1999/xlink" height="359.2" preserveAspectRatio="xMidYMid meet" version="1.0" viewBox="-3.6 0.0 283.5 359.2" width="283.5" zoomAndPan="magnify"><g><g id="change1_2"><path d="M201.9 65.54L242.92 83.46 262.26 101.4 267.26 125.37 262.94 143.51 247.95 155 242.83 172.94 236.87 179.67 242.4 182.51 243.92 188.94 240.21 193.04 225.12 197.58 206.03 193.62 195.52 184.31 194.62 171.43 200.83 158.34 224.09 147.64 240.84 139.76 246.97 132.35 247.65 115.67 235.34 99.1 209.63 85.91 202.3 84.28z" fill="#F68921"/></g><g id="change2_5"><path d="M220.61,198.89c-2.84,0-5.6-0.28-8.29-0.83c-12.53-2.58-21.04-13.75-19.79-25.98c0.81-7.94,5.57-14.51,14.14-19.53 c3.56-2.08,7.53-3.7,11.79-4.8c5.57-1.44,19.21-5.81,25.6-15.38c3.18-4.76,3.06-13.24,0.96-18.18 c-7.46-17.49-42.58-26.92-42.94-27.02c-1.07-0.28-1.71-1.38-1.42-2.44c0.28-1.07,1.37-1.71,2.44-1.42 c1.52,0.4,37.37,10.03,45.6,29.32c2.56,6,2.77,15.86-1.31,21.97c-6.9,10.33-20.46,15.11-27.92,17.03 c-3.91,1.01-7.53,2.48-10.77,4.38c-7.51,4.4-11.5,9.79-12.19,16.48c-1.04,10.18,6.1,19.49,16.62,21.66 c8.15,1.68,17.17,0.53,26.8-3.42c1.69-0.69,2.59-2.62,2.06-4.39l-0.35-1.16c-0.28-0.93-0.91-1.7-1.76-2.16s-1.84-0.56-2.77-0.27 c-1.06,0.32-2.17-0.28-2.5-1.33c-0.32-1.06,0.28-2.17,1.33-2.5c1.96-0.59,4.02-0.39,5.82,0.58c1.8,0.96,3.12,2.57,3.7,4.53 l0.35,1.16c1.14,3.78-0.74,7.76-4.37,9.24C234.18,197.4,227.21,198.89,220.61,198.89z" fill="inherit"/></g><g id="change2_3"><path d="M228.49,187.31c-0.79,0-1.54-0.47-1.85-1.24c-0.42-1.02,0.07-2.19,1.09-2.61c15.91-6.51,17.15-27.83,17.16-28.04 c0.04-0.74,0.48-1.4,1.15-1.72c12.13-5.65,18.58-14.78,19.18-27.13c0.46-9.42-2.8-17.3-2.83-17.38 c-6.24-15.05-22.53-25.52-35.1-31.65c-13.8-6.74-26.27-9.87-26.4-9.9c-1.07-0.27-1.73-1.35-1.46-2.42 c0.27-1.07,1.35-1.73,2.42-1.46c0.52,0.13,12.95,3.24,27.12,10.15c19.23,9.37,31.71,20.72,37.11,33.74 c0.14,0.33,13.83,33.79-17.29,49.16c-0.21,2.08-0.86,6.59-2.73,11.63c-3.39,9.12-9.2,15.59-16.81,18.71 C229,187.26,228.74,187.31,228.49,187.31z" fill="inherit"/></g></g><g><g><g id="change1_1"><path d="M169.47,181.24c0,0,19.89,63.89,3.49,123.52c-2.05,7.47,1.34,15.4,8.44,19.16 c8.16,4.31,25.58,10.54,42.11,9.17c9.15-0.76,13.39-11.24,7.07-17.56c-5.65-5.65-19.58-13.55-33.38-16.25 c0,0,14.54-57.19-7.06-131.61S169.47,181.24,169.47,181.24z" fill="#F68921"/></g><g id="change2_2"><path d="M218.75,335.28c-15.73,0-31.14-5.82-38.29-9.6c-7.89-4.17-11.77-12.99-9.44-21.46c16.05-58.35-3.27-121.76-3.47-122.39 c-0.06-0.19-0.09-0.38-0.09-0.57c0-0.11-0.1-10.81,0.65-21.5c1.44-20.33,4.63-23.51,7.57-23.94c3.64-0.53,8.13,2.89,16.37,31.29 c19.24,66.32,9.82,119.75,7.53,130.63c13.09,3.03,26.55,10.52,32.41,16.37c3.38,3.38,4.47,8.23,2.85,12.65 c-1.72,4.7-6,7.89-11.17,8.31C222.03,335.22,220.39,335.28,218.75,335.28z M171.46,180.93c1.42,4.78,19.22,66.9,3.42,124.35 c-1.83,6.64,1.24,13.58,7.45,16.86c7.5,3.96,24.58,10.31,41.01,8.95c3.6-0.3,6.56-2.48,7.74-5.7c1.1-2.99,0.38-6.15-1.92-8.45 c-5.73-5.73-19.4-13.17-32.35-15.7c-0.54-0.11-1.01-0.43-1.3-0.89c-0.29-0.46-0.38-1.03-0.25-1.56 c0.14-0.57,14.14-57.57-7.04-130.56c-7.83-27-11.6-28.38-12-28.45C173.52,140.98,171.27,160.18,171.46,180.93z" fill="inherit"/></g></g><g><g id="change1_4"><path d="M134.59,214.47c-5.33,0-10.57-0.39-15.69-1.15c6.06,63.63-11.79,107.51-11.79,107.51 c14.39,4.23,30.62,13.5,35.96,19.74c5.98,6.98,0.18,16.92-9.67,16.65c-17.8-0.49-37.95-8.48-46.13-13.68 c-7.12-4.52-9.78-12.78-6.68-19.97c20.49-47.53,14.78-100.76,12.21-117.64c-37.89-16.23-64.44-53.86-64.44-97.69 C28.36,49.56,75.92,2,134.59,2c58.68,0,106.24,47.56,106.24,106.24C240.83,166.91,193.27,214.47,134.59,214.47z" fill="#F68921"/></g><g id="change2_4"><path d="M133.78,359.22c-0.14,0-0.29,0-0.43-0.01c-18.13-0.5-38.49-8.48-47.15-13.99c-7.91-5.02-10.98-14.26-7.44-22.45 c19.98-46.36,14.66-98.78,12.23-115.46c-39.3-17.31-64.63-56.08-64.63-99.08C26.36,48.56,74.91,0,134.59,0 c59.68,0,108.24,48.56,108.24,108.24c0,59.68-48.56,108.23-108.24,108.23c-4.51,0-9.03-0.28-13.47-0.83 c4.69,54.47-8.09,94.62-11.4,103.9c13.67,4.41,29.27,13.17,34.87,19.72c3.11,3.63,3.77,8.29,1.77,12.47 C144.19,356.32,139.28,359.22,133.78,359.22z M134.59,4C77.12,4,30.36,50.76,30.36,108.24c0,41.78,24.82,79.4,63.23,95.85 c0.64,0.27,1.09,0.85,1.19,1.54c2.38,15.62,8.51,70.33-12.35,118.73c-2.74,6.35-0.3,13.54,5.92,17.49 c8.04,5.11,27.94,12.89,45.12,13.37c4.1,0.11,7.74-1.93,9.3-5.2c1.31-2.75,0.88-5.73-1.2-8.15c-4.77-5.58-20.33-14.8-35.01-19.12 c-0.54-0.16-0.99-0.54-1.24-1.05s-0.26-1.1-0.05-1.62c0.18-0.43,17.59-44.22,11.65-106.57c-0.06-0.61,0.17-1.22,0.61-1.64 c0.45-0.42,1.06-0.62,1.67-0.53c5.05,0.75,10.23,1.13,15.4,1.13c57.48,0,104.24-46.76,104.24-104.23 C238.83,50.76,192.07,4,134.59,4z" fill="inherit"/></g></g></g><g><g id="change1_3"><path d="M52.1 86.57L16.08 117.14 1.98 141.15 4.2 166.9 14.08 183.93 32.73 190.99 43.35 207.57 51.42 212.56 46.69 217.12 47.11 224.07 52.1 227.1 68.74 227.1 86.84 217.3 94.63 204.69 91.62 191.4 81.37 180.05 54.6 176.3 35.28 173.42 26.84 167.79 21.08 151.14 28.48 130.65 50.48 109.51 57.39 105.63z" fill="#F68921"/></g></g><g><g id="change2_1"><path d="M58.13,229.1c-2.22,0-4.5-0.11-6.84-0.34c-4.06-0.39-7.13-3.79-7.13-7.9v-1.28c0-2.13,0.83-4.12,2.33-5.62 c1.5-1.5,3.49-2.32,5.61-2.32c0.01,0,0.01,0,0.02,0c1.1,0,2,0.9,1.99,2c0,1.1-0.9,2-2,2c0,0-0.01,0-0.02,0 c-1.05,0-2.04,0.41-2.79,1.15c-0.75,0.75-1.16,1.74-1.16,2.79v1.28c0,2.04,1.51,3.73,3.52,3.92c10.96,1.07,20.45-0.51,28.2-4.7 c10.02-5.41,14.44-17.05,10.27-27.08c-2.74-6.59-8.43-10.85-17.4-13.02c-3.86-0.93-7.98-1.32-12.25-1.15 c-8.12,0.32-23.24-0.38-33.33-8.71c-5.95-4.91-8.72-14.9-7.96-21.71c1.04-9.31,7.65-19.46,19.64-30.19 c8.79-7.86,17.14-13,17.5-13.22c0.94-0.58,2.17-0.28,2.75,0.66c0.58,0.94,0.28,2.17-0.66,2.75c-0.33,0.2-33.01,20.44-35.25,40.44 c-0.63,5.66,1.84,14.31,6.53,18.18c9.4,7.76,24.55,8.04,30.62,7.8c4.64-0.19,9.13,0.24,13.35,1.26 c10.16,2.46,16.94,7.63,20.15,15.38c4.96,11.93-0.23,25.75-12.06,32.13C75,227.26,67.07,229.1,58.13,229.1z" fill="inherit"/></g><g id="change2_6"><path d="M61.6,217.71c-0.06,0-0.13,0-0.19-0.01c-8.61-0.83-16.43-5.59-22.6-13.76c-3.44-4.56-5.47-8.95-6.3-10.96 c-36.1-6.04-32.42-43.96-32.38-44.35c1.5-14.76,10.66-30,27.22-45.3c12.22-11.28,23.82-18.2,24.31-18.49 c0.95-0.56,2.18-0.25,2.74,0.7c0.56,0.95,0.25,2.18-0.7,2.74c-0.46,0.27-46.25,27.77-49.6,60.76c-0.01,0.1-0.91,9.08,2.41,18.48 c4.37,12.35,13.7,19.64,27.72,21.67c0.73,0.11,1.35,0.61,1.6,1.31c0.08,0.21,7.82,21.45,25.96,23.21c1.1,0.11,1.9,1.08,1.8,2.18 C63.49,216.94,62.62,217.71,61.6,217.71z" fill="inherit"/></g></g></svg>