<?xml version="1.0" encoding="UTF-8"?><svg xmlns="http://www.w3.org/2000/svg" xmlns:xlink="http://www.w3.org/1999/xlink" height="68.2" preserveAspectRatio="xMidYMid meet" version="1.0" viewBox="-0.3 26.1 127.7 68.2" width="127.7" zoomAndPan="magnify"><g id="change1_1"><path d="m5.6471 91.608s14.118 1.8824 32.627-2.8235c11.068-2.8138 30.118-1.8824 37.02-1.8824s45.176-11.608 47.059-16.314 4.0784-10.353-4.7059-14.431-25.725 0.31372-30.745-1.8824-5.0196-4.0784-7.5294-10.039-7.8431-15.686-10.039-16.627-6.5882-0.62745-7.8431 1.2549-3.7647 7.2157-6.2745 8.4706-5.6471 2.8235-8.7843 0-5.3333-4.0784-6.902-3.1373-5.3333 6.5882-5.3333 8.7843 2.0239 23.112 0 26.039c-3.9797 2.3385-17.882 7.5294-19.765 9.7255s-14.745 8.4706-8.7843 12.863z" fill="#784421" fill-rule="evenodd"/></g><g id="change2_1"><path d="m66.204 26.18c-0.18003 0.014-0.35364 0.05141-0.52958 0.08473-2.1251 0.40249-4.0023 2.1514-6.1643 4.3849-1.93 3.165-3.9254 6.5072-4.2578 6.9057-0.00294 0.00334-0.01858 0.03961-0.02118 0.04237h-0.02118c-3.1e-4 -0.00186 4.1e-4 -0.01885 0-0.02118 0.00243-0.00787-0.00392-0.0319 0-0.04237 0.02335-0.05886 0.06447-0.16888 0.1271-0.29656-3.056 0.87643-6.1605 0.98976-8.9393-0.76259-2.8326-4.3494-4.4493-5.4049-9.257-1.1227-2.9486 3.8225-3.1976 8.4655-3.474 13.176-0.39512 6.3727-0.16823 12.772-0.91087 19.107h-0.02118c-0.00163 0.00166 0.00211 0.01927 0 0.02118-0.32015 0.26523-4.3068 2.378-8.7698 4.9568-5.3623 2.8362-22.481 11.767-20.908 18.811 3.0373 2.8977 7.241 2.2915 11.142 2.4149 4.6996-0.06334 23.954-5.0519 29.254-5.211 11.295 0.21009 22.607 0.12053 33.872-0.84733 8.0062-0.94906 17.218-4.5159 25.06-6.4396 6.346-2.0513 11.338-4.2787 17.01-7.8166 4.6427-3.5529 7.9884-5.9832 4.3002-12.117-3.0313-3.761-4.5865-6.044-9.0664-7.4564-4.0281-1.0241-8.2006-0.36247-12.329-0.14828-2.9781 0.61594-9.0818 0.16901-11.799-0.36011-2.7558-2.1517-5.951-6.0719-8.3673-8.5792-2.5835-2.8834-4.7729-6.023-6.5668-9.4688-1.3834-2.8336-2.9026-5.6632-5.1687-7.9013-1.5689-1.0226-2.934-1.4114-4.1942-1.3134zm-2.8809 1.97c0.84999-0.0799 2.2845 0.21768 4.3849 1.5252 2.2374 2.2025 4.7667 4.1937 6.1219 6.9904 1.8286 3.4612 3.0121 7.4491 5.6135 10.359 0.43955 0.45861 1.0822 1.0144 1.8641 1.6523-6.6485 3.4758-35.393 12.173-45.522 10.147-0.14615-3.9402-0.54021-7.8506-0.27538-11.884 0.28566-4.3557 1.3929-8.8897 4.0248-12.477 0.29132 0.68971 2.429 1.528 4.1519 4.1731 2.8175 1.9331 6.0126 1.8418 9.2146 1.0592 5.0635-2.3454 6.854-6.5147 9.5959-10.803-0.0067-0.00346-0.01457-0.01695-0.02118-0.02118-0.00967-0.00676-0.03418-0.01385-0.04237-0.02118-0.00248-0.00243 0.0022-0.0188 0-0.02118h-0.02118l-0.02118-0.02118c-2e-4 -0.00186 4.7e-4 -0.02027 0-0.02118h-0.02118c-5.5e-4 -0.00197 5.6e-4 -0.01752 0-0.02118-0.00106-0.00847 5.8e-4 -0.01706 0-0.02118s6.9e-4 -0.01699 0-0.02118-4.1e-4 -0.01959 0-0.02118-0.00145-0.01723 0-0.02118c0.00182-0.00788 0.01794-0.0328 0.02118-0.04237 0.00573-0.01502 0.01381-0.04894 0.02118-0.06355l0.02118-0.02118 0.02118-0.02118c0.03018-0.03759 0.07897-0.09137 0.1271-0.1271 0.09449-0.06621 0.22152-0.12516 0.3813-0.16946 0.10785-0.0299 0.22102-0.07166 0.36011-0.08473zm2.5632 5.1475c-2.9109 0.47099-0.18416 9.5806-0.29656 10.443l0.84732-0.40248c0.11848-0.7278 0.04023-6.6713 0.57194-7.5412l0.02118-0.04237c0.00483-0.00559 0.01626-0.01639 0.02118-0.02118l0.02118-0.02118h0.02118l0.02118-0.02118h0.04236c0.00562 0.00118 0.01546 0.0191 0.02118 0.02118h0.02118c1.1878 0.06947 2.3652 0.33135 3.4317 0.86851l0.80496-0.5084c-1.0768-0.55489-4.3227-2.6956-5.5288-2.775h-0.02118zm26.415 21.543c2.4659 0.63494 4.9328 1.1121 7.4988 0.59313 4.0968-0.25202 8.2593-0.17642 12.265 0.80496 4.411 1.3688 7.1995 3.0183 10.189 6.715 2.2838 4.5346-1.9762 6.742-4.3425 9.1299-5.614 3.6348-9.2006 5.2882-15.527 7.3929-7.833 1.9916-14.614 5.0047-22.624 5.9948-11.245 1.0396-22.551 1.1075-33.829 0.82614-5.3105 0.08566-24.519 5.0437-29.19 5.1687-3.7724-0.109-12.218 0.64097-10.846-3.8977 0.94205-3.1152 4.3393-4.9622 6.1431-6.1431 0.10884-0.11173 4.2608-3.9514 9.5324-6.3337 2.6768-1.5179 8.5178-1.9572 10.909-3.9824-0.01026 1.9234 0.19199 3.6469 0.48721 4.046l1.1015-3.813c8.4033-0.2099 49.123-7.815 54.885-16.375 1.932 1.4794 3.1095 4.4455 3.4528 5.1051l0.48721-0.57194c-0.27931-0.56461-0.4163-4.086-0.59313-4.6391-0.00142-0.00404 0.00142-0.01753 0-0.02118z" fill="inherit"/></g></svg>