<?xml version="1.0" encoding="UTF-8" standalone="no"?><svg xmlns="http://www.w3.org/2000/svg" xmlns:xlink="http://www.w3.org/1999/xlink" fill="#171e2e" height="67" preserveAspectRatio="xMidYMid meet" version="1" viewBox="0.0 -1.2 81.2 67.0" width="81.2" zoomAndPan="magnify"><g><g id="change1_1"><path d="M34,34.2c0,9.4-7.6,17-17,17s-17-7.6-17-17s7.6-17,17-17S34,24.8,34,34.2z M64.2,17.2c-9.4,0-17,7.6-17,17 s7.6,17,17,17s17-7.6,17-17S73.6,17.2,64.2,17.2z" fill="#ffffff"/></g><g id="change2_1"><path d="M25.3,29.5c0,6.2-5.1,11.3-11.3,11.3S2.7,35.7,2.7,29.5S7.8,18.2,14,18.2S25.3,23.2,25.3,29.5z M61.4,18.2 c-6.2,0-11.3,5.1-11.3,11.3s5.1,11.3,11.3,11.3c6.2,0,11.3-5.1,11.3-11.3S67.6,18.2,61.4,18.2z M57.4,3.3c4.1,4.1,9.3,7,15,8.3 c1.1,0.2,2.2-0.2,2.5-1.3c0.3-1-0.3-2.3-1.3-2.5c-5-1.1-9.6-3.5-13.2-7.2C58.5-1.2,55.6,1.5,57.4,3.3z M7.2,7.3 c4.5-2.4,9.6-3.4,14.7-3c1.1,0.1,2-1,2-2c0-1.1-0.9-1.9-2-2C16.1-0.2,10.3,1.1,5.1,3.8C2.9,5,4.9,8.5,7.2,7.3z M40.4,59.6 c0,3.4-2.8,6.2-6.2,6.2c-3.4,0-6.2-2.8-6.2-6.2c0-3.4,2.8-6.2,6.2-6.2C37.6,53.4,40.4,56.2,40.4,59.6z" fill="inherit"/></g></g></svg>