<?xml version="1.0" encoding="UTF-8"?><svg xmlns="http://www.w3.org/2000/svg" xmlns:xlink="http://www.w3.org/1999/xlink" height="399.5" preserveAspectRatio="xMidYMid meet" version="1.0" viewBox="-6.3 -1.4 349.0 399.5" width="349.0" zoomAndPan="magnify"><g><g><g><g id="change1_5"><path d="M230.75 127.36L251.65 139.49 268.5 142.91 280.82 134.36 289.73 119.65 287.5 114.01 285.42 101.55 278.4 90.8 281.71 84.75 289.3 83.91 293.07 90.51 294.49 76.63 297.71 67.49 305.35 68.1 308.35 70.22 311.3 66.33 318.73 67.77 320.25 71.66 317.96 77.5 320.81 75.92 326.27 78.26 327.47 84.33 327.47 84.33 329.37 88.79 330.59 94.82 322.69 106.17 319.04 112.67 310.44 122.6 305.17 131.24 294.42 146.06 283.05 154.58 268.03 158.77 251.55 156.68 240.31 151.81 223.38 141.16 221 129.32z" fill="#60BE70"/></g></g></g><g><g><g id="change2_4"><path d="M313.52,94.27c-0.43,0.17-0.91,0.19-1.38,0.03c-1.04-0.36-1.6-1.5-1.24-2.54l6.62-19.1c0.34-0.99,0.26-2.04-0.22-2.97 c-0.48-0.93-1.31-1.59-2.31-1.88c-1.01-0.28-2.07-0.14-2.96,0.4c-0.9,0.54-1.51,1.41-1.73,2.43l-1.23,5.77 c-0.23,1.08-1.29,1.77-2.37,1.54c-1.08-0.23-1.77-1.29-1.54-2.37l1.23-5.77c0.45-2.09,1.75-3.92,3.58-5.02 c1.83-1.1,4.05-1.41,6.11-0.83c2.05,0.58,3.79,1.99,4.78,3.87c0.99,1.89,1.15,4.12,0.46,6.14l-6.62,19.1 C314.49,93.64,314.05,94.07,313.52,94.27z" fill="inherit"/></g></g></g><g><g><g id="change2_7"><path d="M319.07,100.82c-0.5,0.2-1.09,0.19-1.61-0.07c-0.99-0.49-1.4-1.69-0.91-2.68l7.99-16.22c0.65-1.31,0.2-2.88-1.04-3.65 c-0.73-0.46-1.62-0.55-2.44-0.27c-0.81,0.29-1.45,0.92-1.73,1.74l-0.98,2.84c-0.36,1.04-1.5,1.6-2.54,1.23 c-1.04-0.36-1.6-1.5-1.24-2.54l0.98-2.84c0.68-1.97,2.18-3.5,4.17-4.2c1.97-0.7,4.11-0.46,5.88,0.64 c2.99,1.86,4.08,5.65,2.52,8.81l-7.99,16.22C319.91,100.3,319.52,100.64,319.07,100.82z" fill="inherit"/></g></g></g><g id="change2_1"><path d="M265.38,160.86c-13.16,0-27.64-6.06-43.23-18.12c-0.87-0.68-1.03-1.93-0.36-2.81c0.68-0.87,1.93-1.03,2.81-0.36 c19.17,14.83,36.36,20.15,51.09,15.82c21.58-6.35,30.77-31.7,30.86-31.95c0.23-0.64,0.76-1.12,1.42-1.28 c7.84-1.88,11.88-14.88,11.92-15.01c0.05-0.17,0.12-0.33,0.21-0.47l8.28-13.37c0.61-0.98,0.79-2.14,0.52-3.26 c-0.27-1.12-0.96-2.07-1.95-2.67l-2-1.21c-0.94-0.57-1.25-1.8-0.67-2.75c0.57-0.94,1.8-1.25,2.75-0.67l2,1.21 c1.91,1.16,3.25,2.99,3.77,5.16c0.52,2.17,0.16,4.41-1.01,6.31l-8.15,13.15c-0.65,2.01-4.92,14.23-13.68,17.17 c-1.98,5.02-11.81,27.19-33.11,33.47C273.15,160.32,269.32,160.86,265.38,160.86z" fill="inherit"/></g><g id="change2_8"><path d="M265.69,144.27c-15.06,0-34.97-15.74-35.85-16.44c-0.86-0.69-1-1.95-0.32-2.81c0.69-0.86,1.95-1,2.81-0.32 c0.21,0.17,21.28,16.81,34.89,15.5c11.25-1.1,18.5-16.24,20.44-20.8c-5.63-5.33-4.78-14.54-4.35-17.4l-5.57-8.3 c-1.32-1.97-1.71-4.41-1.07-6.69c0.64-2.28,2.24-4.16,4.39-5.16c1.98-0.92,4.19-1,6.23-0.24c2.04,0.76,3.66,2.27,4.55,4.26 l0.55,1.23l1.3-14.68c0.19-2.17,1.28-4.18,2.99-5.53c1.71-1.35,3.93-1.93,6.08-1.61c2.15,0.32,4.03,1.48,5.29,3.25 c1.26,1.77,1.73,3.93,1.33,6.07l-3.53,18.59c-0.21,1.08-1.25,1.8-2.34,1.59c-1.08-0.21-1.8-1.25-1.59-2.34l3.53-18.59 c0.2-1.06-0.03-2.13-0.66-3.01c-0.62-0.88-1.56-1.45-2.62-1.61c-1.08-0.16-2.15,0.12-3.01,0.8c-0.86,0.68-1.39,1.65-1.48,2.74 L295.7,95.1c-0.08,0.91-0.76,1.64-1.66,1.8c-0.9,0.15-1.78-0.32-2.16-1.15l-3.7-8.22c-0.45-1-1.27-1.77-2.3-2.15 c-1.03-0.39-2.15-0.34-3.15,0.12c-1.09,0.5-1.9,1.45-2.22,2.61c-0.32,1.15-0.13,2.39,0.54,3.38l6.01,8.97 c0.3,0.45,0.41,0.99,0.3,1.52c-0.02,0.11-2.12,10.87,3.87,15.23c0.72,0.53,1.01,1.47,0.7,2.3c-0.35,0.94-8.66,23.17-24.33,24.69 C266.98,144.24,266.34,144.27,265.69,144.27z" fill="inherit"/></g></g><g><g><g id="change1_4"><path d="M328.06,368.61c-1.97,2.08-4.31,3.79-6.83,5.15c-15.81,8.57-31.62,11.54-42.06,12.52 c-0.41,0.04-0.81,0.06-1.2,0.07c-8.04,0.17-14.77-7.03-15.05-15.48c-0.36-10.45,19.48-41.22,9.25-75.23 c-5.09-16.93-30.37-43.96-55.69-58.93l-49.52,5.49c-1.01,7.95-21.25,155.94-117.11,56.3c-28.29,16.6-56.12,14.76-45.59-3.88 c1.41-2.49,3.27-4.71,5.39-6.64c13.29-12.11,27.93-18.78,37.83-22.24c0.38-0.14,0.77-0.25,1.15-0.36 c6.79-1.83,13.97,2.06,17.19,8.51c1.5,3,3.17,5.9,5.26,8.53c12.36,15.53,49.14,52.2,64.53-37.91l-19.9-179.2 c-3.47-31.29,19.08-59.47,50.37-62.95c31.29-3.47,59.47,19.08,62.94,50.37l18.94,170.54c21.47,17,44.71,46.08,49.78,63.59 c10.07,34.82-4.23,63.09-4.23,63.09C324.95,340.62,342.75,353.04,328.06,368.61z" fill="#60BE70"/></g><g id="change2_3"><path d="M277.72,388.35c-8.83,0-16.48-7.9-16.79-17.42c-0.12-3.48,1.63-8.57,3.84-15.02c4.97-14.51,12.49-36.44,5.5-59.7 c-4.99-16.61-29.74-42.79-54.22-57.45l-47.3,5.24c-1.82,12.99-12.56,77.07-48.46,88.96c-19.88,6.58-43.69-4.17-70.78-31.96 c-19.38,10.97-39.8,14.11-46.94,7.08c-1.97-1.94-4.59-6.39-0.04-14.46c1.45-2.56,3.39-4.96,5.78-7.13 c13.52-12.32,28.41-19.12,38.52-22.65c0.36-0.13,0.77-0.25,1.16-0.37l0.13-0.04c7.53-2.03,15.73,1.99,19.5,9.55 c1.69,3.39,3.29,5.98,5.04,8.18c5.55,6.98,19.91,22.84,33.22,19.42c12.38-3.18,21.96-22.59,27.73-56.15L113.73,65.53 c-3.59-32.33,19.8-61.56,52.14-65.16c15.67-1.74,31.07,2.73,43.37,12.58c12.31,9.85,20.04,23.9,21.78,39.56l18.85,169.71 c22.13,17.74,44.83,46.92,49.8,64.08c8.1,28,0.92,51.57-2.65,60.62c17.43-4.3,31.91-2.15,36.73,5.69 c3.05,4.96,1.51,11.29-4.23,17.37l0,0c-2.03,2.14-4.5,4-7.33,5.54c-16.1,8.73-32.17,11.75-42.82,12.75 c-0.45,0.04-0.9,0.07-1.33,0.08C277.92,388.35,277.82,388.35,277.72,388.35z M216.93,234.64l0.57,0.34 c25.4,15.02,51.31,42.53,56.59,60.08c7.37,24.49-0.4,47.16-5.54,62.15c-1.99,5.82-3.72,10.84-3.62,13.58 c0.24,7.41,6.07,13.55,12.78,13.55c0.08,0,0.15,0,0.23,0c0.33-0.01,0.69-0.03,1.05-0.06c10.29-0.97,25.79-3.88,41.3-12.29 c2.47-1.33,4.6-2.93,6.33-4.77c4.46-4.73,5.79-9.18,3.73-12.53c-4.65-7.55-21.76-7.14-36.26-2.84l-4.44,1.32l2.08-4.14 c0.14-0.28,13.81-28.03,4.09-61.63c-4.83-16.67-27.31-45.32-49.1-62.58l-0.65-0.52l-0.09-0.83L227.04,52.95 c-1.62-14.6-8.83-27.7-20.3-36.88S180.91,2.73,166.3,4.34c-30.14,3.35-51.94,30.6-48.6,60.74l19.93,179.48l-0.05,0.28 c-6.13,35.9-16.47,55.96-30.72,59.62c-15.01,3.85-29.84-11.38-37.34-20.81c-1.92-2.42-3.66-5.24-5.48-8.88 c-2.93-5.87-9.19-9.01-14.88-7.47c-0.36,0.11-0.68,0.19-0.98,0.31c-9.79,3.42-24.15,9.98-37.17,21.84c-2.08,1.89-3.76,3.96-5,6.15 c-1.7,3.01-3.19,7.12-0.64,9.64c5.24,5.15,23.96,2.98,43.48-8.47l1.36-0.8l1.09,1.14c26.38,27.42,49.17,38.21,67.73,32.07 c10.18-3.37,24.68-14.04,35.98-45.75c7.11-19.97,9.71-39.34,9.98-41.48l0.2-1.56L216.93,234.64z" fill="inherit"/></g></g><g><g><g id="change1_2"><path d="M131.07 119.78L107.51 114.39 90.41 116.13 80.97 128.41 77.03 144.63 80.84 149.36 86.52 160.64 96.4 168.82 95.04 175.58 88.04 178.64 82.48 173.45 85.24 187.13 84.87 196.81 77.41 198.5 73.91 197.36 72.24 201.95 64.72 202.78 62.12 199.52 62.57 193.26 60.32 195.61 54.41 195 51.46 189.56 51.46 189.56 48.32 185.86 45.38 180.47 49.56 167.28 51.11 159.99 56.38 147.96 58.85 138.15 64.72 120.8 73.05 109.3 86.16 100.84 102.51 97.94 114.7 99.27 134.02 104.41 139.8 115.01z" fill="#60BE70"/></g></g></g><g><g><g id="change2_6"><path d="M61.83,175.92c0.36-0.29,0.82-0.45,1.31-0.44c1.1,0.04,1.97,0.96,1.93,2.06l-0.66,20.21c-0.03,1.05,0.35,2.03,1.09,2.77 c0.74,0.74,1.72,1.13,2.77,1.11c1.05-0.03,2.02-0.48,2.71-1.26c0.7-0.78,1.03-1.79,0.93-2.84l-0.53-5.87 c-0.1-1.1,0.71-2.07,1.81-2.17c1.1-0.1,2.07,0.71,2.17,1.81l0.53,5.87c0.19,2.12-0.51,4.26-1.93,5.85 c-1.42,1.6-3.45,2.54-5.59,2.6c-2.13,0.06-4.21-0.77-5.71-2.28c-1.5-1.51-2.32-3.6-2.25-5.72l0.66-20.21 C61.1,176.81,61.39,176.28,61.83,175.92z" fill="inherit"/></g></g></g><g><g><g id="change2_2"><path d="M54.59,171.32c0.42-0.34,0.98-0.5,1.56-0.41c1.09,0.17,1.84,1.2,1.66,2.29L55,191.06c-0.23,1.44,0.67,2.81,2.08,3.18 c0.84,0.22,1.71,0.05,2.41-0.47c0.69-0.52,1.11-1.31,1.14-2.17l0.1-3c0.04-1.1,0.96-1.97,2.06-1.93 c1.1,0.04,1.97,0.96,1.93,2.06l-0.1,3c-0.07,2.09-1.05,3.99-2.74,5.25c-1.67,1.25-3.79,1.66-5.81,1.13 c-3.41-0.89-5.57-4.19-5.02-7.67l2.82-17.86C53.95,172.06,54.22,171.62,54.59,171.32z" fill="inherit"/></g></g></g><g id="change2_5"><path d="M52.83,190.99c-0.16,0-0.32-0.02-0.48-0.06l-2.27-0.56c-2.17-0.54-3.99-1.89-5.13-3.81c-1.14-1.92-1.46-4.16-0.9-6.32 l3.88-14.98c0.02-2.12,0.48-15.05,7.97-20.46c0.4-5.38,3.22-29.47,21.69-41.79c13.92-9.28,33.13-9.44,57.12-0.48 c1.03,0.39,1.56,1.54,1.17,2.57c-0.39,1.04-1.54,1.56-2.57,1.17c-22.71-8.48-40.7-8.46-53.48,0.05 c-18.73,12.47-19.99,39.4-20,39.67c-0.03,0.68-0.39,1.3-0.98,1.64c-6.93,4.12-6.93,17.73-6.93,17.87c0,0.17-0.02,0.35-0.06,0.51 l-3.94,15.22c-0.29,1.12-0.12,2.28,0.47,3.27c0.59,0.99,1.53,1.69,2.65,1.97l2.27,0.56c1.07,0.27,1.73,1.35,1.46,2.42 C54.55,190.38,53.73,190.99,52.83,190.99z" fill="inherit"/></g><g id="change2_9"><path d="M79.48,200.51c-1.72,0-3.39-0.56-4.79-1.63c-1.73-1.32-2.82-3.24-3.07-5.4l-2.14-18.8c-0.12-1.1,0.66-2.09,1.76-2.21 c1.09-0.12,2.09,0.66,2.21,1.76l2.14,18.8c0.12,1.07,0.66,2.02,1.52,2.68c0.86,0.66,1.92,0.92,2.98,0.76 c1.08-0.17,2.02-0.75,2.64-1.66s0.83-1.99,0.6-3.06l-4.73-21.9c-0.19-0.89,0.24-1.8,1.05-2.21c0.81-0.41,1.8-0.22,2.4,0.46 l5.97,6.76c0.73,0.83,1.74,1.31,2.83,1.38c1.09,0.06,2.15-0.31,2.97-1.05c0.89-0.8,1.38-1.95,1.35-3.15s-0.59-2.32-1.52-3.07 l-8.4-6.78c-0.42-0.34-0.68-0.83-0.73-1.36c-0.01-0.11-1.2-11.01-8.21-13.4c-0.84-0.29-1.4-1.1-1.35-1.99 c0.05-1.01,1.4-24.69,15.91-30.8c14.11-5.93,39.84,3.99,40.92,4.41c1.03,0.4,1.54,1.56,1.14,2.59c-0.4,1.03-1.56,1.53-2.59,1.14 c-0.25-0.1-25.31-9.76-37.92-4.45c-10.4,4.37-12.85,20.99-13.35,25.92c6.96,3.42,8.88,12.47,9.32,15.32l7.78,6.28 c1.84,1.49,2.94,3.7,3.01,6.07c0.07,2.37-0.9,4.64-2.66,6.23c-1.61,1.46-3.7,2.2-5.88,2.07c-2.17-0.12-4.17-1.09-5.61-2.72 l-0.9-1.01l3.11,14.41c0.46,2.13,0.02,4.38-1.22,6.17c-1.23,1.79-3.18,3.01-5.33,3.34C80.3,200.48,79.89,200.51,79.48,200.51z" fill="inherit"/></g><g id="change1_1"><path d="M123.85,120.6c0,0,0.08-4.41-4.52-5.43s-0.58-3.89-0.58-3.89l17.84,5.81l-4.96,11.16L123.85,120.6z" fill="#60BE70"/></g><g id="change1_3"><path d="M117.73,101.63c0,0,4.03,0.2,3.67-3.27l16.12-1.89l2.09,11.52l-5.43,3.71L117.73,101.63z" fill="#60BE70"/></g></g></svg>