<?xml version="1.0" encoding="UTF-8"?><svg xmlns="http://www.w3.org/2000/svg" xmlns:xlink="http://www.w3.org/1999/xlink" height="454.3" preserveAspectRatio="xMidYMid meet" version="1.0" viewBox="-0.2 -0.0 297.2 454.3" width="297.2" zoomAndPan="magnify"><g><g id="change1_4"><path d="M224.73,448.02c-2.6,1.19-5.41,1.9-8.26,2.22c-17.87,2.03-33.64-1.14-43.69-4.14 c-0.39-0.11-0.77-0.24-1.14-0.38c-7.52-2.85-11.06-12.05-8.16-19.99c5.39-14.77,18.74-59.39,14.95-130.85h-60.07 c-3.8,71.46,9.56,116.08,14.95,130.85c2.9,7.94-0.64,17.14-8.16,19.99c-0.38,0.14-0.75,0.27-1.14,0.38 c-10.05,3-25.82,6.17-43.69,4.14c-2.85-0.32-5.66-1.03-8.26-2.22c-19.45-8.94-0.87-27.89,31.78-31.01c0,0-17.56-49.74-12.44-122.13 h-0.03V113.45c0-31.51,25.54-57.04,57.04-57.04h0c31.51,0,57.04,25.54,57.04,57.04v181.43h-0.07 c5.12,72.39-12.44,122.13-12.44,122.13C225.6,420.13,244.18,439.08,224.73,448.02z" fill="#EE2B4E"/></g><g id="change2_6"><path d="M205.01,452.88c-13.3,0-24.81-2.48-32.8-4.87c-0.42-0.12-0.85-0.26-1.28-0.43c-8.36-3.17-12.64-13.49-9.33-22.55 c16.68-45.71,16.12-103.5,14.93-128.16h-56.27c-3.42,69.34,9.27,112.67,14.93,128.16c3.31,9.05-0.97,19.38-9.33,22.55 c-0.45,0.17-0.87,0.31-1.31,0.44c-10.22,3.05-26.27,6.27-44.46,4.2c-3.21-0.36-6.19-1.16-8.87-2.39 c-8.97-4.12-9.46-9.78-8.95-12.78c1.71-10.08,18.23-19.23,38.89-21.77c-1.44-4.59-4.61-15.6-7.44-31.85 c-3.43-19.65-6.96-50.91-4.35-88.35c-0.01-0.07-0.01-0.13-0.01-0.2V113.45c0-32.56,26.49-59.05,59.04-59.05 c32.56,0,59.04,26.49,59.04,59.05v181.42c0,0.13-0.01,0.26-0.04,0.39c2.59,37.36-0.94,68.55-4.36,88.17 c-2.84,16.25-6,27.27-7.44,31.85c20.67,2.54,37.18,11.69,38.89,21.77c0.51,3,0.02,8.66-8.94,12.78c0,0,0,0,0,0 c-2.67,1.22-5.66,2.03-8.87,2.39C212.68,452.68,208.77,452.88,205.01,452.88z M118.36,292.88h60.07c1.06,0,1.94,0.83,2,1.89 c3.78,71.2-9.28,115.78-15.07,131.64c-2.57,7.04,0.63,15.02,6.99,17.43c0.32,0.12,0.64,0.23,0.97,0.32 c9.93,2.96,25.4,6.07,42.92,4.08c2.79-0.31,5.36-1,7.65-2.05c3.43-1.58,7.37-4.33,6.67-8.48c-1.25-7.39-16.06-16.64-37.81-18.72 c-0.61-0.06-1.16-0.4-1.5-0.92s-0.41-1.16-0.2-1.74c0.04-0.12,4.4-12.6,8.08-33.71c3.39-19.47,6.88-50.47,4.26-87.61 c-0.02-0.23,0.01-0.45,0.06-0.66v-180.9c0-30.35-24.69-55.05-55.04-55.05S93.37,83.1,93.37,113.45v181.1 c0.03,0.15,0.04,0.31,0.02,0.47c-2.63,37.14,0.86,68.14,4.26,87.61c3.68,21.11,8.03,33.58,8.08,33.71c0.2,0.58,0.13,1.22-0.2,1.74 s-0.88,0.86-1.5,0.92c-21.74,2.08-36.55,11.34-37.81,18.72c-0.7,4.15,3.24,6.9,6.67,8.48c2.29,1.05,4.86,1.74,7.65,2.05 c17.52,1.99,33-1.12,42.89-4.07c0.37-0.1,0.69-0.22,1.02-0.34c6.35-2.4,9.55-10.39,6.98-17.43 c-5.79-15.87-18.85-60.46-15.07-131.64C116.42,293.71,117.3,292.88,118.36,292.88z M224.73,448.02L224.73,448.02L224.73,448.02z" fill="inherit"/></g></g><g><g><g><g><g id="change1_1"><path d="M31.86 72.27L46.13 62.8 50.79 50.47 62.53 41.95 62.96 34.93 55.76 30.95 46.55 36.51 47.75 11.21 42.22 5.59 36.03 8.71 31.76 3.29 25.3 2.42 19.85 9.29 15.34 7.8 10.34 13.53 10.31 17.55 5.68 16.43 2.02 21.81 10.82 43.97 12.69 61.4 21.96 69.83z" fill="#EE2B4E"/></g></g></g></g><g><g><g><g><g id="change1_2"><path d="M42.88,135.6c-4.49-8.92-8.46-18.92-11.89-29.97c-6.04-19.51-8.01-34.91-8.09-35.56l14.88-1.87 c0.07,0.58,12.72,84.95,58.48,100.42l-1.67,22.71C69.39,179.87,49.19,148.12,42.88,135.6z" fill="#EE2B4E"/></g></g></g></g></g><g><g><g><g id="change2_3"><path d="M35.93,68.77c-0.04-0.09-0.08-0.18-0.11-0.28c-0.34-1.05,0.23-2.18,1.28-2.52C42.93,64.05,47.1,59.08,47.98,53 l0.49-3.43l10.59-6.71c2.22-1.41,2.93-4.3,1.62-6.58c-0.66-1.14-1.72-1.96-2.99-2.29c-1.27-0.34-2.6-0.16-3.73,0.51l-10.4,6.08 l2.43-27.11c0.23-2.6-1.69-4.93-4.3-5.18c-1.3-0.13-2.57,0.27-3.56,1.12c-0.99,0.85-1.58,2.04-1.66,3.35l-0.99,16.92 c-0.06,1.1-1.01,1.94-2.11,1.88c-1.1-0.06-1.94-1.01-1.88-2.11l0.99-16.92c0.14-2.4,1.22-4.59,3.05-6.15 c1.83-1.57,4.15-2.3,6.55-2.07c4.78,0.46,8.32,4.73,7.89,9.52l-1.74,19.39l3.71-2.17c2.06-1.21,4.47-1.53,6.78-0.92 c2.31,0.61,4.24,2.09,5.43,4.17c2.38,4.14,1.08,9.39-2.95,11.95l-9.03,5.73l-0.23,1.6c-1.09,7.6-6.3,13.81-13.59,16.2 C37.39,70.08,36.37,69.64,35.93,68.77z" fill="inherit"/></g></g></g></g><g><g><g><g id="change2_7"><path d="M23.09,32.43c-0.08-0.16-0.14-0.34-0.18-0.53l-3.98-21.24c-0.49-2.61,0.2-5.29,1.89-7.35C22.5,1.25,25,0.05,27.66,0.03 C30.17,0,32.6,1.04,34.31,2.87c1.72,1.83,2.59,4.32,2.4,6.83l-0.24,3.1c-0.09,1.1-1.05,1.92-2.15,1.84 c-1.1-0.09-1.93-1.05-1.84-2.15l0.24-3.1c0.11-1.41-0.36-2.76-1.33-3.79c-0.97-1.03-2.28-1.59-3.69-1.58 c-1.48,0.02-2.86,0.68-3.79,1.82c-0.94,1.14-1.32,2.63-1.05,4.08l3.98,21.24c0.2,1.09-0.51,2.13-1.6,2.33 C24.35,33.66,23.48,33.21,23.09,32.43z" fill="inherit"/></g></g></g></g><g><g><g id="change2_10"><path d="M23.12,70.11l-0.15-0.24l-0.65-1.96c-8.29-1.85-8.13-10.96-8.17-11.41l-0.82-7.67c-0.41-3.83-1.36-7.58-2.84-11.15 L4.24,22.54c-0.32-0.77-0.31-1.62,0.03-2.39c0.34-0.77,0.96-1.34,1.75-1.63c0.78-0.28,1.61-0.23,2.36,0.13 c0.74,0.36,1.29,1,1.55,1.78l0.37,1.14c0.35,1.05,1.47,1.62,2.52,1.28c1.05-0.34,1.62-1.47,1.28-2.52l-0.37-1.14 c-0.6-1.82-1.87-3.29-3.59-4.13c-1.72-0.84-3.66-0.95-5.46-0.3c-1.83,0.66-3.27,1.99-4.06,3.77c-0.79,1.78-0.81,3.74-0.07,5.54 l6.27,15.15C8.14,42.43,9,45.81,9.37,49.26l0.81,7.61c0.31,4.14,3.01,12.25,10.93,14.79c0.04,0.25,0.08,0.49,0.11,0.74 C22.3,71.01,21.86,71.13,23.12,70.11z" fill="inherit"/></g></g></g><g><g><g><g id="change2_9"><path d="M14.03,34.58c-0.06-0.11-0.1-0.23-0.14-0.35L8.62,15.82c-0.57-1.98-0.31-4.05,0.71-5.83C10.35,8.2,12.01,6.94,14,6.43 c2.01-0.52,4.17-0.17,5.92,0.94c1.75,1.11,2.98,2.92,3.37,4.96l1.35,7.12c0.21,1.08-0.51,2.13-1.59,2.34 c-1.08,0.21-2.13-0.5-2.34-1.59l-1.35-7.12c-0.19-0.97-0.75-1.8-1.58-2.33c-0.84-0.53-1.82-0.69-2.78-0.44 c-0.93,0.24-1.71,0.83-2.2,1.67c-0.48,0.84-0.6,1.81-0.33,2.74l5.27,18.41c0.3,1.06-0.31,2.17-1.37,2.47 C15.43,35.86,14.45,35.42,14.03,34.58z" fill="inherit"/></g></g></g></g><g><g><g id="change2_2"><path d="M91.39,169.74c0.65,0,1.28-0.31,1.67-0.89c0.61-0.92,0.36-2.16-0.56-2.77c-46.74-31.09-52.64-97.44-52.73-98.13 c-0.14-1.1-1.14-1.87-2.24-1.72c-1.09,0.14-1.87,1.15-1.72,2.24c0.09,0.71,6.22,68.83,54.48,100.94 C90.62,169.63,91.01,169.74,91.39,169.74z" fill="inherit"/></g></g></g><g><g><g id="change2_13"><path d="M91.38,192.95c0.71,0,1.4-0.38,1.76-1.05c0.53-0.97,0.17-2.19-0.8-2.71C35.24,158.18,24.07,70.45,23.95,69.56 c-0.15-1.1-1.16-1.86-2.25-1.72c-1.09,0.15-1.86,1.15-1.72,2.25c0.03,0.23,3.14,22.95,13.43,49.27 c9.54,24.39,26.17,56.59,57.01,73.34C90.73,192.87,91.05,192.95,91.38,192.95z" fill="inherit"/></g></g></g></g><g><g><g><g><g id="change1_3"><path d="M264.96 72.25L250.69 62.77 246.03 50.44 234.29 41.92 233.86 34.9 241.06 30.93 250.27 36.48 249.07 11.18 254.6 5.57 260.79 8.69 265.06 3.26 271.52 2.4 276.97 9.26 281.49 7.78 286.48 13.51 286.51 17.53 291.14 16.4 294.8 21.78 286 43.94 284.13 61.37 274.86 69.8z" fill="#EE2B4E"/></g></g></g></g><g><g><g><g><g id="change1_5"><path d="M253.94,135.58c4.49-8.92,8.46-18.92,11.89-29.97c6.04-19.51,8.01-34.91,8.09-35.56l-14.88-1.87 c-0.07,0.58-12.72,84.95-58.48,100.42l1.67,22.71C227.43,179.84,247.63,148.09,253.94,135.58z" fill="#EE2B4E"/></g></g></g></g></g><g><g><g><g id="change2_12"><path d="M260.89,68.75c0.04-0.09,0.08-0.18,0.11-0.28c0.34-1.05-0.23-2.18-1.28-2.52c-5.84-1.92-10.01-6.89-10.88-12.97 l-0.49-3.43l-10.59-6.71c-2.22-1.41-2.93-4.3-1.62-6.58c0.66-1.14,1.72-1.96,2.99-2.29c1.27-0.34,2.6-0.16,3.73,0.51l10.4,6.08 l-2.43-27.11c-0.23-2.6,1.69-4.93,4.3-5.18c1.3-0.13,2.57,0.27,3.56,1.12c0.99,0.85,1.58,2.04,1.66,3.35l0.99,16.92 c0.06,1.1,1.01,1.94,2.11,1.88c1.1-0.06,1.94-1.01,1.88-2.11l-0.99-16.92c-0.14-2.4-1.22-4.59-3.05-6.15 c-1.83-1.57-4.15-2.3-6.55-2.07c-4.78,0.46-8.32,4.73-7.89,9.52l1.74,19.39l-3.71-2.17c-2.06-1.21-4.47-1.53-6.78-0.92 c-2.31,0.61-4.24,2.09-5.43,4.17c-2.38,4.14-1.08,9.39,2.95,11.95l9.03,5.73l0.23,1.6c1.09,7.6,6.3,13.81,13.59,16.2 C259.43,70.06,260.45,69.62,260.89,68.75z" fill="inherit"/></g></g></g></g><g><g><g><g id="change2_4"><path d="M273.73,32.41c0.08-0.16,0.14-0.34,0.18-0.53l3.98-21.24c0.49-2.61-0.2-5.29-1.89-7.35c-1.69-2.06-4.18-3.25-6.84-3.28 c-2.51-0.03-4.94,1.01-6.66,2.84c-1.72,1.83-2.59,4.32-2.4,6.83l0.24,3.1c0.09,1.1,1.05,1.92,2.15,1.84 c1.1-0.09,1.93-1.05,1.84-2.15l-0.24-3.1c-0.11-1.41,0.36-2.76,1.33-3.79c0.97-1.03,2.28-1.59,3.69-1.58 c1.48,0.02,2.86,0.68,3.79,1.82c0.94,1.14,1.32,2.63,1.05,4.08l-3.98,21.24c-0.2,1.09,0.51,2.13,1.6,2.33 C272.47,33.64,273.34,33.18,273.73,32.41z" fill="inherit"/></g></g></g></g><g><g><g id="change2_1"><path d="M273.7,70.08l0.15-0.24l0.65-1.96c8.29-1.85,8.13-10.96,8.17-11.41l0.82-7.67c0.41-3.83,1.36-7.58,2.84-11.15 l6.27-15.15c0.32-0.77,0.31-1.62-0.03-2.39c-0.34-0.77-0.96-1.34-1.75-1.63c-0.78-0.28-1.61-0.23-2.36,0.13 c-0.74,0.36-1.29,1-1.55,1.78l-0.37,1.14c-0.35,1.05-1.47,1.62-2.52,1.28c-1.05-0.34-1.62-1.47-1.28-2.52l0.37-1.14 c0.6-1.82,1.87-3.29,3.59-4.13c1.72-0.84,3.66-0.95,5.46-0.3c1.83,0.66,3.27,1.99,4.06,3.77c0.79,1.78,0.81,3.74,0.07,5.54 l-6.27,15.15c-1.33,3.21-2.19,6.59-2.55,10.04l-0.81,7.61c-0.31,4.14-3.01,12.25-10.93,14.79c-0.04,0.25-0.08,0.49-0.11,0.74 C274.52,70.99,274.96,71.11,273.7,70.08z" fill="inherit"/></g></g></g><g><g><g><g id="change2_8"><path d="M282.79,34.55c0.06-0.11,0.1-0.23,0.14-0.35l5.27-18.41c0.57-1.98,0.31-4.05-0.71-5.83c-1.02-1.78-2.68-3.05-4.67-3.56 c-2.01-0.52-4.17-0.17-5.92,0.94c-1.75,1.11-2.98,2.92-3.37,4.96l-1.35,7.12c-0.21,1.08,0.51,2.13,1.59,2.34 c1.08,0.21,2.13-0.5,2.34-1.59l1.35-7.12c0.19-0.97,0.75-1.8,1.58-2.33s1.82-0.69,2.78-0.44c0.93,0.24,1.71,0.83,2.2,1.67 c0.48,0.84,0.6,1.81,0.33,2.74l-5.27,18.41c-0.3,1.06,0.31,2.17,1.37,2.47C281.39,35.84,282.37,35.39,282.79,34.55z" fill="inherit"/></g></g></g></g><g><g><g id="change2_5"><path d="M205.43,169.72c-0.65,0-1.28-0.31-1.67-0.89c-0.61-0.92-0.36-2.16,0.56-2.77c46.74-31.09,52.64-97.44,52.73-98.13 c0.14-1.1,1.14-1.87,2.24-1.72c1.09,0.14,1.87,1.15,1.72,2.24c-0.09,0.71-6.22,68.83-54.48,100.94 C206.2,169.61,205.81,169.72,205.43,169.72z" fill="inherit"/></g></g></g><g><g><g id="change2_11"><path d="M205.44,192.92c-0.71,0-1.4-0.38-1.76-1.05c-0.53-0.97-0.17-2.19,0.8-2.71c57.09-31.01,68.27-118.74,68.39-119.62 c0.15-1.1,1.16-1.86,2.25-1.72c1.09,0.15,1.86,1.15,1.72,2.25c-0.03,0.23-3.14,22.95-13.43,49.27 c-9.54,24.39-26.17,56.59-57.01,73.34C206.09,192.84,205.77,192.92,205.44,192.92z" fill="inherit"/></g></g></g></g></svg>