<?xml version="1.0" encoding="UTF-8"?><svg xmlns="http://www.w3.org/2000/svg" xmlns:xlink="http://www.w3.org/1999/xlink" height="28.8" preserveAspectRatio="xMidYMid meet" version="1.0" viewBox="-0.4 0.0 76.8 28.8" width="76.8" zoomAndPan="magnify"><g><g id="change1_1"><path d="M23.82,26.82h-12.2c-3.69,0-6.86-2.6-7.59-6.21l-1.88-9.34C1.19,6.48,4.85,2,9.74,2h15.96 c4.89,0,8.56,4.48,7.59,9.27l-1.88,9.34C30.69,24.22,27.51,26.82,23.82,26.82z" fill="#F9ED32"/></g><g id="change2_2"><path d="M23.82,28.82h-12.2c-4.62,0-8.64-3.29-9.55-7.82l-1.88-9.34c-0.58-2.88,0.15-5.83,2.01-8.09C4.06,1.3,6.81,0,9.74,0h15.96 c2.93,0,5.68,1.3,7.54,3.57c1.86,2.27,2.59,5.22,2.01,8.09l-1.88,9.34C32.46,25.54,28.45,28.82,23.82,28.82z M9.74,4 C8.02,4,6.4,4.77,5.3,6.11c-1.1,1.34-1.53,3.08-1.19,4.77L6,20.22c0.54,2.67,2.91,4.61,5.63,4.61h12.2c2.72,0,5.09-1.94,5.63-4.61 l1.88-9.34c0.34-1.69-0.09-3.43-1.19-4.77C29.05,4.77,27.43,4,25.71,4H9.74z" fill="inherit"/></g></g><g><g id="change1_2"><path d="M64.41,26.82h-12.2c-3.69,0-6.86-2.6-7.59-6.21l-1.88-9.34C41.78,6.48,45.44,2,50.33,2h15.96 c4.89,0,8.56,4.48,7.59,9.27L72,20.61C71.27,24.22,68.1,26.82,64.41,26.82z" fill="#F9ED32"/></g><g id="change2_3"><path d="M64.41,28.82h-12.2c-4.62,0-8.64-3.29-9.55-7.82l-1.88-9.34c-0.58-2.88,0.16-5.83,2.01-8.1C44.65,1.3,47.4,0,50.33,0h15.96 c2.93,0,5.68,1.3,7.54,3.57c1.86,2.27,2.59,5.22,2.01,8.09l-1.88,9.34C73.05,25.54,69.03,28.82,64.41,28.82z M50.33,4 c-1.73,0-3.35,0.77-4.44,2.1c-1.1,1.34-1.53,3.08-1.19,4.77l1.88,9.34c0.54,2.67,2.9,4.61,5.63,4.61h12.2 c2.72,0,5.09-1.94,5.63-4.61l1.88-9.34c0.34-1.69-0.09-3.43-1.19-4.77C69.64,4.77,68.02,4,66.29,4H50.33z" fill="inherit"/></g></g><g id="change2_1"><path d="M33.3 9.27H42.75V13.27H33.3z" fill="inherit"/></g></svg>