<?xml version="1.0" encoding="UTF-8"?><svg xmlns="http://www.w3.org/2000/svg" xmlns:xlink="http://www.w3.org/1999/xlink" height="56.5" preserveAspectRatio="xMidYMid meet" version="1.0" viewBox="0.0 -0.4 81.2 56.5" width="81.2" zoomAndPan="magnify"><g><g id="change1_1"><path d="M34,35c0,9.4-7.6,17-17,17S0,44.4,0,35s7.6-17,17-17S34,25.6,34,35z M64.2,18c-9.4,0-17,7.6-17,17 s7.6,17,17,17s17-7.6,17-17S73.6,18,64.2,18z" fill="#FFF"/></g><g id="change2_1"><path d="M48.2,54.5c-5.3,1.6-11.1,1.5-16.3-0.3c-1-0.3-1.7-1.4-1.4-2.5c0.3-1,1.4-1.7,2.5-1.4c4.6,1.6,9.5,1.7,14.2,0.3 C49.7,49.9,50.7,53.7,48.2,54.5z M33.3,32.3C33.3,26,28.3,21,22,21c-6.2,0-11.3,5.1-11.3,11.3S15.8,43.6,22,43.6 C28.3,43.6,33.3,38.5,33.3,32.3z M69.4,21c-6.2,0-11.3,5.1-11.3,11.3s5.1,11.3,11.3,11.3c6.2,0,11.3-5.1,11.3-11.3S75.6,21,69.4,21 z M23.9,4.1c1.1,0.1,2-1,2-2c0-1.1-0.9-1.9-2-2C18.1-0.4,12.3,0.9,7.1,3.6c-2.3,1.2-0.3,4.7,2,3.5C13.7,4.7,18.8,3.7,23.9,4.1z M72.7,7.1c2.3,1.2,4.3-2.2,2-3.5c-5.1-2.7-11-4-16.7-3.5c-1.1,0.1-2,0.9-2,2c0,1,0.9,2.1,2,2C63.1,3.7,68.2,4.7,72.7,7.1z" fill="inherit"/></g></g></svg>