<?xml version="1.0" encoding="UTF-8"?><svg xmlns="http://www.w3.org/2000/svg" xmlns:xlink="http://www.w3.org/1999/xlink" height="390.9" preserveAspectRatio="xMidYMid meet" version="1.0" viewBox="-2.0 -1.1 264.4 390.9" width="264.4" zoomAndPan="magnify"><g><g><g id="change1_1"><path d="M57.3,387.62c-2.84,0.36-5.73,0.21-8.55-0.33c-17.67-3.36-31.79-11.07-40.49-16.92 c-0.34-0.22-0.66-0.46-0.98-0.7c-6.34-4.95-6.99-14.79-1.86-21.51c6.34-8.32,41.17-19.6,54.75-52.41 c6.84-16.51,13.26-66.42,2.84-94.13l27.02,8.16c10.77,24.16,2.66,78.59-4.5,95.36c-14.23,33.33-43.19,46.18-43.19,46.18 C72.6,363.98,78.52,384.85,57.3,387.62z" fill="#F5DB08"/></g><g id="change2_1"><path d="M54.15,389.81c-1.88,0-3.81-0.19-5.77-0.57c-17.98-3.42-32.35-11.25-41.23-17.22c-0.36-0.24-0.74-0.51-1.09-0.79 c-7.04-5.51-8.06-16.63-2.22-24.3c2.11-2.77,6.68-5.61,12.47-9.2c13.04-8.09,32.74-20.32,42.03-42.76 c6.93-16.74,12.76-66.22,2.82-92.66c-0.27-0.71-0.11-1.51,0.41-2.07c0.52-0.56,1.31-0.76,2.04-0.55l27.02,8.16 c0.56,0.17,1.01,0.57,1.25,1.1c11.34,25.43,2.24,81.19-4.49,96.96c-11.44,26.8-31.92,40.52-40.41,45.27 c16.22,7.7,26.07,18.52,24.85,27.64c-0.77,5.77-5.97,9.7-14.26,10.78c0,0,0,0,0,0C56.44,389.74,55.3,389.81,54.15,389.81z M57.3,387.62L57.3,387.62L57.3,387.62z M66.16,204.65c8.84,28.87,2.55,75.71-4.14,91.86c-9.79,23.63-30.15,36.27-43.62,44.63 c-5.22,3.24-9.73,6.04-11.39,8.22c-4.54,5.96-3.86,14.53,1.5,18.72c0.27,0.21,0.54,0.41,0.83,0.6 c8.6,5.78,22.46,13.33,39.78,16.63c2.76,0.53,5.42,0.63,7.92,0.31c6.45-0.84,10.29-3.45,10.81-7.34 c1.18-8.79-12.33-19.3-26.28-25.14c-0.74-0.31-1.22-1.02-1.23-1.82c-0.01-0.8,0.46-1.53,1.19-1.85 c0.28-0.13,28.43-12.97,42.16-45.14c6.68-15.65,14.8-69,4.87-92.93L66.16,204.65z" fill="inherit"/></g></g><g><g id="change1_3"><path d="M224.99,369.72c-2.09,1.93-4.55,3.48-7.16,4.67c-16.35,7.49-32.32,9.39-42.81,9.66 c-0.4,0.02-0.8,0.01-1.2,0c-8.03-0.38-14.26-8.02-13.97-16.46c0.51-15.44-0.63-60.64-25.15-125.48l-33.53-2.86 c-27.7-2.36-48.25-26.73-45.9-54.44L66.4,54.17C69.07,22.8,96.67-0.47,128.03,2.21C159.4,4.88,182.67,32.47,180,63.84 l-15.39,180.81l0,0c21.67,60.16,20.53,105.48,20.53,105.48C217.14,342.94,240.69,355.17,224.99,369.72z" fill="#F5DB08"/></g><g id="change2_3"><path d="M174.53,386.07c-0.25,0-0.51-0.01-0.77-0.01c-8.97-0.42-16.24-8.91-15.91-18.53c0.53-16.08-0.82-60.19-24.58-123.53 L101,241.24c-28.76-2.45-50.17-27.84-47.72-56.6L64.4,54c1.34-15.71,8.71-29.95,20.76-40.11C97.21,3.73,112.5-1.12,128.2,0.22 c15.71,1.34,29.95,8.71,40.11,20.76c10.16,12.05,15.02,27.33,13.68,43.04l-15.36,180.38c11.15,31.07,16.13,58.09,18.34,75.31 c1.79,13.88,2.12,23.63,2.16,27.97c20.43-4.01,38.97-0.46,43.73,8.59c1.42,2.7,2.72,8.23-4.53,14.93c0,0,0,0,0,0 c-2.15,1.99-4.74,3.68-7.68,5.02c-16.64,7.63-32.89,9.56-43.59,9.84C174.9,386.06,174.72,386.07,174.53,386.07z M123.09,4 c-12.94,0-25.34,4.51-35.35,12.95C76.51,26.42,69.63,39.7,68.39,54.34L57.26,184.98c-1.09,12.87,2.89,25.39,11.21,35.26 c8.33,9.87,20,15.91,32.86,17.01l33.53,2.86c0.77,0.07,1.43,0.57,1.7,1.29c24.45,64.65,25.82,109.83,25.28,126.26 c-0.26,7.48,5.27,14.08,12.06,14.4c0.31,0.01,0.66,0.02,1.01,0c10.37-0.27,26.04-2.13,42.08-9.48c2.56-1.17,4.79-2.62,6.63-4.32 c2.77-2.57,5.66-6.41,3.7-10.14c-3.49-6.63-20.44-10.82-41.76-6.04c-0.6,0.14-1.23-0.01-1.71-0.41s-0.75-0.98-0.73-1.6 c0.01-0.45,0.86-45.69-20.41-104.75c-0.1-0.27-0.14-0.56-0.11-0.85l15.39-180.81c1.25-14.64-3.28-28.89-12.75-40.12 c-9.47-11.23-22.75-18.1-37.39-19.35C126.26,4.07,124.67,4,123.09,4z M224.99,369.72L224.99,369.72L224.99,369.72z" fill="inherit"/></g></g></g><g><g><g id="change1_2"><path d="M121.38,107.32c9.12,5.42,68.69,38.61,97.27-1.66l2.4-3.95c4.68-7.7,13.27-11.79,21.94-10.51 c4.47,0.66,9.43,1.54,14.08,2.68c1.95,0.48,3.21,2.44,2.92,4.5v0c-0.29,2.06-2.04,3.55-4.04,3.44c-3.56-0.21-9.05-0.6-12.77-1.17 c0,0,7.99,16.51-12.53,18.19c0,0-42.08,50.8-117.23,2.16" fill="#F5DB08"/></g><g id="change2_2"><path d="M175.89,144.05c-24.53,0-47.21-10.79-63.56-21.37c-0.93-0.6-1.19-1.84-0.59-2.77c0.6-0.93,1.84-1.19,2.77-0.59 c30.12,19.49,59.46,25.37,84.87,17.01c19.21-6.33,29.62-18.64,29.73-18.77c0.34-0.41,0.84-0.67,1.38-0.72 c5.77-0.47,9.54-2.19,11.21-5.11c2.44-4.28-0.28-10.16-0.31-10.22c-0.32-0.67-0.25-1.46,0.19-2.06c0.44-0.6,1.17-0.9,1.91-0.79 c3.76,0.57,9.5,0.96,12.59,1.15c0.93,0.05,1.79-0.68,1.94-1.72c0.15-1.04-0.48-2.04-1.42-2.28c-4.02-0.99-8.69-1.88-13.89-2.65 c-7.86-1.16-15.69,2.6-19.93,9.57l-2.4,3.95c-0.02,0.04-0.05,0.08-0.08,0.12c-12.36,17.41-32.4,23.9-57.96,18.77 c-19.82-3.98-37.13-13.67-41.97-16.54c-0.95-0.56-1.26-1.79-0.7-2.74c0.56-0.95,1.79-1.26,2.74-0.7 c4.7,2.79,21.51,12.2,40.71,16.06c24.21,4.87,42.33-0.89,53.87-17.1l2.37-3.89c5.08-8.35,14.47-12.85,23.94-11.45 c5.32,0.79,10.12,1.7,14.26,2.72c2.95,0.73,4.86,3.61,4.42,6.72c-0.44,3.12-3.07,5.33-6.13,5.15c-2.83-0.17-6.49-0.42-9.71-0.77 c0.72,2.81,1.15,6.99-0.96,10.69c-2.27,3.97-6.82,6.34-13.53,7.03c-2.47,2.74-12.89,13.35-30.78,19.3 C192.43,142.85,184.06,144.05,175.89,144.05z" fill="inherit"/></g></g></g></svg>