<?xml version="1.0" encoding="UTF-8"?><svg xmlns="http://www.w3.org/2000/svg" xmlns:xlink="http://www.w3.org/1999/xlink" height="66.3" preserveAspectRatio="xMidYMid meet" version="1.0" viewBox="-0.3 -0.4 127.5 66.3" width="127.5" zoomAndPan="magnify"><g><g id="change1_7"><path d="M71.31,25.01c0,0,13.2-15.32,39.26-22.71c4.66-1.32,9.44,1.73,10.27,6.5c1.79,10.35,4.37,28.69,4.06,46.96 c-0.07,4.43-3.62,8.01-8.05,8.1c-10.51,0.19-29.76-2.05-45.54-18.31" fill="#EF4136"/></g><g id="change2_7"><path d="M115.69,65.87c-10.79,0-30.02-2.64-45.82-18.93l2.87-2.79c15.35,15.82,34.19,17.87,44.07,17.71 c3.35-0.06,6.03-2.75,6.08-6.13c0.31-18.43-2.4-37.1-4.04-46.59c-0.3-1.73-1.32-3.26-2.81-4.2c-1.5-0.94-3.25-1.2-4.94-0.72 C86,11.35,72.95,26.17,72.82,26.32l-3.03-2.61c0.55-0.64,13.9-15.86,40.23-23.33c2.75-0.78,5.73-0.35,8.16,1.18 c2.45,1.54,4.13,4.06,4.62,6.9c1.66,9.63,4.41,28.58,4.09,47.33c-0.09,5.54-4.49,9.96-10.01,10.06 C116.5,65.87,116.1,65.87,115.69,65.87z" fill="inherit"/></g></g><g><g id="change1_6"><path d="M55.61,25.01c0,0-13.2-15.32-39.26-22.71C11.7,0.98,6.91,4.03,6.09,8.8C4.3,19.16,1.72,37.5,2.02,55.76 c0.07,4.43,3.62,8.01,8.05,8.1c10.51,0.19,29.76-2.05,45.54-18.31" fill="#EF4136"/></g><g id="change2_6"><path d="M11.23,65.87c-0.41,0-0.81,0-1.19-0.01c-5.52-0.1-9.92-4.52-10.01-10.06C-0.29,37.04,2.45,18.09,4.12,8.46 C4.61,5.62,6.3,3.1,8.74,1.56c2.43-1.53,5.41-1.96,8.16-1.18c26.33,7.46,39.67,22.68,40.23,23.33l-3.03,2.61 c-0.13-0.15-13.18-14.97-38.29-22.09c-1.69-0.48-3.44-0.22-4.94,0.72c-1.49,0.94-2.52,2.47-2.81,4.2 C6.42,18.63,3.72,37.3,4.02,55.73c0.06,3.38,2.73,6.07,6.08,6.13c9.86,0.17,28.72-1.88,44.07-17.71l2.87,2.79 C41.25,63.23,22.02,65.87,11.23,65.87z" fill="inherit"/></g></g><g><g id="change1_4"><path d="M55.61 25.01H71.3V45.540000000000006H55.61z" fill="#EF4136"/></g><g id="change2_4"><path d="M73.31,47.55h-19.7V23.01h19.7V47.55z M57.61,43.55h11.7V27.01h-11.7V43.55z" fill="inherit"/></g></g><g><g id="change1_3"><path d="M71.31 32.84L90.45 27.21" fill="#EF4136"/></g><g id="change2_3"><path d="M71.31,34.84c-0.86,0-1.66-0.56-1.92-1.44c-0.31-1.06,0.29-2.17,1.35-2.48l19.15-5.63c1.06-0.31,2.17,0.29,2.48,1.35 c0.31,1.06-0.29,2.17-1.35,2.48l-19.15,5.63C71.68,34.82,71.49,34.84,71.31,34.84z" fill="inherit"/></g></g><g><g id="change1_1"><path d="M72.6 38.43L91.66 44.38" fill="#EF4136"/></g><g id="change2_1"><path d="M91.66,46.38c-0.2,0-0.4-0.03-0.6-0.09l-19.05-5.94c-1.05-0.33-1.64-1.45-1.31-2.5c0.33-1.06,1.45-1.64,2.5-1.31 l19.05,5.94c1.05,0.33,1.64,1.45,1.31,2.5C93.3,45.83,92.51,46.38,91.66,46.38z" fill="inherit"/></g></g><g><g id="change1_2"><path d="M55.14 32.84L36 27.21" fill="#EF4136"/></g><g id="change2_2"><path d="M55.14,34.84c-0.19,0-0.38-0.03-0.57-0.08l-19.15-5.63c-1.06-0.31-1.67-1.42-1.35-2.48c0.31-1.06,1.42-1.67,2.48-1.35 l19.15,5.63c1.06,0.31,1.67,1.42,1.35,2.48C56.8,34.28,56.01,34.84,55.14,34.84z" fill="inherit"/></g></g><g><g id="change1_5"><path d="M53.84 38.43L34.79 44.38" fill="#EF4136"/></g><g id="change2_5"><path d="M34.79,46.38c-0.85,0-1.64-0.55-1.91-1.41c-0.33-1.05,0.26-2.18,1.31-2.5l19.05-5.94c1.05-0.33,2.18,0.26,2.5,1.31 c0.33,1.05-0.26,2.18-1.31,2.5l-19.05,5.94C35.19,46.35,34.99,46.38,34.79,46.38z" fill="inherit"/></g></g></svg>