<?xml version="1.0" encoding="UTF-8"?><svg xmlns="http://www.w3.org/2000/svg" xmlns:xlink="http://www.w3.org/1999/xlink" height="325.7" preserveAspectRatio="xMidYMid meet" version="1.0" viewBox="-1.1 -0.2 336.5 325.7" width="336.5" zoomAndPan="magnify"><g><g><g id="change1_2"><path d="M131.02,193.3c-6.29,13.56-9.08,27.68-8.76,38.53c1.08,36.23,23.35,58.76,23.35,58.76 c-32.79,0.75-45.92,18.02-27.17,28.34c2.51,1.38,5.26,2.29,8.08,2.81c17.68,3.32,33.64,1.3,43.88-0.97 c0.39-0.08,0.78-0.18,1.16-0.29c7.71-2.3,11.9-11.22,9.58-19.35c-2.86-10.06-31.17-33.28-31.85-68.78 c-0.24-12.61,3.14-27.76,12.13-43.32l54.43-8.77c31.12,43.12,43.06,76.27,46.86,88.99c2.41,8.1,10.75,13.36,18.48,11.16 c0.38-0.11,0.77-0.23,1.14-0.38c9.86-3.59,24.4-10.47,37.52-22.77c2.09-1.96,3.92-4.21,5.3-6.71 c10.26-18.79-15.96-22.89-44.01-5.9c0,0-9.66-31.15-36.8-71.2c28.24-14.15,36.02-54.04,10.62-77.42l-10.05-9.25 c-16.9-15.56-31.48-33.47-43.29-53.18l-0.53-0.87c-10.13-16.92-28-23.3-44.39-20.64c-16.41,2.63-31.36,14.29-35.67,33.55 l-0.22,0.99c-5.02,22.42-13.23,44-24.39,64.08l-6.63,11.95C71.84,154.98,95.96,193.32,131.02,193.3z" fill="#5EC2A4"/></g><g id="change2_3"><path d="M145.69,325.49c-6.11,0-12.7-0.5-19.55-1.79c-3.17-0.58-6.09-1.6-8.67-3.02c-7.32-4.03-10.73-9.58-9.35-15.24 c2.19-8.94,15.32-15.42,33.22-16.66c-6.17-7.52-20.23-27.76-21.09-56.9c-0.33-11.2,2.47-24.41,7.72-36.68 c-16.3-0.99-30.86-9.96-39.38-24.42c-8.97-15.23-9.18-33.59-0.56-49.1l6.63-11.95c11.07-19.91,19.2-41.29,24.19-63.55l0.22-0.99 c4.17-18.63,18.46-32.07,37.31-35.09c18.83-3.06,36.62,5.22,46.42,21.59l0.52,0.86c11.72,19.57,26.17,37.31,42.94,52.75 l10.05,9.25c12.16,11.19,17.83,26.93,15.54,43.16c-2.18,15.52-11.32,28.99-24.62,36.45c21.9,32.74,32.21,59.59,35.01,67.51 c18.09-10.31,36.81-12.83,44.2-5.77c2.2,2.11,5.19,6.93,0.46,15.59c-1.43,2.58-3.34,5.01-5.69,7.21 c-13.38,12.54-28.16,19.53-38.2,23.19c-0.4,0.17-0.87,0.31-1.27,0.42c-8.61,2.46-18.2-3.28-20.95-12.51 c-3.63-12.15-15.33-44.86-45.84-87.39l-52.27,8.42c-9.73,17.19-11.57,32-11.39,41.46c0.46,24.28,14.34,42.85,23.52,55.15 c4.08,5.46,7.3,9.77,8.25,13.12c2.64,9.27-2.36,19.26-10.93,21.81c-0.44,0.13-0.89,0.24-1.33,0.33 C164.35,324.16,155.66,325.49,145.69,325.49z M131.02,191.3c0.68,0,1.32,0.35,1.69,0.92c0.37,0.58,0.42,1.3,0.13,1.92 c-5.79,12.47-8.91,26.19-8.58,37.63c1.04,35.04,22.56,57.19,22.77,57.41c0.56,0.57,0.73,1.42,0.43,2.16 c-0.3,0.74-1.01,1.23-1.81,1.25c-15.12,0.35-31.53,5.2-33.64,13.81c-0.93,3.82,1.69,7.64,7.39,10.78 c2.21,1.21,4.73,2.09,7.48,2.59c17.35,3.26,33.01,1.28,43.08-0.96c0.37-0.08,0.71-0.16,1.03-0.26c6.5-1.94,10.27-9.67,8.21-16.88 c-0.75-2.65-3.93-6.9-7.61-11.83c-9.49-12.7-23.83-31.9-24.32-57.46c-0.19-10.11,1.8-26.02,12.4-44.36 c0.3-0.52,0.82-0.88,1.41-0.97l54.43-8.77c0.75-0.12,1.5,0.19,1.94,0.8c31.4,43.51,43.44,77.15,47.15,89.59 c2.14,7.18,9.47,11.67,16.02,9.81c0.31-0.09,0.63-0.18,0.93-0.31c9.76-3.56,24.02-10.3,36.91-22.38c2.04-1.92,3.7-4.01,4.92-6.22 c1.81-3.31,3.32-7.87,0.28-10.78c-5.41-5.18-22.82-3.76-41.5,7.56c-0.53,0.32-1.17,0.38-1.75,0.16c-0.58-0.22-1.02-0.69-1.2-1.28 c-0.1-0.31-9.91-31.36-36.55-70.67c-0.32-0.48-0.43-1.07-0.28-1.63c0.15-0.56,0.52-1.03,1.04-1.28 c13.2-6.62,22.34-19.51,24.45-34.5c2.1-14.91-3.11-29.37-14.29-39.66l-10.05-9.25c-17.05-15.7-31.74-33.74-43.65-53.62l-0.52-0.86 c-8.95-14.95-25.18-22.49-42.36-19.71c-17.2,2.76-30.24,15.02-34.04,32.01l-0.22,0.99c-5.07,22.63-13.34,44.37-24.59,64.62 l-6.63,11.95c-7.92,14.26-7.73,31.13,0.51,45.13c8.31,14.12,22.87,22.54,38.94,22.54C131,191.3,131.01,191.3,131.02,191.3z" fill="inherit"/></g></g></g><g><g id="change1_5"><path d="M110.06 90.5L99.32 94.98 74.76 112.99 56.55 119.73 51.77 114.91 54.19 96.89 57.9 83.14 58.7 66.87 52.5 59.32 41.75 54.46 28.81 46.49 22.26 48.52 21.4 54.47 28.93 61.65 22.97 63.5 18.56 63.66 15.54 64.9 11.95 59.15 6.82 57.08 2.19 61.16 5.01 70.25 11.23 80.66 12.9 88.17 18.33 91.42 22.36 92.07 30.08 98.15 40.5 94.59 36.29 106.39 37.85 125.54 43.13 135.19 53.01 139.16 65.54 136.12 86.81 122.38 98.87 114.61 100.99 111.51 112.74 99.14z" fill="#5EC2A4"/></g><g id="change2_5"><path d="M32.37,99.16c-0.67,0-1.33-0.05-1.99-0.15c-4.62-0.69-7.57-3.66-8.86-5.27c-2.92,0.14-5.37-0.64-7.29-2.29 c-3.05-2.63-3.69-6.7-3.82-8.16l-9.46-17c-2.01-3.61-0.72-8.22,2.87-10.27c3.57-2.04,8.05-0.9,10.21,2.61l3.22,5.22 c0.58,0.94,0.29,2.17-0.65,2.75c-0.94,0.58-2.17,0.29-2.75-0.65l-3.22-5.22C9.6,59.08,7.48,58.54,5.8,59.5 c-1.7,0.97-2.3,3.14-1.35,4.85l9.67,17.39c0.16,0.28,0.24,0.6,0.25,0.93c0,0.03,0.15,3.76,2.49,5.77c1.28,1.1,3.09,1.51,5.36,1.24 c0.78-0.1,1.54,0.27,1.95,0.95c0.02,0.03,2.41,3.8,6.84,4.44c3.82,0.55,8.15-1.29,12.85-5.48c0.83-0.73,2.09-0.66,2.82,0.16 c0.73,0.83,0.66,2.09-0.16,2.82C41.61,96.95,36.85,99.16,32.37,99.16z" fill="inherit"/></g><g id="change2_10"><path d="M23.4,86.91c-0.12,0-0.25-0.01-0.37-0.04c-1.09-0.21-1.8-1.25-1.59-2.34l2.9-15.32c0.31-1.62-0.58-3.24-2.11-3.86 c-0.95-0.38-2.02-0.33-2.93,0.16c-0.91,0.48-1.55,1.34-1.76,2.35l-3.21,15.26c-0.23,1.08-1.28,1.77-2.37,1.55 c-1.08-0.23-1.77-1.29-1.55-2.37l3.21-15.26c0.46-2.17,1.84-4.01,3.79-5.05c1.95-1.04,4.25-1.17,6.31-0.34 c3.29,1.33,5.21,4.82,4.55,8.31l-2.9,15.32C25.18,86.24,24.35,86.91,23.4,86.91z" fill="inherit"/></g><g id="change2_1"><path d="M34.84,87.05c-0.13,0-0.26-0.01-0.39-0.04c-1.08-0.21-1.79-1.26-1.58-2.35l1.67-8.56c0.38-1.94-0.84-3.82-2.77-4.27 c-0.98-0.23-1.98-0.05-2.82,0.5c-0.84,0.55-1.41,1.4-1.6,2.38l-0.44,2.31c-0.21,1.09-1.25,1.8-2.34,1.59 c-1.09-0.21-1.8-1.25-1.59-2.34l0.44-2.31c0.39-2.07,1.58-3.84,3.34-4.99c1.76-1.15,3.86-1.52,5.91-1.05 c4.04,0.94,6.59,4.86,5.79,8.93l-1.67,8.56C36.61,86.39,35.77,87.05,34.84,87.05z" fill="inherit"/></g><g id="change2_6"><path d="M57.66,121.85c-2.16,0-3.96-0.86-5.22-2.51c-3.86-5.07-2.44-18.16,4.21-38.9c1.63-5.08,0.99-10.6-1.75-15.14l-0.08-0.13 c-2.78-4.61-7.42-7.75-12.73-8.62l-1.4-0.23c-0.29-0.05-0.57-0.16-0.81-0.33l-10.01-6.9c-0.96-0.66-2.11-0.9-3.25-0.68 c-1.14,0.22-2.12,0.87-2.77,1.84c-0.66,0.99-0.88,2.18-0.62,3.35c0.26,1.16,0.97,2.14,2,2.75l10.58,6.29 c0.95,0.56,1.26,1.79,0.7,2.74c-0.56,0.95-1.79,1.26-2.74,0.7l-10.58-6.29c-1.98-1.18-3.35-3.06-3.86-5.31 c-0.51-2.25-0.08-4.54,1.2-6.45c1.25-1.86,3.14-3.12,5.34-3.54c2.2-0.42,4.43,0.05,6.28,1.32l9.64,6.64l0.96,0.16 c6.47,1.06,12.12,4.89,15.5,10.5l0.08,0.13c3.34,5.53,4.12,12.25,2.14,18.43c-5.88,18.33-7.69,31.51-4.84,35.25 c0.35,0.46,0.92,1,2.21,0.93c11.28-0.46,38.19-21.33,47.6-29.33c0.84-0.72,2.1-0.61,2.82,0.23c0.72,0.84,0.61,2.1-0.23,2.82 c-0.09,0.07-8.78,7.44-19.13,14.79c-14.12,10.02-24.52,15.23-30.9,15.49C57.89,121.84,57.78,121.85,57.66,121.85z" fill="inherit"/></g><g id="change2_9"><path d="M22.97,65.5c-0.89,0-1.71-0.6-1.94-1.51c-0.27-1.07,0.38-2.16,1.45-2.43l7.31-1.84c1.07-0.27,2.16,0.38,2.43,1.45 s-0.38,2.16-1.45,2.43l-7.31,1.84C23.3,65.48,23.13,65.5,22.97,65.5z" fill="inherit"/></g><g id="change2_11"><path d="M53.87,139.75c-3.44,0-6.43-0.8-9.02-2.41c-14.72-9.13-7.92-41.1-7.62-42.45c0.24-1.08,1.29-1.76,2.38-1.53 c1.08,0.24,1.76,1.3,1.53,2.38c-0.07,0.3-6.5,30.56,5.82,38.2c6.04,3.75,19.43,3.26,48.89-20.33c0.86-0.69,2.12-0.55,2.81,0.31 s0.55,2.12-0.31,2.81C79.13,132.13,64.44,139.75,53.87,139.75z" fill="inherit"/></g><g id="change1_3"><path d="M221.22 68.98L232.81 70.07 261.6 79.98 280.99 81.02 284.12 75 276.47 58.51 268.85 46.48 263.25 31.18 266.93 22.12 275.76 14.3 285.75 2.84 292.61 2.84 295.2 8.26 290.13 17.36 296.38 17.36 300.63 16.2 303.89 16.49 305.61 9.93 309.89 6.43 315.53 8.95 315.53 18.48 312.68 30.26 313.32 37.93 309.09 42.64 305.43 44.46 299.86 52.56 288.85 52.25 296.38 62.26 300.57 81.02 298.39 91.8 290.13 98.52 277.26 99.34 252.88 92.52 239.05 88.68 236.11 86.35 221.22 78.03z" fill="#5EC2A4"/></g><g id="change2_12"><path d="M293.47,54.85c-3.27,0-6.94-0.92-10.97-2.75c-1.01-0.46-1.45-1.64-1-2.65s1.64-1.45,2.65-0.99 c5.74,2.6,10.42,3.08,13.9,1.42c4.04-1.92,5.21-6.24,5.22-6.28c0.2-0.75,0.82-1.33,1.58-1.47c2.27-0.41,3.87-1.35,4.77-2.79 c1.62-2.6,0.66-6.2,0.65-6.23c-0.09-0.31-0.1-0.64-0.04-0.96l4.08-19.48c0.4-1.91-0.82-3.81-2.73-4.23 c-1.9-0.42-3.76,0.73-4.24,2.61l-1.52,5.94c-0.27,1.07-1.36,1.71-2.43,1.44c-1.07-0.27-1.71-1.36-1.44-2.43l1.52-5.94 c1.02-3.98,4.96-6.4,8.98-5.52c4.04,0.89,6.63,4.91,5.78,8.95l-3.99,19.04c0.3,1.43,0.9,5.5-1.23,8.92 c-1.34,2.15-3.45,3.61-6.28,4.35c-0.76,1.92-2.7,5.63-6.9,7.66C297.92,54.39,295.8,54.85,293.47,54.85z" fill="inherit"/></g><g id="change2_8"><path d="M302.32,39.93c-0.72,0-1.41-0.39-1.77-1.06l-7.31-13.77c-1.67-3.14-0.88-7.04,1.88-9.29c1.72-1.4,3.95-1.96,6.12-1.55 c2.17,0.42,4.04,1.76,5.12,3.7l7.59,13.62c0.54,0.96,0.19,2.18-0.77,2.72c-0.97,0.54-2.18,0.19-2.72-0.77l-7.59-13.62 c-0.5-0.9-1.37-1.52-2.38-1.72c-1.01-0.19-2.04,0.07-2.84,0.72c-1.28,1.04-1.64,2.86-0.87,4.31l7.31,13.77 c0.52,0.98,0.15,2.19-0.83,2.7C302.95,39.85,302.63,39.93,302.32,39.93z" fill="inherit"/></g><g id="change2_2"><path d="M291.44,43.46c-0.71,0-1.4-0.38-1.76-1.05l-4.13-7.68c-1.97-3.65-0.7-8.15,2.88-10.24c1.82-1.06,3.94-1.33,5.96-0.75 c2.02,0.58,3.68,1.92,4.67,3.77l1.1,2.08c0.52,0.98,0.15,2.19-0.83,2.7c-0.98,0.52-2.19,0.15-2.71-0.83l-1.1-2.08 c-0.47-0.89-1.26-1.53-2.23-1.8c-0.97-0.27-1.98-0.15-2.84,0.36c-1.71,1-2.32,3.15-1.38,4.89l4.13,7.68 c0.52,0.97,0.16,2.19-0.81,2.71C292.08,43.38,291.76,43.46,291.44,43.46z" fill="inherit"/></g><g id="change2_13"><path d="M275.12,84.03c-16.85,0-48.14-13.79-49.61-14.44c-1.01-0.45-1.46-1.63-1.02-2.64c0.45-1.01,1.63-1.46,2.64-1.02 c0.1,0.04,9.92,4.39,21.31,8.22c14.79,4.98,25.42,6.86,30.75,5.44c1.25-0.33,1.64-1,1.83-1.55c1.61-4.42-4.02-16.47-15.08-32.23 c-3.73-5.32-4.98-11.96-3.43-18.23l0.04-0.15c1.57-6.36,5.83-11.69,11.69-14.62l0.87-0.44l7.24-9.2c1.39-1.76,3.38-2.87,5.6-3.12 c2.23-0.25,4.41,0.39,6.16,1.8c1.79,1.45,2.88,3.51,3.06,5.81c0.18,2.3-0.57,4.5-2.11,6.21l-8.24,9.14 c-0.74,0.82-2,0.89-2.82,0.15c-0.82-0.74-0.89-2-0.15-2.82l8.24-9.14c0.8-0.89,1.19-2.03,1.09-3.22 c-0.09-1.19-0.66-2.26-1.58-3.01c-0.9-0.73-2.04-1.06-3.19-0.93c-1.15,0.13-2.19,0.7-2.9,1.62l-7.51,9.55 c-0.18,0.23-0.41,0.42-0.68,0.55l-1.27,0.64c-4.81,2.41-8.31,6.79-9.6,12.01l-0.04,0.15c-1.27,5.14-0.24,10.6,2.82,14.97 c12.51,17.84,17.74,29.91,15.56,35.9c-0.75,2.05-2.33,3.45-4.56,4.04C278.75,83.85,277.03,84.03,275.12,84.03z" fill="inherit"/></g><g id="change2_4"><path d="M288.85,19.77c-1.05,0-1.94-0.83-2-1.89c-0.06-1.1,0.79-2.05,1.89-2.11l7.52-0.41c1.06-0.06,2.04,0.78,2.11,1.89 c0.06,1.1-0.79,2.05-1.89,2.11l-7.52,0.41C288.92,19.77,288.89,19.77,288.85,19.77z" fill="inherit"/></g><g id="change2_7"><path d="M280.39,100.56c-9.88,0-23.22-3.33-40.22-10c-1.03-0.4-1.54-1.56-1.13-2.59c0.4-1.03,1.56-1.54,2.59-1.13 c35.14,13.79,48.07,10.28,52.72,4.91c7.89-9.11-1.49-30.67-5.77-38.21c-0.54-0.96-0.21-2.18,0.75-2.73 c0.96-0.54,2.18-0.21,2.73,0.75c0.69,1.21,16.66,29.72,5.32,42.8C293.8,98.49,288.17,100.56,280.39,100.56z" fill="inherit"/></g><g id="change1_4"><path d="M93.05,120.91c0,0,3.14-4.8-1.47-4.09c-4.12,0.64,0.89-6.05,0.89-6.05l9.79-2.63l2.58,10.77L93.05,120.91z" fill="#5EC2A4"/></g><g id="change1_1"><path d="M250.05,94.19c0,0-1.85-3.58,2.2-3.54c4.05,0.04-4.08-5.7-4.08-5.7l-14.14-1.04l4.66,12.68L250.05,94.19z" fill="#5EC2A4"/></g></g></svg>